<?xml version="1.0" standalone="no"?>
<!DOCTYPE svg PUBLIC "-//W3C//DTD SVG 1.1//EN" "http://www.w3.org/Graphics/SVG/1.1/DTD/svg11.dtd" >
<svg xmlns="http://www.w3.org/2000/svg" xmlns:xlink="http://www.w3.org/1999/xlink" version="1.1">
<metadata></metadata>
<defs>
<font id="agendaitalic" horiz-adv-x="819" >
<font-face units-per-em="2048" ascent="1638" descent="-410" />
<missing-glyph horiz-adv-x="471" />
<glyph horiz-adv-x="0" />
<glyph horiz-adv-x="682" />
<glyph d="M307 1149l123 108q18 -14 41 -22q18 -10 45 -16.5t55 -6.5q29 0 57.5 6.5t51.5 16.5q25 8 47 22l86 -108q-39 -27 -82 -49q-37 -18 -85 -32.5t-101 -14.5t-97.5 14t-74.5 33q-37 23 -66 49z" />
<glyph d="M451 1155q0 14 15 33.5t35.5 37t43 30t37.5 12.5q14 0 30.5 -10.5t29.5 -25.5t22.5 -32t9.5 -31q0 -16 -15.5 -35.5t-36 -37t-43 -29.5t-36.5 -12t-30.5 10t-30 25.5t-22.5 33t-9 31.5z" />
<glyph d="M344 1233q0 51 22.5 99t59.5 84t85 57.5t101 21.5q43 0 81 -16.5t65.5 -44t44 -63.5t16.5 -77q0 -53 -22.5 -100t-59.5 -83t-86 -57.5t-100 -21.5q-43 0 -81 16.5t-65.5 44t-44 63.5t-16.5 77zM461 1239q0 -43 26.5 -68.5t73.5 -25.5q59 0 100 42t41 101q0 43 -26.5 68.5 t-73.5 25.5q-59 0 -100 -42t-41 -101z" />
<glyph unicode="&#xa;" d="M209 1083q92 61 180 149.5t152 174.5l80 -100q-66 -86 -129.5 -141.5t-141.5 -112.5zM516 1083q92 61 180 149.5t152 174.5l80 -100q-66 -86 -129.5 -141.5t-143.5 -112.5z" />
<glyph d="M82 -293q0 49 21.5 93t56.5 81t80 66.5t92 52.5h174q-53 -25 -104.5 -53.5t-93.5 -62.5t-67.5 -73.5t-25.5 -86.5q0 -37 24.5 -61.5t69.5 -24.5q33 0 66 9t55 23l-24 -114q-25 -14 -53.5 -21.5t-69.5 -7.5t-77 14.5t-63.5 39t-44 57t-16.5 69.5z" />
<glyph d="M317 1270l111 96q47 -23 82 -49.5t68 -69.5q49 43 94 69.5t98 49.5l86 -96q-88 -35 -167 -96.5t-144 -135.5q-37 74 -94.5 135.5t-133.5 96.5z" />
<glyph unicode="&#xd;" horiz-adv-x="471" />
<glyph horiz-adv-x="1239" d="M-57 35l1317 1323l83 -84l-1316 -1323z" />
<glyph horiz-adv-x="1069" d="M68 788l24 140h158l6 35q43 246 182.5 374.5t341.5 128.5q86 0 154 -18l-35 -152q-23 6 -56.5 10.5t-72.5 4.5q-63 0 -116.5 -22.5t-94.5 -62.5t-68.5 -93.5t-37.5 -112.5l-17 -92h551l-164 -928h-186l139 788h-364l-140 -788h-186l139 788h-157z" />
<glyph horiz-adv-x="1150" d="M68 788l24 140h158l4 22q45 242 193.5 379t424.5 137q66 0 131.5 -7t110.5 -23l-213 -1205q-2 -10 -3 -17t-1 -15q0 -51 27.5 -79t64.5 -38l-119 -119q-29 6 -56.5 21.5t-50 43t-36.5 66.5t-14 90q0 33 6 70l184 1051q-29 6 -63 6q-92 0 -162 -29t-118 -75t-75.5 -104.5 t-38.5 -115.5l-10 -59h219l-24 -140h-219l-140 -788h-186l139 788h-157z" />
<glyph horiz-adv-x="937" d="M4 610l182 97l105 600h198l-83 -488l229 121l-31 -174l-229 -119l-84 -477h575l-30 -170h-775l95 535l-103 -56z" />
<glyph horiz-adv-x="538" d="M-6 610l194 101l131 747h187l-113 -637l176 92l-30 -174l-177 -92l-73 -416q-2 -10 -3 -17t-1 -15q0 -51 27.5 -79t64.5 -38l-119 -119q-29 6 -56.5 21.5t-50 43t-37 66.5t-14.5 90q0 33 6 70l52 285l-117 -60z" />
<glyph horiz-adv-x="1040" d="M-31 0l8 47l543 737q31 43 68 91.5t73.5 96.5t71.5 94t66 83l-2 2h-592l26 156h861l-9 -47l-542 -738q-66 -90 -144 -188t-137 -176l2 -2h660l-27 -156h-926zM426 1680l111 96q47 -23 82 -49.5t68 -69.5q49 43 94 69.5t98 49.5l86 -96q-88 -35 -167 -96.5t-144 -135.5 q-37 74 -94.5 135.5t-133.5 96.5z" />
<glyph horiz-adv-x="860" d="M-35 0l6 37l377 498q20 27 45 59.5t50.5 65t50 64.5t45.5 56l-4 2h-404l27 146h676l-7 -37l-378 -500q-51 -66 -95.5 -122t-95.5 -122l4 -2h469l-24 -145h-742zM338 1268l94 82q39 -20 68.5 -43t58.5 -58q41 35 80 57.5t84 43.5l72 -82q-74 -29 -140.5 -81t-124.5 -116 q-31 63 -80 115.5t-112 81.5z" />
<glyph unicode=" "  horiz-adv-x="471" />
<glyph unicode="&#x09;" horiz-adv-x="471" />
<glyph unicode="&#xa0;" horiz-adv-x="471" />
<glyph unicode="!" horiz-adv-x="546" d="M82 94q0 16 16.5 39t40 43.5t48 34.5t40.5 14q14 0 33 -12t34 -30.5t26.5 -39t11.5 -34.5q0 -16 -17.5 -38t-41 -43.5t-48 -36t-41.5 -14.5q-14 0 -32.5 12.5t-34 30t-25.5 38t-10 36.5zM170 369l147 1028h220l-220 -1063z" />
<glyph unicode="&#x22;" horiz-adv-x="641" d="M193 989l53 469h166l-121 -469h-98zM510 989l51 469h166l-119 -469h-98z" />
<glyph unicode="#" horiz-adv-x="882" d="M-33 0l166 412h-88v118h137l103 246h-123v119h172l166 412h133l-166 -412h195l165 412h134l-166 -412h86v-119h-136l-102 -246h121v-118h-170l-166 -412h-133l166 412h-195l-166 -412h-133zM315 530h195l102 246h-194z" />
<glyph unicode="$" horiz-adv-x="958" d="M-10 51l37 176q59 -35 148 -58.5t183 -23.5q57 0 109.5 15.5t91.5 43t61.5 66.5t22.5 88q0 72 -41 130.5t-149 111.5q-135 66 -195.5 156t-60.5 211q0 74 27.5 134t74.5 106t109.5 76t134.5 42l32 184h117l-30 -176q158 -6 245 -45l-39 -158q-92 37 -231 37 q-61 0 -107.5 -16t-77 -42t-47 -59.5t-16.5 -68.5q0 -72 37 -122t127 -93q135 -66 210 -161t75 -230q0 -74 -25 -140.5t-75 -120t-129 -89t-187 -45.5l-31 -179h-117l31 174q-86 4 -170 26t-145 50z" />
<glyph unicode="%" horiz-adv-x="1425" d="M35 35l1317 1323l84 -84l-1317 -1323zM162 999q0 74 26.5 135.5t73.5 105.5t108.5 68.5t133.5 24.5q55 0 101 -19.5t80 -54t52.5 -81t18.5 -97.5q0 -74 -28 -135t-75 -105t-108.5 -68.5t-130.5 -24.5q-55 0 -101.5 19t-80 54t-52 80t-18.5 98zM315 1010q0 -55 34 -88 t83 -33q33 0 63.5 14.5t54 40t38 58t14.5 69.5q0 55 -33.5 88t-83.5 33q-33 0 -63.5 -14.5t-54 -40t-38 -58t-14.5 -69.5zM719 229q0 74 26.5 135.5t73.5 105.5t108.5 68.5t133.5 24.5q55 0 101 -19.5t80 -54t52.5 -81t18.5 -97.5q0 -74 -28 -135t-75 -105t-108.5 -69 t-130.5 -25q-55 0 -101.5 19.5t-80 54.5t-52 80t-18.5 98zM872 240q0 -55 34 -88t83 -33q33 0 63.5 14t54 40t38 58.5t14.5 69.5q0 55 -33.5 88t-83.5 33q-33 0 -63.5 -14.5t-54 -40t-38 -58.5t-14.5 -69z" />
<glyph unicode="&#x26;" horiz-adv-x="1236" d="M41 299q0 147 83 242.5t236 165.5q-49 57 -82.5 130.5t-33.5 151.5q0 86 34.5 150.5t91 107.5t126 64.5t137.5 21.5q59 0 114.5 -19.5t97.5 -56t67.5 -91t25.5 -124.5q0 -57 -25.5 -111t-68.5 -103.5t-98.5 -92.5t-114.5 -76l233 -280q59 66 106.5 138.5t80.5 137.5 l108 -135q-29 -55 -76 -126.5t-112 -143.5l207 -250h-230l-106 127q-102 -72 -200.5 -112t-227.5 -40q-96 0 -166 29t-116 75t-68.5 103.5t-22.5 116.5zM221 315q0 -76 58.5 -128t152.5 -52q72 0 154 37t147 86l-268 324q-109 -49 -176.5 -111.5t-67.5 -155.5zM424 997 q0 -51 27.5 -102t80.5 -111q111 59 169.5 124t58.5 126q0 59 -39 101.5t-109 42.5q-41 0 -74.5 -15.5t-59 -41t-40 -58.5t-14.5 -66z" />
<glyph unicode="'" horiz-adv-x="325" d="M193 989l53 469h166l-121 -469h-98z" />
<glyph unicode="(" horiz-adv-x="552" d="M45 119q0 197 32 379t89 349t138 319.5t177 289.5l181 -41q-94 -129 -174 -270t-138.5 -300t-91.5 -336t-33 -378q0 -154 23.5 -299t70.5 -297l-184 43q-41 123 -65.5 253t-24.5 288z" />
<glyph unicode=")" horiz-adv-x="552" d="M-119 -426q94 129 174 270.5t138.5 300t91 335.5t32.5 378q0 154 -23.5 299.5t-70.5 296.5l185 -43q41 -123 65.5 -253t24.5 -288q0 -197 -32 -379t-89.5 -349t-138 -319.5t-177.5 -289.5z" />
<glyph unicode="*" horiz-adv-x="851" d="M154 1049l49 168l256 -111l30 264l177 39l-74 -303l262 102l64 -149l-304 -76l134 -207l-138 -127l-118 252l-183 -223l-141 72l231 233z" />
<glyph unicode="+" horiz-adv-x="929" d="M78 498l26 149h297l50 281h174l-50 -281h295l-26 -149h-295l-49 -281h-174l49 281h-297z" />
<glyph unicode="," horiz-adv-x="403" d="M-94 -256q68 72 116 142.5t62 117.5q-25 4 -53.5 35t-28.5 57q0 16 17.5 39t41 42.5t48 33.5t38.5 14q12 0 30 -11t35 -28.5t28.5 -38t11.5 -38.5q0 -29 -26.5 -78t-68.5 -104.5t-90.5 -107.5t-91.5 -87z" />
<glyph unicode="-" horiz-adv-x="675" d="M78 498l26 149h512l-26 -149h-512z" />
<glyph unicode="." horiz-adv-x="403" d="M2 94q0 16 16.5 39t40 43.5t48 34.5t40.5 14q14 0 33 -12t34 -30.5t26.5 -39t11.5 -34.5q0 -16 -17.5 -38t-41 -43.5t-48 -36t-41.5 -14.5q-14 0 -32.5 12.5t-33.5 30t-25.5 38t-10.5 36.5z" />
<glyph unicode="/" horiz-adv-x="1263" d="M-45 63l1305 1319l102 -98l-1299 -1321z" />
<glyph unicode="0" horiz-adv-x="1134" d="M82 453q0 88 16.5 187t50 196.5t85 187.5t120 158.5t156.5 109.5t197 41q76 0 146.5 -28.5t123.5 -87t85 -148.5t32 -213q0 -88 -16.5 -187.5t-50.5 -197.5t-85 -187t-119.5 -158t-158 -110t-195.5 -41q-78 0 -147.5 28t-123 86t-85 148.5t-31.5 215.5zM268 451 q0 -84 17.5 -142.5t48.5 -96.5t69.5 -55.5t81.5 -17.5q68 0 125.5 32t104.5 87t83 127t60.5 150.5t36.5 160.5t12 158q0 84 -17.5 143.5t-48 98.5t-69.5 56t-82 17q-100 0 -179 -69.5t-132 -176t-82 -233.5t-29 -239z" />
<glyph unicode="1" horiz-adv-x="677" d="M147 1149l60 145l430 39l-236 -1333h-186l207 1176z" />
<glyph unicode="2" horiz-adv-x="985" d="M-35 0l8 37q162 145 301.5 281.5t241.5 257t159.5 223t57.5 182.5q0 55 -16.5 92t-45 58.5t-66.5 29.5t-81 8q-82 0 -152.5 -27.5t-142.5 -70.5l-34 156q72 45 165 75.5t185 30.5q80 0 149.5 -21.5t119.5 -65.5t79 -109.5t29 -153.5q0 -94 -62.5 -209t-153 -228.5 t-188.5 -214t-170 -161.5h498l-31 -170h-850z" />
<glyph unicode="3" horiz-adv-x="866" d="M37 12v174q49 -23 92 -36t104 -13q68 0 131.5 20.5t112.5 59.5t80 97.5t31 131.5q0 45 -17.5 85t-47 70t-71.5 47.5t-92 17.5h-15t-21 -2l-33 151q59 10 113.5 32.5t95.5 54.5t65.5 69t24.5 78q0 57 -44 89.5t-108 32.5q-59 0 -102 -14t-96 -45l-35 156q66 33 125 49 t131 16q68 0 125 -20.5t98 -57t64.5 -87t23.5 -111.5q0 -57 -21.5 -106.5t-54 -87.5t-71.5 -62.5t-74 -34.5q37 -8 75 -32.5t69.5 -63.5t52 -92.5t20.5 -120.5q0 -104 -38 -192.5t-108.5 -152t-173 -99.5t-231.5 -36q-98 0 -180 35z" />
<glyph unicode="4" horiz-adv-x="1015" d="M23 498l757 809h125l-141 -805h154l-25 -142h-154l-63 -360h-187l64 360h-522zM217 502h361l57 317l12 78t17 82l-5 2q-35 -45 -70.5 -85t-68.5 -75z" />
<glyph unicode="5" horiz-adv-x="921" d="M74 16v181q53 -29 109.5 -42.5t127.5 -13.5q63 0 124 23.5t107 64.5t73.5 98.5t27.5 125.5q0 104 -69.5 160.5t-170.5 56.5q-72 0 -127 -9.5t-104 -25.5l137 672h559l-49 -160h-364l-66 -318q16 4 28.5 4.5t24.5 0.5q84 0 155 -28t121 -77t78.5 -117.5t28.5 -150.5 q0 -98 -37.5 -186.5t-108.5 -154t-171 -104.5t-223 -39q-76 0 -126 11.5t-85 27.5z" />
<glyph unicode="6" horiz-adv-x="1042" d="M59 365q0 147 62.5 294.5t168 279.5t246 239.5t298.5 173.5l157 -84q-102 -43 -196.5 -102.5t-176 -128t-147 -143.5t-111.5 -149q45 41 102.5 60.5t123.5 19.5q82 0 148.5 -27.5t113.5 -75.5t73.5 -113.5t26.5 -143.5q0 -109 -39 -198t-106.5 -153.5t-158.5 -100.5 t-195 -36q-78 0 -149 27t-124 76t-85 120.5t-32 164.5zM242 371q0 -49 18.5 -91t50 -73t74.5 -48.5t90 -17.5q55 0 107.5 24.5t91.5 67.5t62.5 100.5t23.5 123.5q0 92 -55.5 148.5t-151.5 56.5q-92 0 -167 -39t-122 -136q-10 -23 -16 -57.5t-6 -58.5z" />
<glyph unicode="7" horiz-adv-x="946" d="M70 0l700 1157h-594l25 150h866l-791 -1307h-206z" />
<glyph unicode="8" horiz-adv-x="1038" d="M47 326q0 78 35 142t85 114.5t104.5 84t93.5 48.5q-57 25 -101.5 94.5t-44.5 157.5q0 76 34 143.5t92 116.5t136 77.5t168 28.5q76 0 138.5 -23.5t107.5 -64.5t69.5 -95.5t24.5 -115.5t-23.5 -112.5t-59.5 -90t-79 -67.5t-84 -45q27 -10 61 -38t62.5 -68t48 -92 t19.5 -113q0 -98 -42 -178t-111.5 -136.5t-161 -87.5t-187.5 -31q-84 0 -153.5 25t-122 70t-81 110.5t-28.5 145.5zM223 330q0 -90 63.5 -142.5t157.5 -52.5q57 0 112.5 21.5t97.5 57.5t68 85t26 104q0 45 -20.5 81t-53.5 65t-73 48t-79 30q-49 -14 -102 -40t-97 -64 t-72 -87t-28 -106zM399 971q0 -61 48.5 -108.5t127.5 -69.5q55 14 99.5 40.5t74 59.5t46 68.5t16.5 68.5q0 66 -48 108t-126 42q-45 0 -88 -16.5t-76 -45t-53.5 -66.5t-20.5 -81z" />
<glyph unicode="9" horiz-adv-x="1042" d="M98 43q102 43 196.5 102.5t176.5 128t147.5 143.5t110.5 148q-45 -41 -102.5 -60.5t-122.5 -19.5q-82 0 -148.5 28t-114.5 76t-74 113.5t-26 143.5q0 109 39 198t106.5 153.5t159 100t195.5 35.5q78 0 148.5 -26.5t124 -75.5t85 -121t31.5 -164q0 -147 -62.5 -294.5 t-168 -279.5t-246.5 -239.5t-297 -173.5zM330 854q0 -92 55 -148.5t152 -56.5q92 0 166.5 39t121.5 135q10 23 16.5 57.5t6.5 59.5q0 49 -18.5 91t-50 73t-74.5 48t-91 17q-55 0 -107 -25.5t-91 -68.5t-62.5 -100t-23.5 -121z" />
<glyph unicode=":" horiz-adv-x="403" d="M2 94q0 16 16.5 39t40 43.5t48 34.5t40.5 14q14 0 33 -12t34 -30.5t26.5 -39t11.5 -34.5q0 -16 -17.5 -38t-41 -43.5t-48 -36t-41.5 -14.5q-14 0 -32.5 12.5t-33.5 30t-25.5 38t-10.5 36.5zM131 819q0 16 16.5 39t40 43.5t48 34.5t40.5 14q14 0 33 -12t34 -30.5t26.5 -39 t11.5 -34.5q0 -16 -17.5 -38t-41 -43.5t-48 -36t-41.5 -14.5q-14 0 -32.5 12.5t-33.5 30t-25.5 38t-10.5 36.5z" />
<glyph unicode=";" horiz-adv-x="403" d="M-94 -256q68 72 116 142.5t62 117.5q-25 4 -53.5 35t-28.5 57q0 16 17.5 39t41 42.5t48 33.5t38.5 14q12 0 30 -11t35 -28.5t28.5 -38t11.5 -38.5q0 -29 -26.5 -78t-68.5 -104.5t-90.5 -107.5t-91.5 -87zM131 819q0 16 16.5 39t40 43.5t48 34.5t40.5 14q14 0 33 -12 t34 -30.5t26.5 -39t11.5 -34.5q0 -16 -17.5 -38t-41 -43.5t-48 -36t-41.5 -14.5q-14 0 -32.5 12.5t-33.5 30t-25.5 38t-10.5 36.5z" />
<glyph unicode="&#x3c;" horiz-adv-x="733" d="M88 567l434 369l99 -119l-291 -250l202 -250l-141 -118z" />
<glyph unicode="=" horiz-adv-x="929" d="M47 322l27 149h766l-27 -149h-766zM109 674l26 149h766l-27 -149h-765z" />
<glyph unicode="&#x3e;" horiz-adv-x="733" d="M127 317l293 250l-205 250l143 119l304 -369l-435 -368z" />
<glyph unicode="?" horiz-adv-x="802" d="M166 94q0 16 16.5 39t40 43.5t48 34.5t40.5 14q14 0 32.5 -12t34 -30.5t27 -39t11.5 -34.5q0 -16 -17.5 -38t-41 -43.5t-48 -36t-41.5 -14.5q-14 0 -32.5 12.5t-34 30t-25.5 38t-10 36.5zM182 1321q53 45 131 71.5t162 26.5q74 0 136.5 -22.5t108.5 -63.5t72.5 -97 t26.5 -126q0 -63 -17.5 -115.5t-51 -101.5t-81.5 -98.5t-110 -104.5q-68 -61 -97.5 -111.5t-43.5 -107.5q-10 -37 -15.5 -78t-5.5 -63l-147 35q-2 10 -2 17v15q0 104 52 218t142 196q82 72 132.5 140.5t50.5 148.5q0 57 -42 106t-130 49q-80 0 -138.5 -29.5t-97.5 -64.5z " />
<glyph unicode="@" horiz-adv-x="1568" d="M109 545q0 164 64.5 308t176 251.5t260 169t316.5 61.5q137 0 245.5 -43t184.5 -118.5t116.5 -176t40.5 -213.5q0 -84 -25.5 -173t-76.5 -163.5t-126 -123t-173 -48.5q-53 0 -96 35t-47 107q-37 -68 -105.5 -105t-161.5 -37q-43 0 -85 17.5t-74.5 51.5t-53 85t-20.5 117 q0 106 41 194t108.5 151.5t152.5 97.5t173 34q82 0 140.5 -25.5t86.5 -54.5l-69 -436q-2 -8 -2 -23q0 -61 39 -61q33 0 72.5 27.5t73.5 77t57.5 116t23.5 143.5q0 88 -33 164t-92 130.5t-143 85t-187 30.5q-131 0 -248.5 -50t-206.5 -138t-141.5 -208t-52.5 -257 q0 -113 35 -193t93.5 -132t133 -76.5t156.5 -24.5q66 0 125 18.5t100 52.5l-41 -161q-25 -18 -78 -35t-135 -17q-115 0 -214 41t-171.5 115t-114.5 178.5t-42 233.5zM635 551q0 -66 31.5 -99.5t85.5 -33.5q68 0 130 74.5t85 207.5l28 168q-10 4 -26.5 8.5t-36.5 4.5 q-59 0 -112.5 -25t-94.5 -69t-65.5 -104t-24.5 -132z" />
<glyph unicode="A" horiz-adv-x="1267" d="M-51 0l790 1325h72l324 -1325h-193l-84 348h-500l-206 -348h-203zM449 496h372l-73 319q-8 33 -15.5 76t-11.5 84h-4q-18 -41 -41 -84t-43 -76z" />
<glyph unicode="B" horiz-adv-x="1067" d="M41 0l229 1307h344q68 0 128.5 -19.5t106.5 -57.5t72.5 -92.5t26.5 -123.5q0 -41 -13 -85t-35.5 -83t-55.5 -71t-70 -46q37 -12 72 -37.5t61.5 -63.5t43 -85.5t16.5 -98.5q0 -109 -43 -191.5t-114 -139t-161 -85t-184 -28.5h-424zM264 158h187q61 0 118.5 19.5t101.5 56 t71.5 88.5t27.5 118q0 47 -19.5 84t-51 61.5t-74.5 38t-88 13.5h-187zM377 795h135q43 0 86 14t77 41t55.5 67t21.5 89q0 72 -52.5 107.5t-124.5 35.5h-135z" />
<glyph unicode="C" horiz-adv-x="1228" d="M96 565q0 158 60.5 298.5t171 244.5t267.5 164.5t351 60.5q92 0 176 -14t135 -37l-36 -170q-49 25 -128 37t-155 12q-145 0 -264 -48t-203 -129t-130 -189.5t-46 -227.5q0 -100 39 -178t102.5 -132t144.5 -82t167 -28q88 0 177 24t160 62l-43 -194q-31 -14 -64.5 -26.5 t-73.5 -20.5t-89 -12.5t-113 -4.5q-106 0 -213.5 38t-194.5 112t-142.5 184.5t-55.5 255.5z" />
<glyph unicode="D" horiz-adv-x="1323" d="M41 0l229 1307h377q137 0 252 -38t199 -108.5t131 -172t47 -230.5q0 -158 -61.5 -296t-171 -240.5t-263 -162t-338.5 -59.5h-401zM264 158h170q143 0 260 48t201 129t130 190.5t46 232.5q0 98 -35 170.5t-97 122t-146 74t-183 24.5h-170z" />
<glyph unicode="E" horiz-adv-x="952" d="M41 0l229 1307h705l-27 -160h-506l-71 -406h424l-29 -159h-424l-74 -422h578l-29 -160h-776z" />
<glyph unicode="F" horiz-adv-x="884" d="M41 0l229 1307h723l-26 -160h-525l-71 -406h442l-29 -159h-442l-102 -582h-199z" />
<glyph unicode="G" horiz-adv-x="1394" d="M96 565q0 158 60.5 298.5t171 244.5t267.5 164.5t351 60.5q113 0 210 -19.5t153 -53.5l-37 -170q-49 31 -139.5 51t-194.5 20q-145 0 -264 -48t-203 -129t-130 -189.5t-46 -227.5q0 -100 39 -178t102.5 -132t144.5 -82t167 -28q88 0 163.5 19.5t122.5 48.5l49 283h-301 l27 149h489l-92 -522q-98 -78 -222 -114t-282 -36q-106 0 -213.5 38t-194.5 112t-142.5 184.5t-55.5 255.5z" />
<glyph unicode="H" horiz-adv-x="1337" d="M41 0l229 1307h199l-98 -566h673l99 566h198l-229 -1307h-199l103 582h-674l-102 -582h-199z" />
<glyph unicode="I" horiz-adv-x="526" d="M72 0l229 1307h199l-230 -1307h-198z" />
<glyph unicode="J" horiz-adv-x="557" d="M-252 -145q162 27 266.5 135t137.5 289l180 1028h198l-184 -1049q-23 -123 -74 -216t-117.5 -157.5t-142 -101.5t-143.5 -49z" />
<glyph unicode="K" horiz-adv-x="1087" d="M41 0l231 1307h195l-111 -617l615 617h229l-657 -658l428 -649h-223l-404 612l-108 -612h-195z" />
<glyph unicode="L" horiz-adv-x="917" d="M41 0l229 1307h199l-201 -1147h576l-29 -160h-774z" />
<glyph unicode="M" horiz-adv-x="1699" d="M20 0l342 1307h117l232 -672q27 -78 55.5 -169t48.5 -167h4q43 76 102.5 165t116.5 171l461 672h129l-112 -1307h-181l51 590q4 66 12.5 145.5t18.5 151.5h-4q-43 -70 -100.5 -155t-100.5 -148l-407 -594h-74l-203 594q-23 66 -46 146.5t-46 152.5h-4q-16 -76 -36.5 -155 t-35.5 -138l-155 -590h-185z" />
<glyph unicode="N" horiz-adv-x="1437" d="M41 0l229 1307h138l454 -625q25 -33 52.5 -73t57 -82t57.5 -84l52 -78l4 2q10 76 22.5 157.5t25.5 153.5l110 629h199l-234 -1336h-59l-498 680q-55 76 -119.5 171.5t-117.5 174.5l-4 -2q-12 -92 -25.5 -176t-28.5 -157l-116 -662h-199z" />
<glyph unicode="O" horiz-adv-x="1548" d="M96 551q0 176 68.5 320.5t181.5 247t256 158.5t293 56q119 0 227.5 -39t191.5 -112.5t133 -181t50 -244.5q0 -176 -68.5 -319.5t-181 -246t-256 -159t-293.5 -56.5q-119 0 -227.5 39t-191 113t-133 180.5t-50.5 243.5zM297 551q0 -96 35 -171t91 -127t131 -79t155 -27 q104 0 209.5 44.5t189.5 124t136 191.5t52 249q0 98 -34.5 173t-91 127t-130 78.5t-153.5 26.5q-106 0 -212 -44t-190 -124t-136 -192.5t-52 -249.5z" />
<glyph unicode="P" horiz-adv-x="956" d="M41 0l229 1307h387q68 0 130.5 -22.5t108.5 -65.5t73.5 -103.5t27.5 -136.5q0 -94 -37.5 -169t-101 -127t-147.5 -81t-176 -29h-197l-100 -573h-197zM367 731h161q57 0 107.5 20.5t87.5 54.5t57.5 79t20.5 94q0 41 -16.5 72.5t-44 53t-63.5 33t-75 11.5h-162z" />
<glyph unicode="Q" horiz-adv-x="1548" d="M96 551q0 176 68.5 320.5t181.5 247t256 158.5t293 56q119 0 227.5 -39t191.5 -112.5t133 -181t50 -244.5q0 -145 -48 -269.5t-129 -220.5t-186.5 -162.5t-220.5 -97.5l-2 -4q29 -6 61 -20.5t89 -42.5q68 -35 125 -47.5t106 -12.5q35 0 68 7.5t67 23.5l-118 -164 q-29 -12 -78 -12q-86 0 -168 21.5t-160 68.5t-152.5 88t-125.5 68q-106 12 -202.5 55t-168.5 115.5t-115 173t-43 227.5zM297 551q0 -96 35 -171t91 -127t131 -79t155 -27q104 0 209.5 44.5t189.5 124t136 191.5t52 249q0 98 -34.5 173t-91 127t-130 78.5t-153.5 26.5 q-106 0 -212 -44t-190 -124t-136 -192.5t-52 -249.5z" />
<glyph unicode="R" horiz-adv-x="1136" d="M41 0l229 1307h410q68 0 130 -22.5t108.5 -65.5t74 -103.5t27.5 -136.5q0 -72 -22.5 -132.5t-61.5 -108.5t-92 -82.5t-117 -55.5l338 -600h-215l-309 573h-203l-100 -573h-197zM367 731h184q57 0 107.5 20.5t87 54.5t57 79t20.5 94q0 41 -16 72.5t-44 53t-63.5 33 t-74.5 11.5h-185z" />
<glyph unicode="S" horiz-adv-x="976" d="M45 47v178q66 -35 144.5 -57.5t172.5 -22.5q61 0 115.5 17.5t95.5 48.5t65 73t24 91q0 72 -42 122t-151 103q-135 66 -195.5 156t-60.5 211q0 84 37 151.5t98.5 115.5t140 73.5t162.5 25.5q86 0 152.5 -11t120.5 -34l-39 -158q-55 20 -110.5 28.5t-127.5 8.5 q-109 0 -175 -54t-66 -132t36.5 -125t126.5 -90q135 -66 211 -153t76 -222q0 -80 -29.5 -154.5t-93 -133t-160 -93.5t-229.5 -35q-180 0 -299 72z" />
<glyph unicode="T" horiz-adv-x="1058" d="M121 1147l26 160h1039l-27 -160h-420l-202 -1147h-199l203 1147h-420z" />
<glyph unicode="U" horiz-adv-x="1331" d="M115 377q0 23 2 46t6 46l147 838h199l-147 -834q-8 -41 -9 -80q0 -111 70 -176t213 -65q172 0 273.5 91t127.5 238l146 826h192l-149 -846q-23 -121 -76 -212t-132 -151.5t-179.5 -91.5t-214.5 -31q-98 0 -184.5 27t-149 79t-99 126t-36.5 170z" />
<glyph unicode="V" horiz-adv-x="1142" d="M158 1307h196l133 -623q14 -68 28.5 -147.5t25.5 -163.5h4q41 82 82 160.5t82 150.5l350 623h201l-752 -1325h-64z" />
<glyph unicode="W" horiz-adv-x="1841" d="M168 1307h190l107 -602q10 -66 23.5 -144t19.5 -158h4q35 80 74 158t73 144l314 602h166l106 -602q10 -63 20.5 -142.5t18.5 -159.5h4q35 78 76 159t74 143l315 602h195l-699 -1325h-67l-119 698q-14 76 -26.5 161t-24.5 191h-4q-49 -106 -92.5 -192t-81.5 -160 l-369 -698h-68z" />
<glyph unicode="X" horiz-adv-x="1175" d="M-41 0l543 670l-283 637h213l146 -328q16 -35 34.5 -79t30.5 -83h4q29 39 61.5 82t61.5 80l262 328h223l-516 -643l293 -664h-213l-151 342q-18 41 -37 86t-35 86h-4q-29 -41 -64.5 -88t-66.5 -84l-279 -342h-223z" />
<glyph unicode="Y" horiz-adv-x="1236" d="M158 1307h207l194 -369q23 -41 48.5 -91t45.5 -93h4q35 43 79 94t79 90l326 369h213l-625 -705l-106 -602h-195l107 602z" />
<glyph unicode="Z" horiz-adv-x="1040" d="M-31 0l8 47l543 737q31 43 68 91.5t73.5 96.5t71.5 94t66 83l-2 2h-592l26 156h861l-9 -47l-542 -738q-66 -90 -144 -188t-137 -176l2 -2h660l-27 -156h-926z" />
<glyph unicode="[" horiz-adv-x="610" d="M-55 -446l329 1880h435l-25 -146h-252l-280 -1589h251l-24 -145h-434z" />
<glyph unicode="\" horiz-adv-x="1247" d="M172 1284l135 98l838 -1319l-141 -100z" />
<glyph unicode="]" horiz-adv-x="610" d="M-96 -446l24 145h252l281 1589h-252l24 146h435l-330 -1880h-434z" />
<glyph unicode="^" horiz-adv-x="759" d="M170 1135q102 41 194.5 113.5t167.5 158.5q45 -86 111 -158.5t156 -113.5l-131 -111q-51 27 -93.5 57.5t-80.5 79.5q-59 -49 -111.5 -79.5t-112.5 -57.5z" />
<glyph unicode="_" horiz-adv-x="1024" d="M-178 -473l26 149h1031l-27 -149h-1030z" />
<glyph unicode="`" d="M352 1200l68 168q70 -78 171 -132t193 -83l-114 -100q-92 27 -166 57.5t-152 89.5z" />
<glyph unicode="a" horiz-adv-x="1009" d="M45 283q0 156 58.5 276.5t151.5 204.5t210 128t235 44q86 0 154 -5t113 -13l-162 -918h-154l21 174l-4 2q-59 -113 -146.5 -156t-183.5 -43q-55 0 -108.5 19.5t-94.5 58.5t-65.5 96.5t-24.5 131.5zM231 295q0 -86 40 -125t106 -39q45 0 96 26.5t98 77t84 123t54 162.5 l47 258q-10 2 -29.5 3t-42.5 1q-86 0 -168 -36.5t-144.5 -102t-101.5 -155t-39 -193.5z" />
<glyph unicode="b" horiz-adv-x="1058" d="M41 61l248 1397h186l-117 -663l4 -2q47 76 125 115.5t195 39.5q55 0 109.5 -23.5t95.5 -68.5t66.5 -110.5t25.5 -149.5q0 -139 -53.5 -254t-140.5 -197t-197.5 -126t-225.5 -44q-106 0 -189 26t-132 60zM244 158q20 -12 54 -20.5t81 -8.5q80 0 154.5 37t132 101.5 t92.5 150.5t35 184q0 94 -46.5 143.5t-123.5 49.5q-47 0 -99.5 -27t-98.5 -77t-83 -122.5t-53 -162.5z" />
<glyph unicode="c" horiz-adv-x="864" d="M55 336q0 135 57.5 248.5t151.5 194.5t212 126t241 45q41 0 79 -3t68 -13l-33 -154q-31 8 -58.5 9.5t-70.5 1.5q-90 0 -171.5 -38t-145 -99.5t-101.5 -139.5t-38 -160q0 -92 57 -152.5t154 -60.5q76 0 153.5 28t134.5 85l-45 -197q-49 -41 -118.5 -60.5t-155.5 -19.5 q-63 0 -129 21.5t-120 66t-88 112t-34 159.5z" />
<glyph unicode="d" horiz-adv-x="1058" d="M47 322q0 139 56.5 252.5t145.5 193.5t201.5 124t227.5 44q47 0 77.5 -1t55.5 -5l94 528h187l-258 -1458h-154l20 174l-4 2q-59 -113 -150 -156t-202 -43q-55 0 -109.5 23t-95.5 66t-66.5 107.5t-25.5 148.5zM233 324q0 -94 46.5 -143.5t123.5 -49.5q47 0 98.5 26.5 t98.5 77t84 123t53 162.5l47 254q-23 4 -53.5 6t-68.5 2q-80 0 -157 -34.5t-137.5 -96t-97.5 -145.5t-37 -182z" />
<glyph unicode="e" horiz-adv-x="950" d="M63 373q0 127 52.5 232.5t135.5 182t185.5 119.5t202.5 43q129 0 197.5 -63.5t68.5 -163.5q0 -96 -50 -171t-138 -127t-206 -79t-253 -27q10 -78 65.5 -128t159.5 -50q76 0 145.5 27t127.5 74l-47 -201q-47 -31 -110.5 -47.5t-129.5 -16.5q-88 0 -163 26t-128 76 t-84 123.5t-31 170.5zM266 465q96 0 179 20.5t143.5 54t95.5 73.5t35 81q0 39 -19.5 65.5t-76.5 26.5q-47 0 -103.5 -21.5t-109 -62t-91 -100t-53.5 -137.5z" />
<glyph unicode="f" horiz-adv-x="655" d="M68 788l24 140h158l10 61q39 229 164 353t328 124q74 0 133 -12l-35 -154q-23 6 -43.5 8.5t-65.5 2.5q-63 0 -112 -23.5t-85 -61.5t-57.5 -85t-29.5 -94l-21 -119h252l-31 -140h-245l-140 -788h-186l139 788h-157z" />
<glyph unicode="g" horiz-adv-x="942" d="M-74 -170q0 123 73 206t187 116l-90 90q16 47 54 88t79 61q-47 35 -72.5 89.5t-25.5 113.5q0 82 31 147.5t85 111.5t128 71.5t157 25.5q37 0 66 -4t51 -10q45 -12 117 -12q39 0 71.5 9t53.5 23l35 -141q-23 -14 -55.5 -21.5t-59.5 -7.5q8 -12 16.5 -40.5t8.5 -59.5 q0 -74 -29 -140.5t-82 -115.5t-127 -77.5t-166 -28.5q-59 0 -96 -11.5t-37 -46.5q0 -6 5 -14t15 -12l240 -88q92 -35 151.5 -99.5t59.5 -161.5q0 -80 -36 -146.5t-100.5 -114.5t-152.5 -75.5t-194 -27.5q-82 0 -148.5 24.5t-114 65.5t-73 96.5t-25.5 116.5zM94 -156 q0 -31 14.5 -60.5t41 -54t65.5 -39t86 -14.5q68 0 121 18.5t88 46.5t53.5 61.5t18.5 66.5q0 47 -28 82t-83 51l-143 41q-47 0 -89 -15.5t-75 -43t-51.5 -63.5t-18.5 -77zM303 608q0 -55 42 -93t110 -38q39 0 75.5 15.5t65.5 40t47.5 57t18.5 69.5q0 55 -41 96.5t-111 41.5 q-43 0 -81 -15.5t-65.5 -42t-44 -60.5t-16.5 -71z" />
<glyph unicode="h" horiz-adv-x="1036" d="M31 0l258 1458h186l-123 -672l4 -2q25 33 54.5 63t68.5 52.5t90.5 36.5t118.5 14q49 0 96 -18.5t84 -51t59.5 -79t22.5 -103.5q0 -10 -1 -22t-3 -25l-115 -651h-186l115 655q2 10 2 31q0 45 -26.5 78t-82.5 33q-53 0 -109.5 -22.5t-108.5 -78t-94 -145.5t-67 -225 l-57 -326h-186z" />
<glyph unicode="i" horiz-adv-x="495" d="M61 0l164 928h189l-164 -928h-189zM254 1210q0 16 16.5 38t38 40.5t45 31.5t37.5 13t31.5 -11t33 -27.5t24.5 -35t9 -32.5q0 -16 -16 -37t-37.5 -39t-45 -31.5t-38.5 -13.5q-16 0 -32.5 11t-32 27.5t-24.5 34t-9 31.5z" />
<glyph unicode="j" horiz-adv-x="495" d="M-205 -360q100 39 170 123.5t94 224.5l166 940h187l-170 -955q-14 -80 -47 -152.5t-78 -131t-98.5 -100.5t-110.5 -62zM252 1210q0 16 16.5 38t38 40.5t45 31.5t37.5 13t31.5 -11t33 -27.5t24.5 -35t9 -32.5q0 -16 -16 -37t-37.5 -39t-45 -31.5t-38.5 -13.5 q-16 0 -32.5 11t-32 27.5t-24.5 34t-9 31.5z" />
<glyph unicode="k" horiz-adv-x="931" d="M31 0l258 1458h186l-170 -964l432 434h226l-463 -463l338 -465h-228l-315 442l-78 -442h-186z" />
<glyph unicode="l" horiz-adv-x="538" d="M100 184q0 33 6 70l213 1204h187l-217 -1227q-2 -10 -3 -17t-1 -15q0 -51 27.5 -79t64.5 -38l-119 -119q-29 6 -56.5 21.5t-50 43t-37 66.5t-14.5 90z" />
<glyph unicode="m" horiz-adv-x="1583" d="M20 0l164 928h154l-21 -174l5 -2q31 45 62.5 80.5t69.5 62.5t86 41t113 14q37 0 77 -12t72 -35.5t52 -56.5t20 -76v-18l5 -2q27 39 61.5 74.5t79.5 63t99.5 45t119.5 17.5q49 0 95 -18.5t82 -51t58.5 -79t22.5 -101.5q0 -12 -1 -24t-3 -25l-115 -651h-186l115 655 q2 8 2 16.5t2 16.5q0 43 -23.5 76t-77.5 33q-53 0 -107 -22.5t-102.5 -78t-87.5 -145.5t-63 -225l-57 -326h-187l115 655q2 8 2 16.5t2 16.5q0 43 -23.5 76t-76.5 33t-107.5 -22.5t-102.5 -78t-87 -145.5t-64 -225l-57 -326h-187z" />
<glyph unicode="n" horiz-adv-x="1026" d="M20 0l164 928h154l-21 -174l5 -2q61 90 141 144t215 54q49 0 96 -18.5t84 -51t59.5 -79t22.5 -103.5q0 -10 -1 -22t-3 -25l-115 -651h-186l115 655q2 10 2 29q0 45 -27 79t-82 34q-53 0 -109.5 -22.5t-108.5 -78t-94 -145.5t-67 -225l-57 -326h-187z" />
<glyph unicode="o" horiz-adv-x="1079" d="M53 356q0 123 46 231.5t125 189.5t182.5 127t218.5 46q82 0 151.5 -25.5t120.5 -74.5t79 -120t28 -161q0 -123 -46.5 -231.5t-125 -188t-182 -126t-218.5 -46.5q-84 0 -152.5 26t-119.5 74t-79 118.5t-28 160.5zM244 375q0 -119 55 -176.5t154 -57.5q68 0 133 33 t115.5 89t82 131t31.5 159q0 117 -56.5 175t-152.5 58q-68 0 -133 -32.5t-116.5 -90t-82 -132t-30.5 -156.5z" />
<glyph unicode="p" horiz-adv-x="1058" d="M-53 -473l248 1401h153l-20 -174l4 -2q59 113 150 155.5t202 42.5q55 0 109.5 -23.5t95.5 -68.5t66.5 -110.5t25.5 -149.5q0 -139 -54.5 -254t-141.5 -196.5t-198.5 -126t-226.5 -44.5q-53 0 -85.5 6.5t-55.5 16.5l-86 -473h-186zM246 156q20 -12 50 -18.5t81 -6.5 q74 0 148.5 37t135 101.5t97.5 150.5t37 184q0 94 -46.5 143.5t-123.5 49.5q-47 0 -98.5 -27t-98.5 -77t-84 -122.5t-53 -162.5z" />
<glyph unicode="q" horiz-adv-x="1046" d="M47 330q0 139 58.5 253.5t151.5 195.5t208 126t229 45q86 0 159 -8t130 -24l-248 -1391h-186l106 604l-4 2q-47 -76 -124.5 -116t-194.5 -40q-55 0 -107.5 24t-91.5 69t-62.5 110.5t-23.5 149.5zM236 334q0 -193 157 -193q47 0 99.5 27t98.5 77t83 122.5t53 162.5l47 271 q-20 4 -47 5t-49 1q-80 0 -160 -37t-142.5 -101.5t-101 -150.5t-38.5 -184z" />
<glyph unicode="r" horiz-adv-x="718" d="M41 0l164 928h153l-32 -254l4 -2q43 131 140 199.5t226 68.5l37 -156h-41q-59 0 -123.5 -33.5t-123 -99t-105.5 -162t-68 -221.5l-47 -268h-184z" />
<glyph unicode="s" horiz-adv-x="735" d="M-12 20v177q49 -31 105.5 -46.5t131.5 -15.5q86 0 142.5 41t56.5 113q0 31 -17.5 56.5t-62.5 41.5q-123 47 -175 104.5t-52 143.5q0 78 30.5 137t81 99t116 59.5t134.5 19.5q66 0 123 -12t86 -29l-33 -143q-63 35 -186 35q-72 0 -123 -40t-51 -99q0 -68 80 -97 q133 -49 185 -109.5t52 -154.5q0 -66 -28.5 -124t-80.5 -103t-127 -71t-169 -26q-70 0 -121 10.5t-98 32.5z" />
<glyph unicode="t" horiz-adv-x="718" d="M66 788l24 140h182l33 188l201 96l-49 -284h301l-31 -140h-295l-90 -526q-3 -14 -2 -26q0 -35 20 -58q28 -31 72 -31q27 0 45.5 6.5t40.5 24.5l-37 -162q-39 -24 -107 -24h-5q-49 0 -93.5 19.5t-74 56t-43.5 88.5q-7 27 -6 57q0 29 6 61l90 514h-182z" />
<glyph unicode="u" horiz-adv-x="1026" d="M66 229q0 10 1 22.5t3 24.5l114 652h187l-115 -656q-2 -10 -2 -28q0 -45 26.5 -79t81.5 -34q53 0 109.5 22.5t109 78t94.5 145.5t66 225l58 326h186l-164 -928h-153l20 174l-4 2q-61 -90 -141 -144.5t-215 -54.5q-49 0 -96.5 18.5t-84 51.5t-59 79t-22.5 103z" />
<glyph unicode="v" horiz-adv-x="954" d="M123 928h180l96 -410q10 -45 20.5 -97t18.5 -106h4q55 109 113 203l238 410h182l-555 -944h-76z" />
<glyph unicode="w" horiz-adv-x="1452" d="M133 928h172l76 -393q10 -47 17.5 -97.5t11.5 -97.5h4q25 47 50 98t50 97l215 393h135l78 -393q10 -49 16.5 -95.5t12.5 -99.5h4q25 53 51.5 102.5t48.5 92.5l215 393h172l-516 -944h-65l-90 446q-10 53 -19.5 110.5t-17.5 118.5h-4q-29 -63 -58.5 -120.5t-58.5 -104.5 l-246 -450h-70z" />
<glyph unicode="x" horiz-adv-x="911" d="M-31 0l369 469l-193 459h197l86 -209q10 -25 19.5 -50.5t19.5 -52.5h4q18 27 36.5 52.5t41.5 54.5l156 205h206l-360 -463l197 -465h-199l-88 213q-10 23 -18.5 51.5t-18.5 57.5h-4q-20 -29 -43 -60t-39 -53l-162 -209h-207z" />
<glyph unicode="y" horiz-adv-x="1013" d="M-94 -371q111 47 214 154.5t206 275.5l-203 869h190l101 -432q12 -51 22 -100.5t21 -106.5h4q29 51 59.5 104t63.5 107l250 428h200l-489 -838q-74 -127 -143.5 -223t-135 -165t-127 -114t-121.5 -71z" />
<glyph unicode="z" horiz-adv-x="860" d="M-35 0l6 37l377 498q20 27 45 59.5t50.5 65t50 64.5t45.5 56l-4 2h-404l27 146h676l-7 -37l-378 -500q-51 -66 -95.5 -122t-95.5 -122l4 -2h469l-24 -145h-742z" />
<glyph unicode="{" horiz-adv-x="712" d="M35 492q117 66 177 178t87 258q18 104 54 196.5t93.5 161t139.5 107.5t192 39l8 -144q-127 0 -202.5 -100.5t-108.5 -280.5q-25 -137 -79 -240.5t-154 -187.5q96 -109 96 -274q0 -76 -14 -154q-6 -39 -10.5 -72.5t-4.5 -64.5q0 -225 195 -225l-58 -138q-78 0 -136 28 t-98 75t-60.5 112.5t-20.5 143.5q0 70 14 147q14 78 15 154q0 92 -29 162.5t-96 118.5z" />
<glyph unicode="|" horiz-adv-x="487" d="M-12 -473l342 1931h159l-342 -1931h-159z" />
<glyph unicode="}" horiz-adv-x="712" d="M-86 -305q127 0 203 100.5t108 280.5q25 137 79 240.5t155 187.5q-96 109 -97 274q0 76 15 154q6 39 10 72.5t4 64.5q0 225 -194 225l57 138q78 0 136.5 -28t98 -75t60 -113.5t20.5 -142.5q0 -70 -14 -147q-14 -78 -14 -154q0 -92 28.5 -162.5t96.5 -117.5 q-117 -66 -177.5 -178.5t-87.5 -258.5q-18 -104 -54 -196t-93 -161t-139 -108t-193 -39z" />
<glyph unicode="~" d="M113 461l61 147q80 41 146.5 66.5t150.5 32.5l8 -129q59 10 123 32.5t123 55.5l-61 -144q-80 -47 -146.5 -70.5t-150.5 -29.5l-9 125q-115 -16 -245 -86z" />
<glyph unicode="&#xa1;" horiz-adv-x="546" d="M57 -86l219 1063l148 -35l-148 -1028h-219zM264 1202q0 16 16.5 39t40 43.5t48 34.5t41.5 14q14 0 32.5 -12t34 -30.5t26.5 -39t11 -34.5q0 -16 -17.5 -38t-41 -43.5t-48 -36t-40.5 -14.5q-14 0 -33 12.5t-34 30t-25.5 38t-10.5 36.5z" />
<glyph unicode="&#xa2;" horiz-adv-x="864" d="M119 700q0 123 47 226.5t125 182.5t180 130t211 68l35 202h117l-35 -194q66 -2 129 -17l-33 -153q-31 6 -58.5 8t-70.5 2q-90 0 -172 -38t-145.5 -99.5t-101.5 -139t-38 -159.5q0 -92 57.5 -152.5t153.5 -60.5q82 0 153.5 26.5t135.5 85.5l-45 -196q-57 -47 -133 -66 l-35 -188h-117l31 174h-21q-63 0 -128.5 21.5t-120 65.5t-88 111.5t-33.5 159.5z" />
<glyph unicode="&#xa3;" horiz-adv-x="856" d="M-12 51q68 78 119 187.5t79 269.5l15 88h-158l20 117h158l29 159q41 229 154.5 341t316.5 112q86 0 158 -33l-35 -157q-33 16 -76 25t-84 9q-47 0 -88 -20.5t-71.5 -53t-51 -76.5t-29.5 -89l-38 -217h288l-26 -117h-283l-18 -104q-20 -121 -52 -209t-63 -131q33 4 81 8 t103 4q70 0 148 -10.5t147 -32.5l-35 -152q-121 49 -290 49q-86 0 -162 -12t-129 -29z" />
<glyph unicode="&#xa4;" horiz-adv-x="991" d="M25 225l155 131q-33 66 -33 140q0 72 29 140.5t78 123.5l-111 135l93 80l112 -135q47 31 101.5 48t111.5 17q113 0 189 -63l159 135l72 -88l-160 -135q31 -61 31 -136q0 -72 -28.5 -140t-78.5 -124l54 -65q23 -29 55 -66l-94 -78l-109 131q-47 -31 -101 -48t-112 -17 q-53 0 -100 15.5t-84 43.5l-156 -131zM256 508q0 -86 51 -137.5t139 -51.5q55 0 108.5 25t94.5 65t66.5 93t25.5 108q0 84 -52 135.5t-140 51.5q-55 0 -107.5 -24.5t-94.5 -64.5t-66.5 -92.5t-24.5 -107.5z" />
<glyph unicode="&#xa5;" horiz-adv-x="1236" d="M158 1307h207l194 -369q23 -41 48.5 -91t45.5 -93h4q35 43 79 94t79 90l326 369h213l-449 -506h135l-20 -117h-219l-72 -80l-6 -37h276l-20 -116h-277l-79 -451h-195l80 451h-279l21 116h278l7 33l-41 84h-224l21 117h137z" />
<glyph unicode="&#xa6;" horiz-adv-x="487" d="M-12 -473l149 844h160l-150 -844h-159zM180 614l150 844h159l-149 -844h-160z" />
<glyph unicode="&#xa7;" horiz-adv-x="952" d="M23 -389l36 166q41 -27 110 -43.5t142 -16.5q53 0 97.5 16.5t75 43t48 62.5t17.5 73q0 20 -5 42.5t-20 41.5l-405 518l117 287q-16 23 -27.5 63.5t-11.5 87.5q0 76 31.5 143.5t90 120t139.5 83t181 30.5q92 0 160.5 -16.5t118.5 -46.5l-37 -166q-41 27 -110 43t-142 16 q-53 0 -97.5 -16.5t-75 -43t-48 -62.5t-17.5 -72q0 -20 5 -44t20 -40l401 -519l-112 -286q16 -23 27 -64t11 -88q0 -76 -31.5 -143.5t-90 -119.5t-139.5 -83t-181 -31q-92 0 -160.5 16.5t-117.5 47.5zM258 604l367 -465l55 137l-369 463z" />
<glyph unicode="&#xa8;" d="M293 1155q0 14 15.5 33.5t36 37t43 30t36.5 12.5t30.5 -10.5t30 -25.5t22.5 -32t9 -31q0 -16 -15.5 -35.5t-36 -37t-43 -29.5t-36.5 -12t-30.5 10t-30 25.5t-22.5 33t-9 31.5zM608 1155q0 14 15.5 33.5t37 37t43 30t35.5 12.5t30.5 -10.5t30 -25.5t22.5 -32t9 -31 q0 -16 -15 -35.5t-35.5 -37t-42 -29.5t-36.5 -12q-16 0 -32.5 10t-29.5 25.5t-22.5 33t-9.5 31.5z" />
<glyph unicode="&#xa9;" horiz-adv-x="1228" d="M55 416q0 135 53.5 251.5t142.5 201.5t205.5 133.5t243.5 48.5q102 0 189.5 -32t151 -90.5t99.5 -139.5t36 -179q0 -137 -54.5 -253.5t-144.5 -201.5t-207 -133.5t-244 -48.5q-102 0 -189 32t-149.5 90.5t-97.5 139t-35 181.5zM170 424q0 -158 97.5 -252t262.5 -94 q106 0 202.5 41t169.5 111.5t116 165.5t43 204q0 80 -26.5 143.5t-75 108.5t-117 69.5t-150.5 24.5q-106 0 -201.5 -39t-166 -108.5t-112.5 -165.5t-42 -209zM354 436q0 80 33 145.5t87 113.5t123 75t140 27q72 0 111 -15l-27 -125q-37 10 -92 11q-43 0 -85 -19.5 t-73.5 -50.5t-52 -71t-20.5 -81q0 -43 27.5 -69.5t68.5 -26.5q61 0 105 21.5t75 52.5l-37 -162q-55 -45 -159 -45q-37 0 -77 13.5t-73 40t-53.5 67.5t-20.5 98z" />
<glyph unicode="&#xaa;" horiz-adv-x="811" d="M104 801q0 123 46.5 220t122 164.5t170 102.5t190.5 35q68 0 123 -6t92 -12l-131 -730h-127l14 140h2q-49 -92 -117.5 -126t-146.5 -34q-45 0 -88 16.5t-76 47t-53.5 76.5t-20.5 106zM260 807q0 -68 31 -95.5t82 -27.5q35 0 75.5 20.5t77.5 59.5t67 95t42 130l37 201 q-10 2 -23.5 3t-30.5 1q-68 0 -132 -28.5t-114 -80t-81 -123t-31 -155.5zM293 303q0 14 15.5 33.5t36 37t43 30t36.5 12.5t30.5 -10.5t30 -25.5t22.5 -32t9 -31q0 -16 -15.5 -35.5t-36 -37t-43 -29.5t-36.5 -12t-30.5 10t-30 25.5t-22.5 33t-9 31.5z" />
<glyph unicode="&#xab;" horiz-adv-x="901" d="M6 567q223 145 385 351l88 -115q-47 -66 -102 -125.5t-125 -118.5q47 -59 83 -117.5t58 -126.5l-125 -98q-45 102 -108.5 190.5t-153.5 159.5zM434 567q227 147 387 351l88 -115q-47 -66 -101 -125.5t-126 -118.5q49 -59 84 -117.5t57 -126.5l-125 -98 q-45 102 -109.5 190.5t-154.5 159.5z" />
<glyph unicode="&#xac;" horiz-adv-x="1024" d="M78 498l26 149h820l-66 -371h-164l39 222h-655z" />
<glyph unicode="&#xad;" horiz-adv-x="821" d="M111 492l24 135h588l-25 -135h-587z" />
<glyph unicode="&#xae;" horiz-adv-x="983" d="M137 844q0 104 41 193t108.5 156t156.5 103.5t186 36.5q78 0 143.5 -24.5t113.5 -69.5t74.5 -107.5t26.5 -138.5q0 -104 -41 -194t-108.5 -157t-156.5 -103.5t-185 -36.5q-78 0 -143.5 24.5t-114 68.5t-75 107.5t-26.5 141.5zM223 850q0 -121 77 -192.5t204 -71.5 q80 0 152.5 30.5t128 85t88 126t32.5 153.5q0 123 -80 193.5t-207 70.5q-80 0 -151.5 -29.5t-125.5 -83t-86 -125t-32 -157.5zM367 662l92 512h145q59 0 107.5 -36.5t48.5 -99.5q0 -61 -37 -102t-76 -53l88 -168l-88 -53l-98 206h-45l-37 -206h-100zM516 948h51 q29 0 60.5 19.5t31.5 66.5q0 29 -21.5 41t-43.5 12h-53z" />
<glyph unicode="&#xaf;" d="M360 1075l27 158h377l-27 -158h-377z" />
<glyph unicode="&#xb0;" horiz-adv-x="509" d="M150 1102q0 47 20 90t54 75.5t78 52t91 19.5q39 0 73 -14t59.5 -38.5t40 -57.5t14.5 -70q0 -47 -20.5 -90t-54.5 -75.5t-78 -52t-91 -19.5q-39 0 -73 14t-59.5 38.5t-39.5 57.5t-14 70zM256 1108q0 -39 24.5 -61.5t65.5 -22.5q53 0 90 38t37 91q0 39 -24.5 61.5 t-65.5 22.5q-53 0 -90 -38t-37 -91z" />
<glyph unicode="&#xb1;" horiz-adv-x="1794" d="M68 788l24 140h158l2 12q41 248 180 371t340 123q86 0 154 -19l-35 -151q-23 6 -56.5 10t-72.5 4q-135 0 -214 -81t-102 -210l-10 -59h457l4 22q45 242 193.5 379t425.5 137q66 0 131 -7t110 -23l-213 -1205q-2 -10 -3 -17t-1 -15q0 -51 27.5 -79t64.5 -38l-119 -119 q-29 6 -56 21.5t-50 43t-37 66.5t-14 90q0 33 6 70l184 1051q-29 6 -63 6q-92 0 -162 -29t-118 -75t-75.5 -104.5t-37.5 -115.5l-11 -59h219l-24 -140h-219l-140 -788h-186l139 788h-456l-140 -788h-186l139 788h-157z" />
<glyph unicode="&#xb2;" horiz-adv-x="759" d="M66 510l6 33q260 190 379.5 330.5t119.5 220.5q0 61 -39.5 95t-115.5 34q-57 0 -104.5 -17.5t-88.5 -42.5l-26 111q41 25 104.5 42t128.5 17q137 0 206 -66.5t69 -166.5q0 -106 -89.5 -228t-255.5 -251h306l-21 -111h-579z" />
<glyph unicode="&#xb3;" horiz-adv-x="638" d="M98 535v127q39 -31 84 -42.5t82 -11.5t73 14.5t64.5 41t46 60.5t17.5 75q0 47 -34 78.5t-95 31.5q-12 0 -31 -6l-26 111q37 6 70.5 20.5t59 32.5t42 39.5t16.5 44.5q0 35 -24.5 53.5t-63.5 18.5q-37 0 -73 -11.5t-70 -31.5l-27 110q41 20 90 31.5t96 11.5q92 0 148.5 -50 t56.5 -126q0 -49 -39 -97t-92 -71q47 -14 88 -62t41 -120q0 -59 -23.5 -115.5t-68.5 -99.5t-108.5 -68.5t-145.5 -25.5q-41 0 -84 9t-70 28z" />
<glyph unicode="&#xb4;" d="M332 1153q51 14 108.5 34.5t115.5 47.5t114.5 60.5t105.5 72.5l8 -168q-98 -59 -182 -90t-184 -57z" />
<glyph unicode="&#xb5;" horiz-adv-x="1126" d="M-12 0l164 928h966l-164 -928h-966zM57 59h387q-47 23 -67.5 55.5t-32.5 69.5l-166 555zM248 786l432 -348q-115 -43 -171 -111.5t-56 -136.5q0 -47 22.5 -77.5t56.5 -53.5h373l129 727h-786z" />
<glyph unicode="&#xb6;" horiz-adv-x="901" d="M133 -369q96 14 172 84t98 191l117 665h-18q-72 0 -136.5 18.5t-112.5 56.5t-77 93.5t-29 128.5q0 109 42 193t112 140t157 86t177 30h348l-25 -141h-147l-227 -1287q-12 -72 -45 -135t-77 -112.5t-98.5 -83t-111.5 -45.5z" />
<glyph unicode="&#xb7;" horiz-adv-x="403" d="M82 547q0 16 16.5 38.5t40 43t48 35t40.5 14.5q14 0 33 -12.5t34 -31t26.5 -39t11.5 -34.5q0 -16 -17.5 -37.5t-41 -43t-48 -36t-41.5 -14.5q-14 0 -32.5 12.5t-34 29.5t-25.5 37.5t-10 37.5z" />
<glyph unicode="&#xb8;" d="M61 -418l39 101q33 -29 63 -37t68 -8q41 0 77 31.5t36 78.5q0 37 -27.5 61.5t-64.5 24.5q-29 0 -66 -6l62 172h78l-21 -63q31 0 61.5 -14.5t55 -39t39 -58.5t14.5 -73q0 -53 -23.5 -95t-60.5 -70.5t-82 -44t-86 -15.5q-47 0 -88 15.5t-74 39.5z" />
<glyph unicode="&#xb9;" horiz-adv-x="550" d="M193 1184l49 123l276 26l-145 -823h-131l120 690z" />
<glyph unicode="&#xba;" horiz-adv-x="935" d="M141 858q0 98 38 185t100.5 152t146.5 101.5t176 36.5q135 0 221 -80t86 -225q0 -98 -37.5 -184t-100 -150.5t-146.5 -101.5t-176 -37q-135 0 -221.5 80t-86.5 223zM301 870q0 -94 43 -136t121 -42q53 0 104.5 25.5t91 69.5t64.5 103.5t25 127.5q0 94 -44 136t-118 42 q-53 0 -105.5 -25.5t-92.5 -69.5t-64.5 -103.5t-24.5 -127.5zM332 303q0 14 15 33.5t35.5 37t43.5 30t37 12.5t30.5 -10.5t30 -25.5t22.5 -32t9 -31q0 -16 -15.5 -35.5t-36 -37t-43 -29.5t-36.5 -12t-30.5 10t-30 25.5t-22.5 33t-9 31.5z" />
<glyph unicode="&#xbb;" horiz-adv-x="901" d="M8 332q47 68 101.5 126t126.5 117q-49 59 -84 119t-58 125l125 99q86 -204 264 -351q-115 -72 -212 -160t-175 -190zM438 332q47 68 101.5 126t124.5 117q-47 59 -82 119t-58 125l125 99q86 -201 262 -351q-113 -72 -210 -160t-175 -190z" />
<glyph unicode="&#xbc;" horiz-adv-x="1521" d="M25 35l1316 1323l84 -84l-1316 -1323zM193 1184l49 123l276 26l-145 -823h-131l120 690zM764 352l469 461h117l-82 -463h108l-18 -110h-109l-43 -240h-131l43 240h-344zM909 350h228l34 193q4 27 9.5 49t13.5 47l-4 2q-20 -27 -41 -50.5t-47 -49.5z" />
<glyph unicode="&#xbd;" horiz-adv-x="1634" d="M25 35l1316 1323l84 -84l-1316 -1323zM193 1184l49 123l276 26l-145 -823h-131l120 690zM866 0l6 33q260 190 380 330.5t120 220.5q0 61 -40 95t-115 34q-57 0 -104.5 -17.5t-88.5 -42.5l-27 111q41 25 104.5 42t129.5 17q137 0 205.5 -66.5t68.5 -166.5q0 -106 -89 -228 t-255 -251h305l-20 -111h-580z" />
<glyph unicode="&#xbe;" horiz-adv-x="1576" d="M98 535v127q39 -31 84 -42.5t82 -11.5t73 14.5t64.5 41t46 60.5t17.5 75q0 47 -34 78.5t-95 31.5q-12 0 -31 -6l-26 111q37 6 70.5 20.5t59 32.5t42 39.5t16.5 44.5q0 35 -24.5 53.5t-63.5 18.5q-37 0 -73 -11.5t-70 -31.5l-27 110q41 20 90 31.5t96 11.5q92 0 148.5 -50 t56.5 -126q0 -49 -39 -97t-92 -71q47 -14 88 -62t41 -120q0 -59 -23.5 -115.5t-68.5 -99.5t-108.5 -68.5t-145.5 -25.5q-41 0 -84 9t-70 28zM111 35l1316 1323l84 -84l-1316 -1323zM846 352l469 461h117l-82 -463h108l-18 -110h-109l-43 -240h-131l43 240h-344zM991 350h228 l34 193q4 27 9.5 49t13.5 47l-4 2q-20 -27 -41 -50.5t-47 -49.5z" />
<glyph unicode="&#xbf;" horiz-adv-x="802" d="M31 201q0 63 17.5 115.5t51 101.5t81.5 98t110 105q68 61 101.5 121.5t43.5 119.5q8 41 12.5 68.5t4.5 50.5l147 -35q2 -27 1 -50.5t-7 -57.5q-16 -92 -65.5 -182.5t-120.5 -155.5q-82 -72 -132.5 -140.5t-50.5 -148.5q0 -57 42 -106.5t130 -49.5q80 0 138.5 30t97.5 65 l35 -160q-53 -45 -131 -72t-162 -27q-74 0 -137.5 23t-109.5 63.5t-71.5 97t-25.5 126.5zM434 1202q0 14 17.5 37t41 44.5t48 35.5t41.5 14q14 0 32.5 -12t34 -29.5t25.5 -38t10 -36.5t-16.5 -39t-40 -43.5t-48 -35t-40.5 -14.5q-14 0 -33 12.5t-34 31t-26.5 38t-11.5 35.5z " />
<glyph unicode="&#xc0;" horiz-adv-x="1267" d="M-51 0l790 1325h72l324 -1325h-193l-84 348h-500l-206 -348h-203zM449 496h372l-73 319q-8 33 -15.5 76t-11.5 84h-4q-18 -41 -41 -84t-43 -76zM493 1610l68 168q70 -78 171 -132t193 -83l-114 -100q-92 27 -166 57.5t-152 89.5z" />
<glyph unicode="&#xc1;" horiz-adv-x="1267" d="M-51 0l790 1325h72l324 -1325h-193l-84 348h-500l-206 -348h-203zM449 496h372l-73 319q-8 33 -15.5 76t-11.5 84h-4q-18 -41 -41 -84t-43 -76zM643 1563q51 14 108.5 34.5t115.5 47.5t114.5 60.5t105.5 72.5l8 -168q-98 -59 -182 -90t-184 -57z" />
<glyph unicode="&#xc2;" horiz-adv-x="1267" d="M-51 0l790 1325h72l324 -1325h-193l-84 348h-500l-206 -348h-203zM449 496h372l-73 319q-8 33 -15.5 76t-11.5 84h-4q-18 -41 -41 -84t-43 -76zM539 1559q88 35 166.5 96.5t144.5 134.5q37 -74 94.5 -135t132.5 -96l-110 -96q-47 23 -82 49t-68 69q-49 -43 -94 -69.5 t-98 -48.5z" />
<glyph unicode="&#xc3;" horiz-adv-x="1267" d="M-51 0l790 1325h72l324 -1325h-193l-84 348h-500l-206 -348h-203zM449 496h372l-73 319q-8 33 -15.5 76t-11.5 84h-4q-18 -41 -41 -84t-43 -76zM504 1502l64 147q78 41 144.5 66.5t150.5 31.5l8 -129q59 10 122.5 33t125.5 55l-64 -143q-78 -47 -145.5 -70.5 t-149.5 -29.5l-10 125q-115 -16 -246 -86z" />
<glyph unicode="&#xc4;" horiz-adv-x="1267" d="M-51 0l790 1325h72l324 -1325h-193l-84 348h-500l-206 -348h-203zM449 496h372l-73 319q-8 33 -15.5 76t-11.5 84h-4q-18 -41 -41 -84t-43 -76zM547 1565q0 14 15.5 33.5t36 37t43 30t36.5 12.5t30.5 -10.5t30 -25.5t22.5 -32t9 -31q0 -16 -15.5 -35.5t-36 -37t-43 -29.5 t-36.5 -12t-30.5 10t-30 25.5t-22.5 33t-9 31.5zM862 1565q0 14 15.5 33.5t37 37t43 30t35.5 12.5t30.5 -10.5t30 -25.5t22.5 -32t9 -31q0 -16 -15 -35.5t-35.5 -37t-42 -29.5t-36.5 -12q-16 0 -32.5 10t-29.5 25.5t-22.5 33t-9.5 31.5z" />
<glyph unicode="&#xc5;" horiz-adv-x="1267" d="M-51 0l790 1325h72l324 -1325h-193l-84 348h-500l-206 -348h-203zM449 496h372l-73 319q-8 33 -15.5 76t-11.5 84h-4q-18 -41 -41 -84t-43 -76zM588 1643q0 51 22.5 99t59.5 84t85 57.5t101 21.5q43 0 81 -16.5t65.5 -44t44 -63.5t16.5 -77q0 -53 -22.5 -100t-59.5 -83 t-86 -57.5t-100 -21.5q-43 0 -81 16.5t-65.5 44t-44 63.5t-16.5 77zM705 1649q0 -43 26.5 -68.5t73.5 -25.5q59 0 100 42t41 101q0 43 -26.5 68.5t-73.5 25.5q-59 0 -100 -42t-41 -101z" />
<glyph unicode="&#xc6;" horiz-adv-x="1667" d="M-72 0l987 1307h775l-27 -160h-506l-72 -406h424l-28 -159h-424l-74 -422h578l-29 -160h-774l61 348h-428l-264 -348h-199zM494 496h352l76 428q10 68 19 110.5t20 104.5l-5 2q-33 -55 -70.5 -112.5t-76.5 -108.5z" />
<glyph unicode="&#xc7;" horiz-adv-x="1228" d="M96 565q0 158 60.5 298.5t171 244.5t267.5 164.5t351 60.5q92 0 176 -14t135 -37l-36 -170q-49 25 -128 37t-155 12q-145 0 -264 -48t-203 -129t-130 -189.5t-46 -227.5q0 -100 39 -178t102.5 -132t144.5 -82t167 -28q88 0 177 24t160 62l-43 -194q-59 -29 -130.5 -45.5 t-186.5 -18.5l-12 -38q31 0 61.5 -14.5t55 -39t39 -58.5t14.5 -73q0 -53 -23.5 -95t-60.5 -70.5t-82 -44t-86 -15.5q-47 0 -88 15.5t-74 39.5l39 101q33 -29 62.5 -37t68.5 -8q41 0 77 31.5t36 78.5q0 37 -28 61.5t-65 24.5q-29 0 -65 -6l53 149q-100 8 -198.5 50.5 t-177 116t-127 179t-48.5 242.5z" />
<glyph unicode="&#xc8;" horiz-adv-x="952" d="M41 0l229 1307h705l-27 -160h-506l-71 -406h424l-29 -159h-424l-74 -422h578l-29 -160h-776zM362 1610l68 168q70 -78 171 -132t193 -83l-114 -100q-92 27 -166 57.5t-152 89.5z" />
<glyph unicode="&#xc9;" horiz-adv-x="952" d="M41 0l229 1307h705l-27 -160h-506l-71 -406h424l-29 -159h-424l-74 -422h578l-29 -160h-776zM520 1563q51 14 108.5 34.5t115.5 47.5t114.5 60.5t105.5 72.5l8 -168q-98 -59 -182 -90t-184 -57z" />
<glyph unicode="&#xca;" horiz-adv-x="952" d="M41 0l229 1307h705l-27 -160h-506l-71 -406h424l-29 -159h-424l-74 -422h578l-29 -160h-776zM406 1559q88 35 166.5 96.5t144.5 134.5q37 -74 94.5 -135t132.5 -96l-110 -96q-47 23 -82 49t-68 69q-49 -43 -94 -69.5t-98 -48.5z" />
<glyph unicode="&#xcb;" horiz-adv-x="952" d="M41 0l229 1307h705l-27 -160h-506l-71 -406h424l-29 -159h-424l-74 -422h578l-29 -160h-776zM404 1565q0 14 15.5 33.5t36 37t43 30t36.5 12.5t30.5 -10.5t30 -25.5t22.5 -32t9 -31q0 -16 -15.5 -35.5t-36 -37t-43 -29.5t-36.5 -12t-30.5 10t-30 25.5t-22.5 33t-9 31.5z M719 1565q0 14 15.5 33.5t37 37t43 30t35.5 12.5t30.5 -10.5t30 -25.5t22.5 -32t9 -31q0 -16 -15 -35.5t-35.5 -37t-42 -29.5t-36.5 -12q-16 0 -32.5 10t-29.5 25.5t-22.5 33t-9.5 31.5z" />
<glyph unicode="&#xcc;" horiz-adv-x="526" d="M72 0l229 1307h199l-230 -1307h-198zM174 1610l68 168q70 -78 171 -132t193 -83l-114 -100q-92 27 -166 57.5t-152 89.5z" />
<glyph unicode="&#xcd;" horiz-adv-x="526" d="M72 0l229 1307h199l-230 -1307h-198zM252 1563q51 14 108.5 34.5t115.5 47.5t114.5 60.5t105.5 72.5l8 -168q-98 -59 -182 -90t-184 -57z" />
<glyph unicode="&#xce;" horiz-adv-x="526" d="M72 0l229 1307h199l-230 -1307h-198zM168 1559q88 35 166.5 96.5t144.5 134.5q37 -74 94.5 -135t132.5 -96l-110 -96q-47 23 -82 49t-68 69q-49 -43 -94 -69.5t-98 -48.5z" />
<glyph unicode="&#xcf;" horiz-adv-x="526" d="M72 0l229 1307h199l-230 -1307h-198zM176 1565q0 14 15.5 33.5t36 37t43 30t36.5 12.5t30.5 -10.5t30 -25.5t22.5 -32t9 -31q0 -16 -15.5 -35.5t-36 -37t-43 -29.5t-36.5 -12t-30.5 10t-30 25.5t-22.5 33t-9 31.5zM491 1565q0 14 15.5 33.5t37 37t43 30t35.5 12.5 t30.5 -10.5t30 -25.5t22.5 -32t9 -31q0 -16 -15 -35.5t-35.5 -37t-42 -29.5t-36.5 -12q-16 0 -32.5 10t-29.5 25.5t-22.5 33t-9.5 31.5z" />
<glyph unicode="&#xd0;" horiz-adv-x="1323" d="M6 592l27 149h160l98 566h377q137 0 251.5 -38t198.5 -108.5t131 -172t47 -230.5q0 -158 -61 -296t-171 -240.5t-263.5 -162t-337.5 -59.5h-402l105 592h-160zM287 168h170q143 0 260 46t199.5 126t129 187.5t46.5 230.5q0 98 -36 169.5t-97.5 119t-146.5 70t-183 22.5 h-170l-70 -398h258l-57 -149h-228z" />
<glyph unicode="&#xd1;" horiz-adv-x="1437" d="M41 0l229 1307h138l454 -625q25 -33 52.5 -73t57 -82t57.5 -84l52 -78l4 2q10 76 22.5 157.5t25.5 153.5l110 629h199l-234 -1336h-59l-498 680q-55 76 -119.5 171.5t-117.5 174.5l-4 -2q-12 -92 -25.5 -176t-28.5 -157l-116 -662h-199zM588 1502l64 147 q78 41 144.5 66.5t150.5 31.5l8 -129q59 10 122.5 33t125.5 55l-64 -143q-78 -47 -145.5 -70.5t-149.5 -29.5l-10 125q-115 -16 -246 -86z" />
<glyph unicode="&#xd2;" horiz-adv-x="1548" d="M96 551q0 176 68.5 320.5t181.5 247t256 158.5t293 56q119 0 227.5 -39t191.5 -112.5t133 -181t50 -244.5q0 -176 -68.5 -319.5t-181 -246t-256 -159t-293.5 -56.5q-119 0 -227.5 39t-191 113t-133 180.5t-50.5 243.5zM297 551q0 -96 35 -171t91 -127t131 -79t155 -27 q104 0 209.5 44.5t189.5 124t136 191.5t52 249q0 98 -34.5 173t-91 127t-130 78.5t-153.5 26.5q-106 0 -212 -44t-190 -124t-136 -192.5t-52 -249.5zM637 1610l68 168q70 -78 171 -132t193 -83l-114 -100q-92 27 -166 57.5t-152 89.5z" />
<glyph unicode="&#xd3;" horiz-adv-x="1548" d="M96 551q0 176 68.5 320.5t181.5 247t256 158.5t293 56q119 0 227.5 -39t191.5 -112.5t133 -181t50 -244.5q0 -176 -68.5 -319.5t-181 -246t-256 -159t-293.5 -56.5q-119 0 -227.5 39t-191 113t-133 180.5t-50.5 243.5zM297 551q0 -96 35 -171t91 -127t131 -79t155 -27 q104 0 209.5 44.5t189.5 124t136 191.5t52 249q0 98 -34.5 173t-91 127t-130 78.5t-153.5 26.5q-106 0 -212 -44t-190 -124t-136 -192.5t-52 -249.5zM772 1563q51 14 108.5 34.5t115.5 47.5t114.5 60.5t105.5 72.5l8 -168q-98 -59 -182 -90t-184 -57z" />
<glyph unicode="&#xd4;" horiz-adv-x="1548" d="M96 551q0 176 68.5 320.5t181.5 247t256 158.5t293 56q119 0 227.5 -39t191.5 -112.5t133 -181t50 -244.5q0 -176 -68.5 -319.5t-181 -246t-256 -159t-293.5 -56.5q-119 0 -227.5 39t-191 113t-133 180.5t-50.5 243.5zM297 551q0 -96 35 -171t91 -127t131 -79t155 -27 q104 0 209.5 44.5t189.5 124t136 191.5t52 249q0 98 -34.5 173t-91 127t-130 78.5t-153.5 26.5q-106 0 -212 -44t-190 -124t-136 -192.5t-52 -249.5zM656 1559q88 35 166.5 96.5t144.5 134.5q37 -74 94.5 -135t132.5 -96l-110 -96q-47 23 -82 49t-68 69q-49 -43 -94 -69.5 t-98 -48.5z" />
<glyph unicode="&#xd5;" horiz-adv-x="1548" d="M96 551q0 176 68.5 320.5t181.5 247t256 158.5t293 56q119 0 227.5 -39t191.5 -112.5t133 -181t50 -244.5q0 -176 -68.5 -319.5t-181 -246t-256 -159t-293.5 -56.5q-119 0 -227.5 39t-191 113t-133 180.5t-50.5 243.5zM297 551q0 -96 35 -171t91 -127t131 -79t155 -27 q104 0 209.5 44.5t189.5 124t136 191.5t52 249q0 98 -34.5 173t-91 127t-130 78.5t-153.5 26.5q-106 0 -212 -44t-190 -124t-136 -192.5t-52 -249.5zM641 1502l64 147q78 41 144.5 66.5t150.5 31.5l8 -129q59 10 122.5 33t125.5 55l-64 -143q-78 -47 -145.5 -70.5 t-149.5 -29.5l-10 125q-115 -16 -246 -86z" />
<glyph unicode="&#xd6;" horiz-adv-x="1548" d="M96 551q0 176 68.5 320.5t181.5 247t256 158.5t293 56q119 0 227.5 -39t191.5 -112.5t133 -181t50 -244.5q0 -176 -68.5 -319.5t-181 -246t-256 -159t-293.5 -56.5q-119 0 -227.5 39t-191 113t-133 180.5t-50.5 243.5zM297 551q0 -96 35 -171t91 -127t131 -79t155 -27 q104 0 209.5 44.5t189.5 124t136 191.5t52 249q0 98 -34.5 173t-91 127t-130 78.5t-153.5 26.5q-106 0 -212 -44t-190 -124t-136 -192.5t-52 -249.5zM662 1565q0 14 15.5 33.5t36 37t43 30t36.5 12.5t30.5 -10.5t30 -25.5t22.5 -32t9 -31q0 -16 -15.5 -35.5t-36 -37 t-43 -29.5t-36.5 -12t-30.5 10t-30 25.5t-22.5 33t-9 31.5zM977 1565q0 14 15.5 33.5t37 37t43 30t35.5 12.5t30.5 -10.5t30 -25.5t22.5 -32t9 -31q0 -16 -15 -35.5t-35.5 -37t-42 -29.5t-36.5 -12q-16 0 -32.5 10t-29.5 25.5t-22.5 33t-9.5 31.5z" />
<glyph unicode="&#xd7;" horiz-adv-x="958" d="M115 313l286 244l-198 242l98 84l201 -242l286 246l76 -92l-286 -246l194 -240l-96 -82l-197 236l-286 -240z" />
<glyph unicode="&#xd8;" horiz-adv-x="1548" d="M80 18l153 154q-66 72 -101.5 167t-35.5 212q0 176 68.5 320.5t181.5 247t256 158.5t293 56q104 0 201.5 -29.5t175.5 -89.5l158 158l83 -86l-151 -153q63 -72 99 -166.5t36 -210.5q0 -176 -68.5 -319.5t-181 -246t-256 -159t-293.5 -56.5q-104 0 -200.5 30t-173.5 87 l-158 -158zM297 551q0 -72 19.5 -132.5t54.5 -109.5l768 772q-109 80 -252 80q-106 0 -212 -44t-190 -124t-136 -192.5t-52 -249.5zM457 225q109 -78 252 -78q104 0 209.5 44.5t189.5 124t136 191.5t52 249q0 72 -18 132t-53 107z" />
<glyph unicode="&#xd9;" horiz-adv-x="1331" d="M115 377q0 23 2 46t6 46l147 838h199l-147 -834q-8 -41 -9 -80q0 -111 70 -176t213 -65q172 0 273.5 91t127.5 238l146 826h192l-149 -846q-23 -121 -76 -212t-132 -151.5t-179.5 -91.5t-214.5 -31q-98 0 -184.5 27t-149 79t-99 126t-36.5 170zM534 1610l68 168 q70 -78 171 -132t193 -83l-114 -100q-92 27 -166 57.5t-152 89.5z" />
<glyph unicode="&#xda;" horiz-adv-x="1331" d="M115 377q0 23 2 46t6 46l147 838h199l-147 -834q-8 -41 -9 -80q0 -111 70 -176t213 -65q172 0 273.5 91t127.5 238l146 826h192l-149 -846q-23 -121 -76 -212t-132 -151.5t-179.5 -91.5t-214.5 -31q-98 0 -184.5 27t-149 79t-99 126t-36.5 170zM703 1563 q51 14 108.5 34.5t115.5 47.5t114.5 60.5t105.5 72.5l8 -168q-98 -59 -182 -90t-184 -57z" />
<glyph unicode="&#xdb;" horiz-adv-x="1331" d="M115 377q0 23 2 46t6 46l147 838h199l-147 -834q-8 -41 -9 -80q0 -111 70 -176t213 -65q172 0 273.5 91t127.5 238l146 826h192l-149 -846q-23 -121 -76 -212t-132 -151.5t-179.5 -91.5t-214.5 -31q-98 0 -184.5 27t-149 79t-99 126t-36.5 170zM563 1559 q88 35 166.5 96.5t144.5 134.5q37 -74 94.5 -135t132.5 -96l-110 -96q-47 23 -82 49t-68 69q-49 -43 -94 -69.5t-98 -48.5z" />
<glyph unicode="&#xdc;" horiz-adv-x="1331" d="M115 377q0 23 2 46t6 46l147 838h199l-147 -834q-8 -41 -9 -80q0 -111 70 -176t213 -65q172 0 273.5 91t127.5 238l146 826h192l-149 -846q-23 -121 -76 -212t-132 -151.5t-179.5 -91.5t-214.5 -31q-98 0 -184.5 27t-149 79t-99 126t-36.5 170zM586 1565q0 14 15.5 33.5 t36 37t43 30t36.5 12.5t30.5 -10.5t30 -25.5t22.5 -32t9 -31q0 -16 -15.5 -35.5t-36 -37t-43 -29.5t-36.5 -12t-30.5 10t-30 25.5t-22.5 33t-9 31.5zM901 1565q0 14 15.5 33.5t37 37t43 30t35.5 12.5t30.5 -10.5t30 -25.5t22.5 -32t9 -31q0 -16 -15 -35.5t-35.5 -37 t-42 -29.5t-36.5 -12q-16 0 -32.5 10t-29.5 25.5t-22.5 33t-9.5 31.5z" />
<glyph unicode="&#xdd;" horiz-adv-x="1236" d="M158 1307h207l194 -369q23 -41 48.5 -91t45.5 -93h4q35 43 79 94t79 90l326 369h213l-625 -705l-106 -602h-195l107 602zM617 1563q51 14 108.5 34.5t115.5 47.5t114.5 60.5t105.5 72.5l8 -168q-98 -59 -182 -90t-184 -57z" />
<glyph unicode="&#xde;" horiz-adv-x="956" d="M41 0l229 1307h197l-27 -152h191q68 0 130 -22.5t108 -65.5t74 -103.5t28 -136.5q0 -94 -38 -168.5t-101.5 -127t-147.5 -81t-176 -28.5h-197l-73 -422h-197zM342 590h162q57 0 106 18.5t86 51t57.5 75.5t20.5 92q0 41 -16.5 71t-44 50.5t-64.5 29.5t-76 9h-161z" />
<glyph unicode="&#xdf;" horiz-adv-x="1073" d="M41 0l174 995q20 123 67.5 211t110 146.5t139 86t156.5 27.5q70 0 130.5 -17t105.5 -53t71.5 -93.5t26.5 -137.5q0 -57 -12.5 -111.5t-29.5 -101.5t-37.5 -84t-37.5 -61q-53 0 -101 -6t-87 -21.5t-61.5 -44t-22.5 -73.5q0 -68 80 -97q133 -49 185 -109.5t52 -154.5 q0 -66 -28.5 -124t-81 -103t-127 -71t-168.5 -26q-68 0 -119 10.5t-92 26.5l28 160q29 -16 77 -27.5t124 -11.5q86 0 142.5 41t56.5 113q0 31 -17.5 56.5t-62.5 41.5q-123 47 -175 104.5t-52 143.5q0 78 30.5 135t76.5 96t102.5 58.5t109.5 21.5q25 39 45.5 102.5 t20.5 122.5t-39 99.5t-123 40.5q-49 0 -93 -22.5t-79 -60.5t-59.5 -88t-34.5 -106l-185 -1034h-186z" />
<glyph unicode="&#xe0;" horiz-adv-x="1009" d="M45 283q0 156 58.5 276.5t151.5 204.5t210 128t235 44q86 0 154 -5t113 -13l-162 -918h-154l21 174l-4 2q-59 -113 -146.5 -156t-183.5 -43q-55 0 -108.5 19.5t-94.5 58.5t-65.5 96.5t-24.5 131.5zM231 295q0 -86 40 -125t106 -39q45 0 96 26.5t98 77t84 123t54 162.5 l47 258q-10 2 -29.5 3t-42.5 1q-86 0 -168 -36.5t-144.5 -102t-101.5 -155t-39 -193.5zM469 1208l57 144q59 -68 146.5 -114t165.5 -71l-99 -84q-78 23 -141 48.5t-129 76.5z" />
<glyph unicode="&#xe1;" horiz-adv-x="1009" d="M45 283q0 156 58.5 276.5t151.5 204.5t210 128t235 44q86 0 154 -5t113 -13l-162 -918h-154l21 174l-4 2q-59 -113 -146.5 -156t-183.5 -43q-55 0 -108.5 19.5t-94.5 58.5t-65.5 96.5t-24.5 131.5zM231 295q0 -86 40 -125t106 -39q45 0 96 26.5t98 77t84 123t54 162.5 l47 258q-10 2 -29.5 3t-42.5 1q-86 0 -168 -36.5t-144.5 -102t-101.5 -155t-39 -193.5zM545 1167q86 25 189.5 71t187.5 114l8 -144q-84 -51 -154.5 -77.5t-159.5 -47.5z" />
<glyph unicode="&#xe2;" horiz-adv-x="1009" d="M45 283q0 156 58.5 276.5t151.5 204.5t210 128t235 44q86 0 154 -5t113 -13l-162 -918h-154l21 174l-4 2q-59 -113 -146.5 -156t-183.5 -43q-55 0 -108.5 19.5t-94.5 58.5t-65.5 96.5t-24.5 131.5zM231 295q0 -86 40 -125t106 -39q45 0 96 26.5t98 77t84 123t54 162.5 l47 258q-10 2 -29.5 3t-42.5 1q-86 0 -168 -36.5t-144.5 -102t-101.5 -155t-39 -193.5zM432 1165q74 29 141.5 81t122.5 116q33 -63 81 -115.5t114 -81.5l-94 -82q-41 20 -71 42t-56 59q-43 -37 -81 -58.5t-83 -42.5z" />
<glyph unicode="&#xe3;" horiz-adv-x="1009" d="M45 283q0 156 58.5 276.5t151.5 204.5t210 128t235 44q86 0 154 -5t113 -13l-162 -918h-154l21 174l-4 2q-59 -113 -146.5 -156t-183.5 -43q-55 0 -108.5 19.5t-94.5 58.5t-65.5 96.5t-24.5 131.5zM231 295q0 -86 40 -125t106 -39q45 0 96 26.5t98 77t84 123t54 162.5 l47 258q-10 2 -29.5 3t-42.5 1q-86 0 -168 -36.5t-144.5 -102t-101.5 -155t-39 -193.5zM422 1116l53 125q66 35 122 57.5t128 26.5l8 -111q49 10 103.5 29t107.5 47l-55 -121q-66 -41 -123 -61.5t-127 -24.5l-8 107q-49 -8 -102.5 -26.5t-106.5 -47.5z" />
<glyph unicode="&#xe4;" horiz-adv-x="1009" d="M45 283q0 156 58.5 276.5t151.5 204.5t210 128t235 44q86 0 154 -5t113 -13l-162 -918h-154l21 174l-4 2q-59 -113 -146.5 -156t-183.5 -43q-55 0 -108.5 19.5t-94.5 58.5t-65.5 96.5t-24.5 131.5zM231 295q0 -86 40 -125t106 -39q45 0 96 26.5t98 77t84 123t54 162.5 l47 258q-10 2 -29.5 3t-42.5 1q-86 0 -168 -36.5t-144.5 -102t-101.5 -155t-39 -193.5zM457 1169q0 12 12 30t30.5 32t37 24.5t30.5 10.5q25 0 51.5 -29.5t26.5 -54.5q0 -12 -12 -29.5t-30.5 -32t-37 -25t-30.5 -10.5t-25.5 9.5t-26 21.5t-19.5 26.5t-7 26.5zM723 1169 q0 12 13.5 30t31.5 32t36.5 24.5t31.5 10.5q25 0 51 -29.5t26 -54.5q0 -12 -12 -29.5t-29.5 -32t-36 -25t-30.5 -10.5t-26.5 9.5t-27 21.5t-20.5 26.5t-8 26.5z" />
<glyph unicode="&#xe5;" horiz-adv-x="1009" d="M45 283q0 156 58.5 276.5t151.5 204.5t210 128t235 44q86 0 154 -5t113 -13l-162 -918h-154l21 174l-4 2q-59 -113 -146.5 -156t-183.5 -43q-55 0 -108.5 19.5t-94.5 58.5t-65.5 96.5t-24.5 131.5zM231 295q0 -86 40 -125t106 -39q45 0 96 26.5t98 77t84 123t54 162.5 l47 258q-10 2 -29.5 3t-42.5 1q-86 0 -168 -36.5t-144.5 -102t-101.5 -155t-39 -193.5zM489 1237q0 43 18.5 83t50.5 70.5t73 49t86 18.5q74 0 125 -50t51 -120q0 -45 -19.5 -85t-51 -70.5t-72.5 -49t-84 -18.5q-74 0 -125.5 51t-51.5 121zM588 1241q0 -37 22.5 -58.5 t63.5 -21.5q49 0 85 36t36 87q0 35 -23.5 57.5t-62.5 22.5q-49 0 -85 -36t-36 -87z" />
<glyph unicode="&#xe6;" horiz-adv-x="1476" d="M41 231q0 70 29.5 128.5t79 99.5t111 66.5t124.5 31.5l238 23l10 59q2 8 2 16.5v16.5q0 51 -35 85t-121 34q-70 0 -136.5 -21.5t-117.5 -56.5l-39 153q66 41 149 62.5t169 21.5q98 0 176 -38t115 -109q80 70 177 108.5t193 38.5q129 0 198 -63.5t69 -163.5 q0 -96 -50.5 -171t-138.5 -127t-205.5 -79t-253.5 -27q10 -78 65.5 -128t160.5 -50q76 0 145.5 27t126.5 74l-47 -201q-47 -31 -110.5 -47.5t-129.5 -16.5q-115 0 -205 43t-141 127q-37 -43 -82 -74.5t-89 -53t-86 -32t-75 -10.5q-66 0 -116.5 21.5t-86.5 56.5t-54.5 81 t-18.5 95zM219 244q0 -45 30 -77t81 -32q37 0 78 16.5t76.5 44t62 66.5t35.5 82l14 82l-205 -18q-78 -8 -125 -57.5t-47 -106.5zM793 465q96 0 179 20.5t143.5 54t95 73.5t34.5 81q0 39 -19.5 65.5t-76.5 26.5q-47 0 -103.5 -21.5t-108.5 -62t-91 -100t-53 -137.5z" />
<glyph unicode="&#xe7;" horiz-adv-x="864" d="M55 336q0 135 57.5 248.5t151.5 194.5t212 126t241 45q41 0 79 -3t68 -13l-33 -154q-31 8 -58.5 9.5t-70.5 1.5q-90 0 -171.5 -38t-145 -99.5t-101.5 -139.5t-38 -160q0 -92 57 -152.5t154 -60.5q76 0 153.5 28t134.5 85l-45 -197q-41 -35 -98 -54t-127 -23l-10 -33 q27 0 52.5 -12.5t46 -34t32.5 -50t12 -61.5q0 -45 -20.5 -81t-51 -60.5t-68.5 -36.5t-73 -12q-41 0 -75.5 12t-63.5 35l35 84q27 -23 52.5 -30t57.5 -7q35 0 66 25.5t31 66.5q0 33 -23.5 53.5t-54.5 20.5q-14 0 -27.5 -1t-30.5 -3l46 122q-61 2 -124 26t-114 69t-83 110.5 t-32 153.5z" />
<glyph unicode="&#xe8;" horiz-adv-x="950" d="M63 373q0 127 52.5 232.5t135.5 182t185.5 119.5t202.5 43q129 0 197.5 -63.5t68.5 -163.5q0 -96 -50 -171t-138 -127t-206 -79t-253 -27q10 -78 65.5 -128t159.5 -50q76 0 145.5 27t127.5 74l-47 -201q-47 -31 -110.5 -47.5t-129.5 -16.5q-88 0 -163 26t-128 76 t-84 123.5t-31 170.5zM266 465q96 0 179 20.5t143.5 54t95.5 73.5t35 81q0 39 -19.5 65.5t-76.5 26.5q-47 0 -103.5 -21.5t-109 -62t-91 -100t-53.5 -137.5zM414 1208l57 144q59 -68 146.5 -114t164.5 -71l-98 -84q-78 23 -141.5 48.5t-128.5 76.5z" />
<glyph unicode="&#xe9;" horiz-adv-x="950" d="M63 373q0 127 52.5 232.5t135.5 182t185.5 119.5t202.5 43q129 0 197.5 -63.5t68.5 -163.5q0 -96 -50 -171t-138 -127t-206 -79t-253 -27q10 -78 65.5 -128t159.5 -50q76 0 145.5 27t127.5 74l-47 -201q-47 -31 -110.5 -47.5t-129.5 -16.5q-88 0 -163 26t-128 76 t-84 123.5t-31 170.5zM266 465q96 0 179 20.5t143.5 54t95.5 73.5t35 81q0 39 -19.5 65.5t-76.5 26.5q-47 0 -103.5 -21.5t-109 -62t-91 -100t-53.5 -137.5zM518 1167q86 25 189.5 71t187.5 114l8 -144q-84 -51 -154.5 -77.5t-158.5 -47.5z" />
<glyph unicode="&#xea;" horiz-adv-x="950" d="M63 373q0 127 52.5 232.5t135.5 182t185.5 119.5t202.5 43q129 0 197.5 -63.5t68.5 -163.5q0 -96 -50 -171t-138 -127t-206 -79t-253 -27q10 -78 65.5 -128t159.5 -50q76 0 145.5 27t127.5 74l-47 -201q-47 -31 -110.5 -47.5t-129.5 -16.5q-88 0 -163 26t-128 76 t-84 123.5t-31 170.5zM266 465q96 0 179 20.5t143.5 54t95.5 73.5t35 81q0 39 -19.5 65.5t-76.5 26.5q-47 0 -103.5 -21.5t-109 -62t-91 -100t-53.5 -137.5zM393 1165q74 29 141.5 81t122.5 116q33 -63 81 -115.5t114 -81.5l-94 -82q-41 20 -71 42t-56 59q-43 -37 -81 -58.5 t-83 -42.5z" />
<glyph unicode="&#xeb;" horiz-adv-x="950" d="M63 373q0 127 52.5 232.5t135.5 182t185.5 119.5t202.5 43q129 0 197.5 -63.5t68.5 -163.5q0 -96 -50 -171t-138 -127t-206 -79t-253 -27q10 -78 65.5 -128t159.5 -50q76 0 145.5 27t127.5 74l-47 -201q-47 -31 -110.5 -47.5t-129.5 -16.5q-88 0 -163 26t-128 76 t-84 123.5t-31 170.5zM266 465q96 0 179 20.5t143.5 54t95.5 73.5t35 81q0 39 -19.5 65.5t-76.5 26.5q-47 0 -103.5 -21.5t-109 -62t-91 -100t-53.5 -137.5zM401 1169q0 12 12.5 30t31 32t37 24.5t30.5 10.5q25 0 51.5 -29.5t26.5 -54.5q0 -12 -12.5 -29.5t-31 -32 t-36.5 -25t-31 -10.5q-12 0 -25.5 9.5t-25.5 21.5t-19.5 26.5t-7.5 26.5zM668 1169q0 12 13 30t31.5 32t37 24.5t30.5 10.5q25 0 51.5 -29.5t26.5 -54.5q0 -12 -12 -29.5t-29.5 -32t-36 -25t-30.5 -10.5t-26.5 9.5t-27 21.5t-20.5 26.5t-8 26.5z" />
<glyph unicode="&#xec;" horiz-adv-x="495" d="M61 0l164 928h189l-164 -928h-189zM104 1208l58 144q59 -68 146 -114t165 -71l-98 -84q-78 23 -141.5 48.5t-129.5 76.5z" />
<glyph unicode="&#xed;" horiz-adv-x="495" d="M61 0l164 928h189l-164 -928h-189zM211 1167q86 25 189.5 71t187.5 114l8 -144q-84 -51 -154.5 -77.5t-158.5 -47.5z" />
<glyph unicode="&#xee;" horiz-adv-x="495" d="M61 0l164 928h189l-164 -928h-189zM123 1165q74 29 141.5 81t122.5 116q33 -63 81 -115.5t114 -81.5l-95 -82q-41 20 -70.5 42t-56.5 59q-43 -37 -80.5 -58.5t-82.5 -42.5z" />
<glyph unicode="&#xef;" horiz-adv-x="495" d="M61 0l164 928h189l-164 -928h-189zM137 1169q0 12 12.5 30t31 32t37 24.5t30.5 10.5q25 0 51.5 -29.5t26.5 -54.5q0 -12 -12.5 -29.5t-31 -32t-37 -25t-30.5 -10.5t-25.5 9.5t-25.5 21.5t-19.5 26.5t-7.5 26.5zM403 1169q0 12 13.5 30t32 32t37 24.5t30.5 10.5 q25 0 51.5 -29.5t26.5 -54.5q0 -12 -12.5 -29.5t-29.5 -32t-35.5 -25t-31.5 -10.5q-12 0 -26.5 9.5t-26.5 21.5t-20.5 26.5t-8.5 26.5z" />
<glyph unicode="&#xf0;" horiz-adv-x="1021" d="M43 342q0 176 106.5 300t290.5 183q53 16 110.5 24.5t104.5 12.5q-31 100 -106 240l-160 -82l-67 133l151 78q-72 117 -162 227h211q29 -33 55.5 -69.5t53.5 -77.5l164 84l67 -133l-151 -78q45 -80 85 -167t68.5 -174t45 -172t16.5 -163q0 -123 -38 -220.5t-105.5 -167 t-161 -106.5t-203.5 -37q-84 0 -152.5 29t-118 78t-77 115.5t-27.5 142.5zM233 350q0 -92 51.5 -150.5t143.5 -58.5q68 0 125 29t99 78t65.5 116.5t23.5 145.5q0 57 -12 107.5t-27 82.5q-41 -2 -95 -9t-101 -21q-127 -39 -200 -124t-73 -196z" />
<glyph unicode="&#xf1;" horiz-adv-x="1026" d="M20 0l164 928h154l-21 -174l5 -2q61 90 141 144t215 54q49 0 96 -18.5t84 -51t59.5 -79t22.5 -103.5q0 -10 -1 -22t-3 -25l-115 -651h-186l115 655q2 10 2 29q0 45 -27 79t-82 34q-53 0 -109.5 -22.5t-108.5 -78t-94 -145.5t-67 -225l-57 -326h-187zM375 1116l53 125 q66 35 122 57.5t128 26.5l8 -111q49 10 103.5 29t107.5 47l-55 -121q-66 -41 -123 -61.5t-127 -24.5l-8 107q-49 -8 -102.5 -26.5t-106.5 -47.5z" />
<glyph unicode="&#xf2;" horiz-adv-x="1079" d="M53 356q0 123 46 231.5t125 189.5t182.5 127t218.5 46q82 0 151.5 -25.5t120.5 -74.5t79 -120t28 -161q0 -123 -46.5 -231.5t-125 -188t-182 -126t-218.5 -46.5q-84 0 -152.5 26t-119.5 74t-79 118.5t-28 160.5zM244 375q0 -119 55 -176.5t154 -57.5q68 0 133 33 t115.5 89t82 131t31.5 159q0 117 -56.5 175t-152.5 58q-68 0 -133 -32.5t-116.5 -90t-82 -132t-30.5 -156.5zM416 1208l57 144q59 -68 146.5 -114t164.5 -71l-98 -84q-78 23 -141.5 48.5t-128.5 76.5z" />
<glyph unicode="&#xf3;" horiz-adv-x="1079" d="M53 356q0 123 46 231.5t125 189.5t182.5 127t218.5 46q82 0 151.5 -25.5t120.5 -74.5t79 -120t28 -161q0 -123 -46.5 -231.5t-125 -188t-182 -126t-218.5 -46.5q-84 0 -152.5 26t-119.5 74t-79 118.5t-28 160.5zM244 375q0 -119 55 -176.5t154 -57.5q68 0 133 33 t115.5 89t82 131t31.5 159q0 117 -56.5 175t-152.5 58q-68 0 -133 -32.5t-116.5 -90t-82 -132t-30.5 -156.5zM532 1167q86 25 189.5 71t187.5 114l9 -144q-84 -51 -155 -77.5t-159 -47.5z" />
<glyph unicode="&#xf4;" horiz-adv-x="1079" d="M53 356q0 123 46 231.5t125 189.5t182.5 127t218.5 46q82 0 151.5 -25.5t120.5 -74.5t79 -120t28 -161q0 -123 -46.5 -231.5t-125 -188t-182 -126t-218.5 -46.5q-84 0 -152.5 26t-119.5 74t-79 118.5t-28 160.5zM244 375q0 -119 55 -176.5t154 -57.5q68 0 133 33 t115.5 89t82 131t31.5 159q0 117 -56.5 175t-152.5 58q-68 0 -133 -32.5t-116.5 -90t-82 -132t-30.5 -156.5zM432 1165q74 29 141.5 81t122.5 116q33 -63 81 -115.5t114 -81.5l-94 -82q-41 20 -71 42t-56 59q-43 -37 -81 -58.5t-83 -42.5z" />
<glyph unicode="&#xf5;" horiz-adv-x="1079" d="M53 356q0 123 46 231.5t125 189.5t182.5 127t218.5 46q82 0 151.5 -25.5t120.5 -74.5t79 -120t28 -161q0 -123 -46.5 -231.5t-125 -188t-182 -126t-218.5 -46.5q-84 0 -152.5 26t-119.5 74t-79 118.5t-28 160.5zM244 375q0 -119 55 -176.5t154 -57.5q68 0 133 33 t115.5 89t82 131t31.5 159q0 117 -56.5 175t-152.5 58q-68 0 -133 -32.5t-116.5 -90t-82 -132t-30.5 -156.5zM434 1116l53 125q66 35 122.5 57.5t127.5 26.5l8 -111q49 10 103.5 29t107.5 47l-55 -121q-66 -41 -123 -61.5t-127 -24.5l-8 107q-49 -8 -102.5 -26.5 t-106.5 -47.5z" />
<glyph unicode="&#xf6;" horiz-adv-x="1079" d="M53 356q0 123 46 231.5t125 189.5t182.5 127t218.5 46q82 0 151.5 -25.5t120.5 -74.5t79 -120t28 -161q0 -123 -46.5 -231.5t-125 -188t-182 -126t-218.5 -46.5q-84 0 -152.5 26t-119.5 74t-79 118.5t-28 160.5zM244 375q0 -119 55 -176.5t154 -57.5q68 0 133 33 t115.5 89t82 131t31.5 159q0 117 -56.5 175t-152.5 58q-68 0 -133 -32.5t-116.5 -90t-82 -132t-30.5 -156.5zM446 1169q0 12 12.5 30t31 32t37 24.5t30.5 10.5q25 0 51.5 -29.5t26.5 -54.5q0 -12 -12.5 -29.5t-31 -32t-36.5 -25t-31 -10.5q-12 0 -25.5 9.5t-25.5 21.5 t-19.5 26.5t-7.5 26.5zM713 1169q0 12 13 30t31.5 32t37 24.5t30.5 10.5q25 0 51.5 -29.5t26.5 -54.5q0 -12 -12 -29.5t-29.5 -32t-36 -25t-30.5 -10.5t-26.5 9.5t-27 21.5t-20.5 26.5t-8 26.5z" />
<glyph unicode="&#xf7;" horiz-adv-x="929" d="M78 498l26 149h766l-26 -149h-766zM317 315q0 14 15.5 34t36 37t43 29.5t37.5 12.5q14 0 30.5 -10t29.5 -25.5t22.5 -32t9.5 -30.5q0 -16 -15.5 -36t-36 -37t-43 -29.5t-36.5 -12.5t-31 10.5t-30 25.5t-22.5 32.5t-9.5 31.5zM406 819q0 14 15 33.5t35.5 37t43 30 t37.5 12.5q14 0 30.5 -10.5t29.5 -25.5t22.5 -31.5t9.5 -30.5q0 -16 -15.5 -36t-36 -37.5t-43 -29.5t-36.5 -12t-30.5 10t-30 25.5t-22.5 33t-9 31.5z" />
<glyph unicode="&#xf8;" horiz-adv-x="1079" d="M6 12l113 113q-31 47 -48.5 103.5t-17.5 127.5q0 123 46 231.5t125 189.5t182.5 127t218.5 46q143 0 239 -73l115 116l80 -78l-119 -118q63 -92 64 -228q0 -123 -46.5 -231.5t-125 -188t-182 -126t-218.5 -46.5q-70 0 -129 17.5t-106 50.5l-111 -111zM244 375 q0 -57 16 -107l477 480q-51 39 -131 38q-68 0 -133 -32.5t-116.5 -90t-82 -132t-30.5 -156.5zM326 176q51 -35 127 -35q68 0 133 33t115.5 89t82 131t31.5 159q0 61 -14 102z" />
<glyph unicode="&#xf9;" horiz-adv-x="1026" d="M66 229q0 10 1 22.5t3 24.5l114 652h187l-115 -656q-2 -10 -2 -28q0 -45 26.5 -79t81.5 -34q53 0 109.5 22.5t109 78t94.5 145.5t66 225l58 326h186l-164 -928h-153l20 174l-4 2q-61 -90 -141 -144.5t-215 -54.5q-49 0 -96.5 18.5t-84 51.5t-59 79t-22.5 103zM358 1208 l58 144q59 -68 146 -114t165 -71l-98 -84q-78 23 -141.5 48.5t-129.5 76.5z" />
<glyph unicode="&#xfa;" horiz-adv-x="1026" d="M66 229q0 10 1 22.5t3 24.5l114 652h187l-115 -656q-2 -10 -2 -28q0 -45 26.5 -79t81.5 -34q53 0 109.5 22.5t109 78t94.5 145.5t66 225l58 326h186l-164 -928h-153l20 174l-4 2q-61 -90 -141 -144.5t-215 -54.5q-49 0 -96.5 18.5t-84 51.5t-59 79t-22.5 103zM516 1167 q86 25 189.5 71t187.5 114l8 -144q-84 -51 -154.5 -77.5t-158.5 -47.5z" />
<glyph unicode="&#xfb;" horiz-adv-x="1026" d="M66 229q0 10 1 22.5t3 24.5l114 652h187l-115 -656q-2 -10 -2 -28q0 -45 26.5 -79t81.5 -34q53 0 109.5 22.5t109 78t94.5 145.5t66 225l58 326h186l-164 -928h-153l20 174l-4 2q-61 -90 -141 -144.5t-215 -54.5q-49 0 -96.5 18.5t-84 51.5t-59 79t-22.5 103zM401 1165 q74 29 141.5 81t123.5 116q33 -63 81 -115.5t113 -81.5l-94 -82q-41 20 -70.5 42t-56.5 59q-43 -37 -81 -58.5t-83 -42.5z" />
<glyph unicode="&#xfc;" horiz-adv-x="1026" d="M66 229q0 10 1 22.5t3 24.5l114 652h187l-115 -656q-2 -10 -2 -28q0 -45 26.5 -79t81.5 -34q53 0 109.5 22.5t109 78t94.5 145.5t66 225l58 326h186l-164 -928h-153l20 174l-4 2q-61 -90 -141 -144.5t-215 -54.5q-49 0 -96.5 18.5t-84 51.5t-59 79t-22.5 103zM408 1169 q0 12 12 30t30.5 32t37 24.5t30.5 10.5q25 0 51.5 -29.5t26.5 -54.5q0 -12 -12.5 -29.5t-30.5 -32t-36.5 -25t-31.5 -10.5q-12 0 -25.5 9.5t-25.5 21.5t-19 26.5t-7 26.5zM674 1169q0 12 13 30t31.5 32t37 24.5t30.5 10.5q25 0 51.5 -29.5t26.5 -54.5q0 -12 -12 -29.5 t-29.5 -32t-36 -25t-30.5 -10.5t-26.5 9.5t-27 21.5t-20.5 26.5t-8 26.5z" />
<glyph unicode="&#xfd;" horiz-adv-x="1013" d="M-94 -371q111 47 214 154.5t206 275.5l-203 869h190l101 -432q12 -51 22 -100.5t21 -106.5h4q29 51 59.5 104t63.5 107l250 428h200l-489 -838q-74 -127 -143.5 -223t-135 -165t-127 -114t-121.5 -71zM494 1167q86 25 189 71t187 114l9 -144q-84 -51 -155 -77.5 t-159 -47.5z" />
<glyph unicode="&#xfe;" horiz-adv-x="1058" d="M-53 -473l342 1931h186l-117 -655l4 -2q45 72 125 110.5t197 38.5q55 0 109.5 -23.5t95.5 -68.5t66.5 -110.5t25.5 -149.5q0 -139 -53.5 -254t-140.5 -196.5t-197.5 -126t-224.5 -44.5q-76 0 -148 17l-84 -467h-186zM248 170q20 -12 54 -20.5t81 -8.5q80 0 153.5 34 t131 94.5t91.5 143.5t34 181q0 94 -46.5 143t-123.5 49q-47 0 -99.5 -26.5t-98.5 -76.5t-83 -123t-53 -163z" />
<glyph unicode="&#xff;" horiz-adv-x="1013" d="M-94 -371q111 47 214 154.5t206 275.5l-203 869h190l101 -432q12 -51 22 -100.5t21 -106.5h4q29 51 59.5 104t63.5 107l250 428h200l-489 -838q-74 -127 -143.5 -223t-135 -165t-127 -114t-121.5 -71zM381 1163q0 12 12.5 28.5t30.5 32t37.5 26t32.5 10.5q12 0 25 -9.5 t25.5 -21.5t19.5 -26.5t7 -26.5t-12 -30t-30.5 -33t-38 -25.5t-31.5 -10.5t-25.5 9.5t-26 22.5t-19.5 27.5t-7 26.5zM649 1163q0 12 13.5 28.5t31 32t37 26t31.5 10.5t25.5 -9.5t25.5 -21.5t19.5 -26.5t7.5 -26.5t-12.5 -30t-31 -33t-37 -25.5t-30.5 -10.5t-26.5 9.5 t-26.5 22.5t-19.5 27.5t-7.5 26.5z" />
<glyph unicode="&#x152;" horiz-adv-x="1951" d="M96 551q0 176 68.5 320.5t181.5 247t256 158.5t293 56q100 0 192.5 -27.5t169.5 -80.5l15 82h702l-26 -160h-506l-72 -406h424l-29 -159h-424l-73 -422h577l-28 -160h-775l11 57q-170 -82 -355 -82q-119 0 -227.5 39t-191 113t-133 180.5t-50.5 243.5zM297 551 q0 -96 35 -171t91 -127t131 -79t155 -27q102 0 202.5 41t184.5 115l123 701q-59 78 -146.5 117.5t-185.5 39.5q-106 0 -212 -44t-190 -124t-136 -192.5t-52 -249.5z" />
<glyph unicode="&#x153;" horiz-adv-x="1681" d="M53 356q0 123 46 231.5t125 189.5t182.5 127t218.5 46t200.5 -47t132.5 -137q86 86 195 135t217 49q129 0 197.5 -63.5t68.5 -163.5q0 -96 -50 -171t-138 -127t-206 -79t-253 -27q10 -78 65.5 -128t159.5 -50q76 0 146 27t127 74l-47 -201q-47 -31 -110.5 -47.5 t-129.5 -16.5q-121 0 -213 46.5t-143 138.5q-78 -86 -185.5 -135.5t-226.5 -49.5q-84 0 -152.5 26t-119.5 74t-79 118.5t-28 160.5zM244 375q0 -119 55 -176.5t154 -57.5q68 0 133 33t115.5 89t82 131t31.5 159q0 117 -56.5 175t-152.5 58q-68 0 -133 -32.5t-116.5 -90 t-82 -132t-30.5 -156.5zM997 465q96 0 179.5 20.5t143.5 54t95 73.5t35 81q0 39 -19.5 65.5t-76.5 26.5q-47 0 -103.5 -21.5t-108.5 -62t-91 -100t-54 -137.5z" />
<glyph unicode="&#x178;" horiz-adv-x="1236" d="M158 1307h207l194 -369q23 -41 48.5 -91t45.5 -93h4q35 43 79 94t79 90l326 369h213l-625 -705l-106 -602h-195l107 602zM510 1565q0 14 15.5 33.5t36 37t43 30t36.5 12.5t30.5 -10.5t30 -25.5t22.5 -32t9 -31q0 -16 -15.5 -35.5t-36 -37t-43 -29.5t-36.5 -12t-30.5 10 t-30 25.5t-22.5 33t-9 31.5zM825 1565q0 14 15.5 33.5t37 37t43 30t35.5 12.5t30.5 -10.5t30 -25.5t22.5 -32t9 -31q0 -16 -15 -35.5t-35.5 -37t-42 -29.5t-36.5 -12q-16 0 -32.5 10t-29.5 25.5t-22.5 33t-9.5 31.5z" />
<glyph unicode="&#x2c6;" d="M287 1149q88 35 166.5 96.5t144.5 134.5q37 -74 94.5 -135t132.5 -96l-110 -96q-47 23 -82 49t-68 69q-49 -43 -94 -69.5t-98 -48.5z" />
<glyph unicode="&#x2dc;" d="M264 1092l64 147q78 41 144.5 66.5t150.5 31.5l8 -129q59 10 122.5 33t125.5 55l-64 -143q-78 -47 -145.5 -70.5t-149.5 -29.5l-10 125q-115 -16 -246 -86z" />
<glyph unicode="&#x2000;" horiz-adv-x="952" />
<glyph unicode="&#x2001;" horiz-adv-x="1905" />
<glyph unicode="&#x2002;" horiz-adv-x="952" />
<glyph unicode="&#x2003;" horiz-adv-x="1905" />
<glyph unicode="&#x2004;" horiz-adv-x="635" />
<glyph unicode="&#x2005;" horiz-adv-x="476" />
<glyph unicode="&#x2006;" horiz-adv-x="317" />
<glyph unicode="&#x2007;" horiz-adv-x="317" />
<glyph unicode="&#x2008;" horiz-adv-x="238" />
<glyph unicode="&#x2009;" horiz-adv-x="381" />
<glyph unicode="&#x200a;" horiz-adv-x="105" />
<glyph unicode="&#x2010;" horiz-adv-x="675" d="M78 498l26 149h512l-26 -149h-512z" />
<glyph unicode="&#x2011;" horiz-adv-x="675" d="M78 498l26 149h512l-26 -149h-512z" />
<glyph unicode="&#x2012;" horiz-adv-x="675" d="M78 498l26 149h512l-26 -149h-512z" />
<glyph unicode="&#x2013;" horiz-adv-x="1187" d="M78 498l26 149h1024l-26 -149h-1024z" />
<glyph unicode="&#x2014;" horiz-adv-x="1699" d="M78 498l26 149h1536l-26 -149h-1536z" />
<glyph unicode="&#x2018;" horiz-adv-x="403" d="M172 1079q0 27 26.5 77t68.5 105.5t90.5 108.5t91.5 88l69 -12q-68 -72 -116 -142.5t-62 -117.5q12 -2 26.5 -12.5t27 -23.5t20.5 -28.5t8 -27.5q0 -16 -17.5 -39t-41 -43.5t-48 -33.5t-39.5 -13q-12 0 -29.5 11t-34.5 28.5t-28.5 37t-11.5 37.5z" />
<glyph unicode="&#x2019;" horiz-adv-x="403" d="M123 987q68 72 116 142.5t62 117.5q-25 4 -53.5 35t-28.5 57q0 16 17.5 39t41 42.5t48 33.5t39.5 14q12 0 29.5 -11t34.5 -28.5t28.5 -38t11.5 -38.5q0 -29 -26.5 -78t-68.5 -104.5t-90 -107.5t-91 -87z" />
<glyph unicode="&#x201a;" horiz-adv-x="403" d="M-94 -256q68 72 116 142.5t62 117.5q-25 4 -53.5 35t-28.5 57q0 16 17.5 39t41 42.5t48 33.5t38.5 14q12 0 30 -11t35 -28.5t28.5 -38t11.5 -38.5q0 -29 -26.5 -78t-68.5 -104.5t-90.5 -107.5t-91.5 -87z" />
<glyph unicode="&#x201c;" horiz-adv-x="755" d="M172 1079q0 27 26.5 77t68.5 105.5t90.5 108.5t91.5 88l69 -12q-68 -72 -116 -142.5t-62 -117.5q12 -2 26.5 -12.5t27 -23.5t20.5 -28.5t8 -27.5q0 -16 -17.5 -39t-41 -43.5t-48 -33.5t-39.5 -13q-12 0 -29.5 11t-34.5 28.5t-28.5 37t-11.5 37.5zM524 1081q0 27 27 77 t69 105.5t90 107.5t91 87l69 -12q-68 -72 -115.5 -142.5t-62.5 -117.5q25 -4 53.5 -35t28.5 -57q0 -16 -17.5 -39t-41 -43.5t-48 -33.5t-38.5 -13q-12 0 -29.5 11t-35 28.5t-29 38t-11.5 38.5z" />
<glyph unicode="&#x201d;" horiz-adv-x="755" d="M123 987q68 72 116 142.5t62 117.5q-25 4 -53.5 35t-28.5 57q0 16 17.5 39t41 42.5t48 33.5t39.5 14q12 0 29.5 -11t34.5 -28.5t28.5 -38t11.5 -38.5q0 -29 -26.5 -78t-68.5 -104.5t-90 -107.5t-91 -87zM475 987q68 72 116 142.5t62 117.5q-12 2 -26.5 12.5t-26.5 23.5 t-20.5 28.5t-8.5 27.5q0 16 17.5 39t41 42.5t48 33.5t39.5 14q12 0 29.5 -11t35 -28.5t28.5 -37t11 -37.5q0 -29 -26.5 -78t-68.5 -104.5t-90 -108.5t-91 -88z" />
<glyph unicode="&#x201e;" horiz-adv-x="755" d="M-94 -256q68 72 116 142.5t62 117.5q-25 4 -53.5 35t-28.5 57q0 16 17.5 39t41 42.5t48 33.5t38.5 14q12 0 30 -11t35 -28.5t28.5 -38t11.5 -38.5q0 -29 -26.5 -78t-68.5 -104.5t-90.5 -107.5t-91.5 -87zM258 -256q68 72 116 142.5t62 117.5q-25 4 -53.5 35t-28.5 57 q0 16 17.5 39t41 42.5t48 33.5t39.5 14q12 0 29.5 -11t35 -28.5t28.5 -38t11 -38.5q0 -29 -26.5 -78t-68.5 -104.5t-90 -107.5t-91 -87z" />
<glyph unicode="&#x2022;" horiz-adv-x="778" d="M106 502q0 76 29 142.5t77 115.5t111.5 77.5t133.5 28.5q102 0 166.5 -61t64.5 -172q0 -76 -28.5 -142.5t-75.5 -115.5t-111.5 -77t-134.5 -28q-102 0 -167 60.5t-65 171.5z" />
<glyph unicode="&#x2026;" horiz-adv-x="1124" d="M2 94q0 16 16.5 39t40 43.5t48 34.5t40.5 14q14 0 33 -12t34 -30.5t26.5 -39t11.5 -34.5q0 -16 -17.5 -38t-41 -43.5t-48 -36t-41.5 -14.5q-14 0 -32.5 12.5t-33.5 30t-25.5 38t-10.5 36.5zM362 94q0 16 16.5 39t40 43.5t48.5 34.5t41 14q14 0 32.5 -12t34 -30.5 t26.5 -39t11 -34.5q0 -16 -17 -38t-41 -43.5t-48.5 -36t-40.5 -14.5q-14 0 -32.5 12.5t-34 30t-26 38t-10.5 36.5zM723 94q0 16 16.5 39t40 43.5t48 34.5t40.5 14q14 0 33 -12t34 -30.5t26.5 -39t11.5 -34.5q0 -16 -17.5 -38t-41 -43.5t-48 -36t-41.5 -14.5 q-14 0 -32.5 12.5t-34 30t-25.5 38t-10 36.5z" />
<glyph unicode="&#x202f;" horiz-adv-x="381" />
<glyph unicode="&#x2039;" horiz-adv-x="473" d="M6 567q227 147 387 351l88 -115q-47 -66 -102 -125.5t-127 -118.5q49 -59 85 -117.5t58 -126.5l-125 -98q-45 102 -109.5 190.5t-154.5 159.5z" />
<glyph unicode="&#x203a;" horiz-adv-x="473" d="M8 330q47 68 101.5 126t126.5 117q-49 59 -84 119t-58 125l125 101q86 -204 264 -351q-115 -72 -212 -160t-175 -190z" />
<glyph unicode="&#x205f;" horiz-adv-x="476" />
<glyph unicode="&#x2122;" horiz-adv-x="851" d="M166 1241l12 66h289l-12 -66h-109l-55 -313h-72l55 313h-108zM426 928l96 379h47l82 -271l185 271h49l-35 -379h-72l29 235l-160 -235h-26l-70 231l-57 -231h-68z" />
<glyph unicode="&#x25fc;" horiz-adv-x="931" d="M0 0v932h932v-932h-932z" />
</font>
</defs>
</svg>
