<?xml version="1.0" standalone="no"?>
<!DOCTYPE svg PUBLIC "-//W3C//DTD SVG 1.1//EN" "http://www.w3.org/Graphics/SVG/1.1/DTD/svg11.dtd" >
<svg xmlns="http://www.w3.org/2000/svg" xmlns:xlink="http://www.w3.org/1999/xlink" version="1.1">
<metadata></metadata>
<defs>
<font id="agendaitalic" horiz-adv-x="1017" >
<font-face units-per-em="2048" ascent="1638" descent="-410" />
<missing-glyph horiz-adv-x="487" />
<glyph horiz-adv-x="0" />
<glyph horiz-adv-x="682" />
<glyph horiz-adv-x="737" d="M295 1135l88 77q8 -6 47 -23.5t88 -17.5q25 0 50.5 5.5t46 12.5t35 13t20.5 10l61 -77q-6 -4 -27.5 -16.5t-52 -27t-69.5 -24.5t-82 -10t-78 10t-61.5 24.5t-44 26.5t-21.5 17z" />
<glyph horiz-adv-x="737" d="M428 1151q0 14 12.5 33.5t28.5 37t35.5 30t32.5 12.5q12 0 24 -9.5t22.5 -23.5t16.5 -31t6 -31t-12 -32.5t-28.5 -36t-35 -29.5t-30.5 -12t-24.5 9t-24 23.5t-17.5 31t-6 28.5z" />
<glyph horiz-adv-x="737" d="M324 1212q0 47 19 90.5t53 75t76 51t89 19.5q37 0 70 -13.5t57.5 -37t38.5 -55t14 -68.5q0 -49 -19.5 -92t-53 -76t-76.5 -51.5t-88 -18.5q-76 0 -128 51.5t-52 124.5zM412 1217q0 -45 26.5 -71t71.5 -26q59 0 101 44.5t42 103.5q0 47 -26.5 71.5t-71.5 24.5 q-59 0 -101 -44t-42 -103z" />
<glyph unicode="&#xa;" horiz-adv-x="737" d="M193 1079q92 61 178 148.5t149 173.5l62 -76q-72 -92 -138.5 -149.5t-148.5 -118.5zM471 1079q92 61 178 148.5t150 173.5l61 -76q-72 -92 -138.5 -149.5t-148.5 -118.5z" />
<glyph horiz-adv-x="737" d="M41 -301q0 53 24.5 99t62.5 85t85 69t94 48h133q-55 -25 -109.5 -55.5t-97.5 -66.5t-68.5 -78t-25.5 -89q0 -41 27 -65.5t72 -24.5q37 0 70.5 11.5t60.5 29.5l-23 -90q-23 -16 -52.5 -24.5t-76.5 -8.5q-35 0 -66.5 12.5t-56 34t-39 50t-14.5 63.5z" />
<glyph horiz-adv-x="737" d="M272 1270l80 67q53 -27 96.5 -59.5t75.5 -79.5q49 47 103.5 80t115.5 59l64 -67q-86 -35 -164 -95.5t-143 -132.5q-39 72 -96.5 132.5t-131.5 95.5z" />
<glyph unicode="&#xd;" horiz-adv-x="487" />
<glyph horiz-adv-x="1236" d="M-47 23l1311 1323l61 -60l-1311 -1325z" />
<glyph horiz-adv-x="1048" d="M84 827l18 101h148l12 63q41 238 172 356.5t322 118.5q47 0 84 -4t69 -14l-24 -109q-25 10 -61 13.5t-76 3.5q-135 0 -228.5 -89t-122.5 -243l-16 -96h561l-164 -928h-129l146 827h-433l-145 -827h-131l147 827h-149z" />
<glyph horiz-adv-x="1118" d="M84 827l18 101h148l12 61q41 223 183.5 350t377.5 127q66 0 128.5 -7t105.5 -23l-217 -1225q-2 -12 -3 -22.5t-1 -20.5q0 -47 23.5 -76t62.5 -39l-82 -84q-53 12 -93 59.5t-40 131.5q0 29 6 63l196 1123q-41 10 -106 10q-84 0 -153.5 -28t-122 -75t-86 -109.5 t-46.5 -131.5l-14 -84h237l-18 -101h-238l-145 -827h-131l147 827h-149z" />
<glyph horiz-adv-x="921" d="M12 612l170 88l105 607h137l-90 -527l227 119l-22 -123l-228 -117l-94 -540h606l-20 -119h-746l103 580l-113 -60z" />
<glyph horiz-adv-x="518" d="M10 612l189 99l133 747h129l-119 -672l184 97l-22 -123l-185 -96l-79 -453q-2 -12 -3 -22.5t-1 -20.5q0 -47 23.5 -76t62.5 -39l-82 -84q-53 12 -93.5 59.5t-40.5 131.5q0 29 7 63l65 365l-133 -68z" />
<glyph horiz-adv-x="1011" d="M-43 0l6 31l584 776q72 98 151.5 200.5t145.5 186.5v2h-623l19 111h815l-6 -31l-584 -778q-72 -96 -153 -197.5t-146 -187.5l2 -2h706l-20 -111h-897zM413 1680l80 67q53 -27 96.5 -59.5t75.5 -79.5q49 47 103.5 80t115.5 59l64 -67q-86 -35 -164 -95.5t-143 -132.5 q-39 72 -96.5 132.5t-131.5 95.5z" />
<glyph horiz-adv-x="831" d="M-43 0l6 25l420 532q47 63 105.5 135t107.5 129l-4 2h-453l21 105h643l-4 -25l-420 -534q-57 -72 -108.5 -134.5t-104.5 -128.5l4 -2h524l-18 -104h-719zM319 1268l68 57q47 -23 83 -50.5t65 -68.5q41 41 87 69t99 50l53 -57q-74 -31 -140.5 -81t-121.5 -112 q-33 61 -81 111.5t-112 81.5z" />
<glyph unicode=" "  horiz-adv-x="487" />
<glyph unicode="&#x09;" horiz-adv-x="487" />
<glyph unicode="&#xa0;" horiz-adv-x="487" />
<glyph unicode="!" horiz-adv-x="483" d="M68 82q0 14 13 35.5t31.5 41t38 33t33.5 13.5q12 0 25.5 -11.5t26 -26.5t19.5 -34t7 -33t-13 -34.5t-31.5 -40t-38 -32.5t-34.5 -13q-12 0 -25.5 10t-25.5 25.5t-19 34t-7 32.5zM154 348l161 1049h152l-211 -1078z" />
<glyph unicode="&#x22;" horiz-adv-x="567" d="M186 1038l50 420h129l-105 -420h-74zM477 1038l49 420h127l-102 -420h-74z" />
<glyph unicode="#" horiz-adv-x="843" d="M-39 0l176 432h-117l3 86h149l111 270h-138l2 86h170l177 433h96l-176 -433h221l174 433h96l-174 -433h115l-2 -86h-150l-110 -270h137l-2 -86h-170l-176 -432h-97l177 432h-220l-176 -432h-96zM268 518h219l111 270h-219z" />
<glyph unicode="$" horiz-adv-x="927" d="M-25 51l23 127q59 -35 143 -58.5t183 -23.5q66 0 128 18.5t110 53.5t77 83t29 107q0 80 -47.5 144.5t-167.5 122.5q-135 63 -197.5 146t-62.5 204q0 63 26.5 121.5t73.5 104.5t111.5 78t140.5 44l33 186h86l-31 -180q72 0 145.5 -11t120.5 -32l-31 -112q-43 18 -104.5 28 t-128.5 10q-74 0 -130 -20.5t-96 -53t-60.5 -73.5t-20.5 -80q0 -86 44 -140t148 -104q141 -66 212 -154.5t71 -215.5q0 -78 -27.5 -143.5t-81 -117t-129.5 -84t-172 -42.5l-31 -183h-86l31 176q-100 2 -183 22.5t-149 51.5z" />
<glyph unicode="%" horiz-adv-x="1433" d="M49 23l1311 1323l61 -60l-1310 -1325zM168 1008q0 70 25.5 129t69.5 102t103.5 66.5t125.5 23.5q104 0 169.5 -66.5t65.5 -164.5q0 -70 -26.5 -129.5t-70.5 -102.5t-103.5 -66.5t-125.5 -23.5q-51 0 -94 17.5t-73.5 49t-48 73.5t-17.5 92zM279 1018q0 -66 38.5 -102.5 t98.5 -36.5q39 0 75.5 16t64.5 45t45 66.5t17 80.5q0 66 -40.5 104t-100.5 38q-39 0 -74.5 -16.5t-63.5 -45t-44 -67.5t-16 -82zM748 211q0 70 25.5 129t69.5 102t102.5 66.5t125.5 23.5q104 0 170 -66.5t66 -164.5q0 -72 -27 -130t-71 -101t-103 -66.5t-125 -23.5 q-104 0 -168.5 65.5t-64.5 165.5zM856 221q0 -66 40 -103.5t99 -37.5q39 0 75 16.5t63.5 45t45 67.5t17.5 82q0 66 -40 102.5t-99 36.5q-39 0 -75 -16.5t-63.5 -45t-45 -66.5t-17.5 -81z" />
<glyph unicode="&#x26;" horiz-adv-x="1204" d="M41 285q0 139 85 239.5t255 186.5q-129 147 -129 286q0 80 33.5 142.5t86 104.5t117 63.5t127.5 21.5q55 0 106.5 -18.5t90.5 -52t62.5 -83t23.5 -112.5q0 -61 -24.5 -113.5t-69.5 -100.5t-105.5 -91t-132.5 -82l281 -338q57 66 105 141.5t87 155.5l76 -96 q-35 -72 -84 -148t-110 -143l206 -248h-159l-133 160q-106 -92 -214 -137.5t-231 -45.5q-88 0 -153.5 27t-109.5 70t-65.5 98t-21.5 113zM166 295q0 -86 65.5 -145.5t174.5 -59.5q86 0 178 43t174 121l-305 369q-137 -72 -212 -149t-75 -179zM377 1004q0 -53 28.5 -107.5 t94.5 -132.5q135 78 204.5 146.5t69.5 148.5q0 68 -46 115t-126 47q-45 0 -86 -18.5t-71.5 -48.5t-49 -68.5t-18.5 -81.5z" />
<glyph unicode="'" horiz-adv-x="276" d="M186 1038l50 420h129l-105 -420h-74z" />
<glyph unicode="(" horiz-adv-x="499" d="M37 117q0 193 31.5 374t90 349t139.5 321.5t177 290.5l125 -29q-94 -131 -174 -278.5t-137.5 -310t-90 -339t-32.5 -364.5q0 -154 23.5 -298t70.5 -292l-133 33q-41 123 -65.5 254t-24.5 289z" />
<glyph unicode=")" horiz-adv-x="499" d="M-119 -430q94 131 174 279.5t138.5 311.5t91 338t32.5 363q0 156 -23.5 300.5t-70.5 291.5l131 -35q41 -123 65.5 -252.5t24.5 -287.5q0 -193 -31.5 -375t-89 -350t-138.5 -322t-177 -291z" />
<glyph unicode="*" horiz-adv-x="835" d="M143 1069l35 119l283 -109l41 297l127 29l-72 -326l299 107l43 -109l-326 -84l146 -239l-98 -92l-136 272l-209 -252l-102 51l246 258z" />
<glyph unicode="+" horiz-adv-x="946" d="M86 518l18 105h322l53 305h123l-53 -305h321l-18 -105h-322l-53 -305h-123l54 305h-322z" />
<glyph unicode="," horiz-adv-x="382" d="M-78 -227q55 57 97 119.5t55 107.5q-18 6 -39 32.5t-21 51.5q0 14 13.5 34.5t32 40t39 33t32.5 13.5q10 0 23.5 -10.5t26 -25.5t20.5 -34t8 -35q0 -27 -20.5 -68.5t-53.5 -88.5t-74 -94.5t-81 -84.5z" />
<glyph unicode="-" horiz-adv-x="692" d="M86 518l18 105h512l-18 -105h-512z" />
<glyph unicode="." horiz-adv-x="382" d="M12 82q0 14 13.5 35.5t32 41t38 33t31.5 13.5t26.5 -11.5t27 -26.5t19.5 -34t7 -33t-13.5 -34.5t-32 -40t-39 -32.5t-34.5 -13q-12 0 -25.5 10t-24.5 25.5t-18.5 34t-7.5 32.5z" />
<glyph unicode="/" horiz-adv-x="1271" d="M-33 41l1305 1321l74 -70l-1299 -1323z" />
<glyph unicode="0" horiz-adv-x="1110" d="M84 453q0 158 42 314.5t120 281.5t190.5 202.5t253.5 77.5q76 0 143.5 -29.5t117.5 -89t79 -147.5t29 -207q0 -160 -42 -316.5t-121 -281.5t-191.5 -203t-251.5 -78q-78 0 -144.5 30t-117 89.5t-79 148.5t-28.5 208zM213 453q0 -182 72.5 -270.5t179.5 -88.5 q100 0 186 66.5t147.5 174t96.5 244t35 273.5q0 184 -73 273t-179 89q-100 0 -185 -67.5t-147.5 -175t-97.5 -244.5t-35 -274z" />
<glyph unicode="1" horiz-adv-x="598" d="M135 1188l45 106l373 33l-236 -1327h-129l213 1214z" />
<glyph unicode="2" horiz-adv-x="937" d="M-39 0l8 31q780 670 781 975q0 117 -67 162.5t-171 45.5q-82 0 -149.5 -24.5t-135.5 -65.5l-24 111q63 37 147 65.5t176 28.5q160 0 257.5 -81.5t97.5 -239.5q0 -96 -57.5 -210t-149.5 -231.5t-209 -233.5t-236 -214h564l-23 -119h-809z" />
<glyph unicode="3" horiz-adv-x="856" d="M6 20v123q51 -25 102.5 -38t116.5 -13q80 0 152 25.5t126 72t87 112t33 144.5q0 49 -18.5 93.5t-51.5 76t-77 51t-93 19.5q-16 0 -30.5 -1t-30.5 -3l-25 109q72 12 132 38.5t104.5 62.5t69 79t24.5 88q0 68 -48.5 113t-138.5 45q-59 0 -111.5 -16.5t-101.5 -47.5l-26 109 q57 31 119.5 49t136.5 18q68 0 123 -20.5t94 -55t60.5 -83t21.5 -105.5q0 -55 -21.5 -104.5t-56.5 -89.5t-79 -68.5t-91 -40.5q45 -8 89 -32.5t78 -64.5t54.5 -93.5t20.5 -116.5q0 -102 -37 -189.5t-106.5 -151t-169 -99t-224.5 -35.5q-115 0 -207 40z" />
<glyph unicode="4" horiz-adv-x="983" d="M8 471l780 836h91l-146 -834h162l-18 -100h-162l-66 -373h-129l66 373h-570zM147 473h455l74 401q8 51 16 101.5t21 103.5l-4 2q-47 -55 -93.5 -107t-87.5 -95z" />
<glyph unicode="5" horiz-adv-x="911" d="M57 23v127q98 -53 248 -54q74 0 140.5 27t117.5 75t82 112.5t31 138.5q0 113 -76 179t-190 66q-139 0 -240 -41l133 654h543l-39 -113h-401l-82 -399q41 14 110 14q82 0 149.5 -25.5t117 -72.5t77 -113t27.5 -143q0 -96 -38 -182.5t-106.5 -151t-164 -102t-209.5 -37.5 q-78 0 -134.5 12t-95.5 29z" />
<glyph unicode="6" horiz-adv-x="1009" d="M57 348q0 141 61.5 286.5t166 279t244 244t292.5 179.5l115 -57q-102 -45 -199.5 -109.5t-182.5 -142.5t-155.5 -165t-117.5 -177q39 47 110.5 83t165.5 36q80 0 144.5 -25.5t110.5 -71.5t71.5 -109.5t25.5 -139.5q0 -102 -37.5 -190.5t-103.5 -153t-155 -100t-189 -35.5 q-78 0 -144.5 25.5t-115.5 72.5t-78 115.5t-29 154.5zM184 354q0 -57 19.5 -105t54.5 -82t82 -53.5t102 -19.5q68 0 128.5 29t106.5 78t73.5 114.5t27.5 137.5q0 109 -66.5 173t-176.5 64q-104 0 -193.5 -53t-136.5 -164q-10 -25 -15.5 -59.5t-5.5 -59.5z" />
<glyph unicode="7" horiz-adv-x="903" d="M82 0l725 1200h-645l16 107h836l-787 -1307h-145z" />
<glyph unicode="8" horiz-adv-x="1019" d="M45 309q0 82 35 148.5t87 119t114.5 87t115.5 51.5q-72 29 -123 98.5t-51 161.5q0 78 34 142.5t92.5 111.5t133 73.5t158.5 26.5q70 0 129 -21.5t102 -58.5t67 -88t24 -110q0 -63 -25 -116.5t-64.5 -95.5t-90 -73t-101.5 -49q39 -12 79 -41t71.5 -69t52 -91t20.5 -113 q0 -96 -41 -174.5t-109.5 -134t-156.5 -86.5t-182 -31q-80 0 -147.5 24t-118 67t-78 104t-27.5 137zM170 313q0 -104 73.5 -163.5t182.5 -59.5q66 0 128 24.5t111.5 66.5t79 98t29.5 122q0 49 -20.5 89t-55 72t-82 54.5t-98.5 36.5q-68 -18 -130 -50t-110.5 -75t-78 -97 t-29.5 -118zM350 977q0 -72 53.5 -126t151.5 -81q133 37 208 113t75 164q0 78 -57.5 126t-149.5 48q-53 0 -104.5 -19.5t-90.5 -52.5t-62.5 -77t-23.5 -95z" />
<glyph unicode="9" horiz-adv-x="1009" d="M113 29q102 45 199.5 109.5t182.5 142t155.5 164.5t117.5 178q-39 -45 -110.5 -81t-165.5 -36q-80 0 -144.5 25.5t-111 70.5t-72 108.5t-25.5 139.5q0 102 38 190t103.5 152.5t153.5 100.5t191 36q76 0 143.5 -25.5t116.5 -72.5t77.5 -114.5t28.5 -153.5 q0 -141 -61.5 -287t-166 -280t-243.5 -244.5t-293 -180.5zM270 856q0 -109 66.5 -173.5t177.5 -64.5q104 0 193.5 53.5t136.5 164.5q10 27 15 61t5 59q0 57 -19.5 104.5t-54 81.5t-81.5 53t-103 19q-68 0 -128 -28.5t-106 -77.5t-74 -114.5t-28 -137.5z" />
<glyph unicode=":" horiz-adv-x="382" d="M12 82q0 14 13.5 35.5t32 41t38 33t31.5 13.5t26.5 -11.5t27 -26.5t19.5 -34t7 -33t-13.5 -34.5t-32 -40t-39 -32.5t-34.5 -13q-12 0 -25.5 10t-24.5 25.5t-18.5 34t-7.5 32.5zM143 827q0 14 13.5 35t32 40.5t38 32.5t33.5 13q12 0 25.5 -11t26 -26.5t19.5 -33t7 -31.5 t-13.5 -34.5t-32 -40t-39 -34t-32.5 -14.5t-26.5 10t-25.5 26.5t-18.5 34t-7.5 33.5z" />
<glyph unicode=";" horiz-adv-x="382" d="M-78 -227q55 57 97 119.5t55 107.5q-18 6 -39 32.5t-21 51.5q0 14 13.5 34.5t32 40t39 33t32.5 13.5q10 0 23.5 -10.5t26 -25.5t20.5 -34t8 -35q0 -27 -20.5 -68.5t-53.5 -88.5t-74 -94.5t-81 -84.5zM143 827q0 14 13.5 35t32 40.5t38 32.5t33.5 13q12 0 25.5 -11 t26 -26.5t19.5 -33t7 -31.5t-13.5 -34.5t-32 -40t-39 -34t-32.5 -14.5t-26.5 10t-25.5 26.5t-18.5 34t-7.5 33.5z" />
<glyph unicode="&#x3c;" horiz-adv-x="718" d="M104 567l426 363l70 -84l-326 -279l228 -278l-99 -84z" />
<glyph unicode="=" horiz-adv-x="946" d="M55 342l19 104h766l-19 -104h-766zM117 694l18 105h766l-18 -105h-766z" />
<glyph unicode="&#x3e;" horiz-adv-x="718" d="M125 289l328 278l-230 279l101 84l299 -363l-426 -362z" />
<glyph unicode="?" horiz-adv-x="784" d="M180 82q0 14 13.5 35.5t32 41t38 33t31.5 13.5t26.5 -11.5t26.5 -26.5t19.5 -34t7.5 -33t-13.5 -34.5t-32 -40t-39 -32.5t-34.5 -13q-12 0 -25.5 10t-24.5 25.5t-18.5 34t-7.5 32.5zM188 1317q53 43 129 71.5t164 28.5q70 0 128.5 -20.5t101.5 -58.5t66.5 -91t23.5 -119 q0 -63 -19.5 -117.5t-55.5 -103.5t-84 -97t-103 -97q-78 -70 -115 -138.5t-47 -160.5q-6 -25 -9 -52.5t-3 -44.5l-107 27v33q0 123 53.5 232.5t145.5 189.5q86 72 146.5 150.5t60.5 170.5q0 76 -51.5 129.5t-147.5 53.5q-80 0 -144.5 -31t-107.5 -72z" />
<glyph unicode="@" horiz-adv-x="1572" d="M115 539q0 166 65.5 311t177 251.5t260 168t316.5 61.5q135 0 243.5 -43t183.5 -116.5t116 -172t41 -211.5q0 -82 -28 -172t-78 -165.5t-122.5 -125t-163.5 -49.5q-61 0 -98 40t-37 118q-37 -72 -108.5 -115t-169.5 -43q-45 0 -87 17.5t-75 51.5t-52.5 83t-19.5 113 q0 109 42 196.5t108.5 151t149.5 97.5t167 34q80 0 135.5 -23.5t85.5 -52.5l-73 -426q-6 -35 -7 -55q0 -43 15.5 -62.5t38.5 -19.5q39 0 86 31.5t88 87t68.5 130.5t27.5 161q0 92 -34 172.5t-97 140t-152.5 94.5t-201.5 35q-141 0 -269.5 -54.5t-223.5 -147.5t-151.5 -220 t-56.5 -272q0 -113 36 -199t97.5 -143.5t144.5 -87t177 -29.5q135 0 227 65l-33 -118q-31 -20 -85 -33.5t-127 -13.5q-119 0 -219.5 39.5t-173 112.5t-113.5 176.5t-41 230.5zM596 543q0 -78 41 -122t104 -44q88 0 163 83t108 257l30 172q-14 10 -42.5 19.5t-61.5 9.5 q-63 0 -124.5 -28t-110 -78t-78 -118.5t-29.5 -150.5z" />
<glyph unicode="A" horiz-adv-x="1230" d="M-43 0l776 1333h43l305 -1333h-135l-84 373h-549l-215 -373h-141zM379 479h459l-88 402q-10 45 -18.5 96t-14.5 104h-4q-25 -53 -52.5 -104t-54.5 -96z" />
<glyph unicode="B" horiz-adv-x="1034" d="M45 0l229 1307h310q66 0 123 -19.5t99 -55.5t65.5 -87t23.5 -113q0 -47 -15.5 -93t-41 -86t-61.5 -70.5t-77 -47.5q47 -10 88 -36.5t72 -65.5t48.5 -88.5t17.5 -104.5q0 -102 -41 -183t-108.5 -138.5t-154.5 -88t-182 -30.5h-395zM201 113h231q68 0 132.5 24.5 t114.5 67.5t79.5 102t29.5 131q0 106 -76.5 167t-189.5 61h-223zM319 778h170q51 0 99.5 18.5t86.5 51.5t61.5 79t23.5 99q0 80 -58.5 124t-144.5 44h-164z" />
<glyph unicode="C" horiz-adv-x="1224" d="M98 551q0 162 62.5 304t176.5 247.5t271.5 166t345.5 60.5q92 0 173 -11t133 -34l-27 -119q-51 23 -128 34t-159 11q-154 0 -284 -53t-224 -142t-147 -208t-53 -250q0 -109 38.5 -195t104 -144t151.5 -89t181 -31q96 0 194.5 26t171.5 73l-35 -144q-59 -35 -149 -55.5 t-213 -20.5q-111 0 -216.5 38t-186 111t-131 179.5t-50.5 245.5z" />
<glyph unicode="D" horiz-adv-x="1296" d="M45 0l229 1307h328q141 0 258 -37t202 -107.5t131 -171t46 -225.5q0 -164 -64.5 -304t-178 -242.5t-269.5 -161t-340 -58.5h-342zM201 113h184q156 0 287 51t225 140t146.5 207t52.5 253q0 104 -38 184t-106.5 134.5t-164 83t-209.5 28.5h-185z" />
<glyph unicode="E" horiz-adv-x="940" d="M45 0l229 1307h682l-18 -113h-545l-84 -477h447l-21 -113h-446l-86 -491h616l-20 -113h-754z" />
<glyph unicode="F" horiz-adv-x="868" d="M45 0l229 1307h695l-19 -113h-557l-84 -477h475l-20 -113h-475l-107 -604h-137z" />
<glyph unicode="G" horiz-adv-x="1378" d="M98 551q0 162 62.5 304t176.5 247.5t271.5 166t345.5 60.5q211 0 336 -57l-26 -119q-55 27 -136 42t-182 15q-154 0 -284 -53t-224 -143t-147 -208t-53 -249q0 -109 38.5 -195t105.5 -144t151.5 -89t177.5 -31q106 0 196 24.5t148 65.5l57 328h-346l18 107h478l-86 -498 q-92 -76 -216 -112t-278 -36q-109 0 -214.5 38t-187 111t-132 179.5t-50.5 245.5z" />
<glyph unicode="H" horiz-adv-x="1306" d="M45 0l229 1307h138l-103 -590h750l102 590h137l-229 -1307h-137l106 604h-749l-107 -604h-137z" />
<glyph unicode="I" horiz-adv-x="489" d="M80 0l229 1307h137l-229 -1307h-137z" />
<glyph unicode="J" horiz-adv-x="516" d="M-254 -168q166 31 270.5 142.5t139.5 304.5l180 1028h137l-182 -1043q-20 -117 -67.5 -207t-110 -154.5t-136 -103.5t-147.5 -53z" />
<glyph unicode="K" horiz-adv-x="1044" d="M45 0l231 1307h136l-113 -629l674 629h164l-705 -656l490 -651h-158l-473 627l-111 -627h-135z" />
<glyph unicode="L" horiz-adv-x="909" d="M45 0l229 1307h138l-209 -1194h608l-20 -113h-746z" />
<glyph unicode="M" horiz-adv-x="1679" d="M25 0l333 1307h84l232 -734q29 -86 56.5 -180t49.5 -186h4q53 90 112.5 182t121.5 184l485 734h92l-120 -1307h-127l63 678q8 84 17.5 170t21.5 170h-4q-49 -82 -109.5 -174t-113.5 -174l-453 -684h-45l-213 684q-23 76 -50.5 168t-49.5 178h-4q-16 -84 -39 -174 t-41 -164l-174 -678h-129z" />
<glyph unicode="N" horiz-adv-x="1419" d="M45 0l229 1307h97l485 -701q55 -82 118.5 -177t115.5 -177l6 2q12 88 24.5 177t28.5 173l125 703h137l-233 -1336h-37l-516 744q-31 43 -64 93t-65.5 99t-63.5 97.5t-57 89.5l-4 -2q-12 -92 -27.5 -183.5t-32.5 -183.5l-129 -725h-137z" />
<glyph unicode="O" horiz-adv-x="1540" d="M96 543q0 172 67.5 316.5t179.5 248.5t255 162.5t297 58.5q121 0 228.5 -40t187.5 -113.5t126 -178t46 -233.5q0 -172 -67.5 -316.5t-180.5 -249t-256 -163t-297 -58.5q-121 0 -227.5 40t-186.5 114t-126 178.5t-46 233.5zM236 545q0 -102 35.5 -184t97 -140.5 t144.5 -90.5t179 -32q123 0 240 51.5t208 141.5t146 211t55 260q0 102 -35.5 185t-97 141.5t-144.5 90t-177 31.5q-123 0 -240 -52t-209 -142t-147 -211t-55 -260z" />
<glyph unicode="P" horiz-adv-x="925" d="M45 0l229 1307h361q70 0 130 -22.5t105 -63.5t70 -98.5t25 -125.5q0 -88 -36 -160.5t-96.5 -126t-141.5 -83t-169 -29.5h-235l-105 -598h-137zM307 711h215q61 0 116.5 23.5t98.5 62.5t67.5 91t24.5 107q0 92 -66.5 145.5t-164.5 53.5h-205z" />
<glyph unicode="Q" horiz-adv-x="1540" d="M96 543q0 172 67.5 316.5t179.5 248.5t255 162.5t297 58.5q121 0 228.5 -40t187.5 -113.5t126 -178t46 -233.5q0 -152 -54.5 -283t-145.5 -232.5t-210 -167t-250 -83.5l-2 -4q23 -6 50.5 -17.5t70.5 -33.5q90 -49 158.5 -71t140.5 -22q90 0 166 35l-90 -123 q-20 -6 -49 -11t-64 -5q-98 0 -182 26.5t-184 86.5q-66 39 -123.5 69.5t-102.5 53.5q-111 10 -205 55t-162.5 117.5t-108.5 171t-40 217.5zM236 545q0 -102 35.5 -184t97 -140.5t144.5 -90.5t179 -32q123 0 240 51.5t208 141.5t146 211t55 260q0 102 -35.5 185t-97 141.5 t-144.5 90t-177 31.5q-123 0 -240 -52t-209 -142t-147 -211t-55 -260z" />
<glyph unicode="R" horiz-adv-x="1079" d="M45 0l229 1307h371q70 0 130.5 -22.5t105.5 -63.5t69.5 -98.5t24.5 -125.5q0 -72 -24.5 -134t-67.5 -111.5t-101.5 -84t-126.5 -51.5l349 -616h-150l-330 598h-237l-105 -598h-137zM307 711h223q61 0 118 23.5t98.5 62.5t66.5 90t25 108q0 92 -65.5 145.5t-164.5 53.5 h-215z" />
<glyph unicode="S" horiz-adv-x="950" d="M14 49v127q66 -35 142.5 -57.5t175.5 -22.5q68 0 131 20.5t112.5 56.5t79 86t29.5 110q0 80 -48 139t-167 117q-135 66 -197.5 147.5t-62.5 202.5q0 74 35 139.5t94 112.5t141 74.5t174 27.5q78 0 145.5 -11t116.5 -32l-30 -112q-49 18 -109.5 28t-128.5 10 q-70 0 -126 -20.5t-96 -52t-61.5 -72.5t-21.5 -82q0 -90 45 -143.5t148 -100.5q141 -66 212.5 -150.5t71.5 -211.5q0 -86 -35.5 -159t-101.5 -127t-158 -85t-207 -31q-98 0 -169.5 18.5t-133.5 53.5z" />
<glyph unicode="T" horiz-adv-x="1064" d="M129 1194l18 113h1037l-19 -113h-450l-211 -1194h-137l211 1194h-449z" />
<glyph unicode="U" horiz-adv-x="1302" d="M117 360q0 23 2 47.5t6 49.5l149 850h138l-148 -846q-4 -25 -7 -46.5t-1 -41.5q0 -131 81 -202t232 -71q178 0 296 96.5t149 268.5l147 842h133l-149 -854q-20 -117 -71.5 -205t-127.5 -148.5t-174 -91.5t-211 -31q-98 0 -180 26t-140.5 75t-91 120.5t-32.5 161.5z" />
<glyph unicode="V" horiz-adv-x="1148" d="M166 1307h137l152 -701q16 -82 33.5 -171t31.5 -179h4q43 86 92.5 176t96.5 174l397 701h139l-755 -1327h-39z" />
<glyph unicode="W" horiz-adv-x="1886" d="M188 1307h134l118 -686q14 -80 26.5 -167t20.5 -175h5q41 88 85 175t85 167l354 686h119l116 -686q14 -82 25.5 -169t19.5 -173h4q37 84 82 172t88 170l357 686h137l-694 -1327h-41l-127 761q-16 90 -29.5 181.5t-25.5 201.5h-5q-49 -109 -96 -203t-92 -180l-397 -761 h-43z" />
<glyph unicode="X" horiz-adv-x="1128" d="M-37 0l545 670l-287 637h148l161 -359q18 -41 39 -88t35 -88h4q31 41 68 89t69 89l289 357h156l-518 -641l299 -666h-148l-170 375q-20 45 -39.5 92t-38.5 96h-4q-35 -49 -73.5 -98t-73.5 -90l-305 -375h-156z" />
<glyph unicode="Y" horiz-adv-x="1183" d="M158 1307h145l211 -400q25 -47 51.5 -99t48.5 -99h4q41 47 86.5 99t86.5 99l352 400h149l-624 -703l-107 -604h-135l106 604z" />
<glyph unicode="Z" horiz-adv-x="1011" d="M-43 0l6 31l584 776q72 98 151.5 200.5t145.5 186.5v2h-623l19 111h815l-6 -31l-584 -778q-72 -96 -153 -197.5t-146 -187.5l2 -2h706l-20 -111h-897z" />
<glyph unicode="[" horiz-adv-x="604" d="M-41 -446l330 1880h403l-16 -105h-277l-295 -1671h275l-17 -104h-403z" />
<glyph unicode="\" horiz-adv-x="1261" d="M190 1292l97 70l837 -1323l-100 -70z" />
<glyph unicode="]" horiz-adv-x="604" d="M-100 -446l18 104h275l294 1671h-274l16 105h404l-330 -1880h-403z" />
<glyph unicode="^" horiz-adv-x="774" d="M170 1106q100 41 192.5 111.5t167.5 156.5q45 -86 112 -156.5t153 -111.5l-95 -82q-61 31 -110 71t-88 93q-59 -53 -123 -93t-137 -71z" />
<glyph unicode="_" horiz-adv-x="1024" d="M-182 -473l20 106h1028l-18 -106h-1030z" />
<glyph unicode="`" horiz-adv-x="737" d="M313 1221l45 120q61 -78 155.5 -131t193.5 -82l-80 -71q-88 23 -169 60.5t-145 103.5z" />
<glyph unicode="a" d="M43 274q0 150 57.5 272t151.5 208t215 133t250 47q150 0 237 -16l-161 -918h-111l45 276l-6 3q-59 -137 -167 -217t-230 -80q-55 0 -106.5 19t-90.5 56t-61.5 91.5t-22.5 125.5zM174 281q0 -92 47 -141.5t127 -49.5q57 0 122 34t124 101.5t106.5 168t71.5 233.5l35 192 q-35 6 -100 6q-102 0 -198.5 -41t-170.5 -114.5t-119 -173t-45 -215.5z" />
<glyph unicode="b" horiz-adv-x="1042" d="M45 55l248 1403h129l-141 -788l6 -2q25 57 64.5 107t90 87t109.5 57.5t127 20.5q55 0 106.5 -21.5t90 -62.5t62.5 -101.5t24 -136.5q0 -141 -52.5 -258.5t-138.5 -202.5t-196.5 -132.5t-227.5 -47.5q-92 0 -173 25t-128 53zM186 125q23 -14 70 -26.5t100 -12.5 q88 0 174 42t153 113.5t107.5 170t40.5 211.5q0 98 -51 153t-137 55q-59 0 -124.5 -33.5t-125 -101t-106.5 -168t-70 -233.5z" />
<glyph unicode="c" horiz-adv-x="862" d="M55 330q0 131 54.5 243.5t144.5 195.5t207 131t241 48q41 0 77 -3t69 -11l-27 -109q-29 8 -58.5 9.5t-70.5 1.5q-100 0 -192 -43t-162 -112t-111 -158t-41 -181q0 -109 66.5 -178.5t179.5 -69.5q78 0 158 28t135 83l-37 -142q-45 -41 -116.5 -62t-159.5 -21 q-68 0 -132.5 22.5t-113.5 66.5t-80 109.5t-31 151.5z" />
<glyph unicode="d" horiz-adv-x="1042" d="M45 297q0 141 55.5 258t147.5 202t212 131t247 46q86 0 135 -6l96 530h129l-258 -1458h-111l47 276l-6 3q-59 -137 -170.5 -217t-240.5 -80q-55 0 -106.5 20.5t-90.5 60t-62.5 98t-23.5 136.5zM174 299q0 -98 51 -153.5t137 -55.5q59 0 124 34t124.5 101.5t106.5 168 t71 233.5l35 190q-23 4 -56.5 6t-70.5 2q-100 0 -194 -40t-167 -110.5t-117 -166.5t-44 -209z" />
<glyph unicode="e" horiz-adv-x="933" d="M72 375q0 125 52 229.5t134 181t181.5 119.5t195.5 43q113 0 176 -55.5t63 -153.5q0 -88 -51 -160.5t-141 -126t-212 -83t-263 -29.5q4 -119 75.5 -182.5t192.5 -63.5q139 0 250 94l-41 -147q-43 -31 -99.5 -46t-121.5 -15q-84 0 -155.5 24.5t-124 74.5t-82 123.5 t-29.5 172.5zM211 442q113 0 211 25t170 64.5t112.5 90t40.5 99.5q0 53 -28.5 83t-91.5 30q-61 0 -130 -30t-128.5 -82t-102.5 -124t-53 -156z" />
<glyph unicode="f" horiz-adv-x="634" d="M84 827l18 101h148l16 90q41 217 155 332.5t302 115.5q41 0 74.5 -3t58.5 -11l-27 -109q-20 8 -46.5 10.5t-69.5 2.5q-63 0 -115.5 -23.5t-92.5 -64.5t-66.5 -96.5t-37.5 -118.5l-20 -125h283l-27 -101h-275l-145 -827h-131l147 827h-149z" />
<glyph unicode="g" horiz-adv-x="933" d="M-76 -186q0 66 23.5 120t62.5 96t90.5 69.5t106.5 39.5l-101 97q12 47 59.5 89t96.5 56q-55 27 -92 83t-37 130q0 80 31 144.5t84 111.5t124.5 72.5t155.5 25.5q37 0 66 -5t49 -11q43 -14 113 -14q86 0 135 32l27 -98q-27 -16 -69 -24.5t-75 -8.5q18 -18 32.5 -54 t14.5 -77q0 -72 -28.5 -136.5t-81 -113.5t-126 -77.5t-161.5 -28.5q-78 0 -126 -24.5t-48 -53.5q0 -8 21.5 -28.5t50.5 -30.5l225 -82q90 -33 145.5 -93.5t55.5 -146.5q0 -74 -35 -137.5t-97.5 -109.5t-148.5 -72.5t-188 -26.5q-80 0 -145.5 22.5t-112 61.5t-72 91 t-25.5 112zM43 -174q0 -37 16.5 -72t48 -61.5t76.5 -43t105 -16.5q76 0 136 20.5t103 52.5t65.5 72t22.5 79q0 55 -35.5 94t-95.5 57l-168 53q-53 0 -103 -18t-88 -50t-60.5 -75t-22.5 -92zM254 604q0 -72 51 -118t137 -46q49 0 95.5 18.5t82 50.5t57 74t21.5 89 q0 72 -51 120t-135 48q-53 0 -100 -19.5t-82 -51.5t-55.5 -75t-20.5 -90z" />
<glyph unicode="h" horiz-adv-x="1028" d="M35 0l258 1458h129l-143 -786l6 -2q25 43 59.5 92t83.5 91t111.5 68.5t140.5 26.5q51 0 96 -16.5t79 -47t54.5 -75.5t20.5 -102q0 -31 -6 -64l-113 -643h-129l113 647q4 12 4 24.5v24.5q0 66 -36 105t-106 39q-68 0 -136 -37t-129.5 -111t-110 -184.5t-72.5 -255.5 l-45 -252h-129z" />
<glyph unicode="i" horiz-adv-x="471" d="M74 0l164 928h131l-164 -928h-131zM262 1198q0 14 12.5 32.5t30 35t35.5 29t31 12.5q12 0 24.5 -9.5t22.5 -23.5t17 -31t7 -29q0 -14 -12 -32.5t-28.5 -35t-35 -27.5t-30.5 -11t-25.5 9t-24 22.5t-17.5 30t-7 28.5z" />
<glyph unicode="j" horiz-adv-x="471" d="M-201 -391q104 35 173 120t91 220l175 979h129l-174 -989q-14 -78 -44 -144.5t-72 -120t-92.5 -90.5t-105.5 -55zM262 1198q0 14 12.5 32.5t28.5 35t34.5 29t31.5 12.5q12 0 24.5 -9.5t23.5 -23.5t17 -31t6 -29q0 -14 -12 -32.5t-28.5 -35t-35 -27.5t-30.5 -11t-24.5 9 t-23 22.5t-17.5 30t-7 28.5z" />
<glyph unicode="k" horiz-adv-x="872" d="M35 0l258 1458h129l-170 -973l487 443h160l-512 -463l375 -465h-158l-360 451l-80 -451h-129z" />
<glyph unicode="l" horiz-adv-x="518" d="M106 160q0 29 7 63l219 1235h129l-221 -1247q-2 -12 -3 -22.5t-1 -20.5q0 -47 23.5 -76t62.5 -39l-82 -84q-53 12 -93.5 59.5t-40.5 131.5z" />
<glyph unicode="m" horiz-adv-x="1554" d="M25 0l163 928h111l-39 -248l6 -2q25 45 56.5 93t75.5 87t101.5 64.5t131.5 25.5q39 0 78 -13t67.5 -39t47 -63.5t18.5 -87.5q0 -35 -8 -67l6 -2q23 41 56.5 89t81.5 89t108.5 67.5t136.5 26.5q47 0 90 -17.5t74.5 -49t50 -76.5t18.5 -100q0 -29 -6 -60l-113 -645h-129 l113 647q2 10 3 23.5t1 23.5q0 61 -29.5 103.5t-93.5 42.5q-66 0 -128 -36t-116.5 -106.5t-96.5 -176t-66 -247.5l-50 -274h-129l113 647q2 10 3 23.5t1 23.5q0 61 -29.5 103.5t-91.5 42.5q-133 0 -245.5 -141.5t-163.5 -424.5l-49 -274h-129z" />
<glyph unicode="n" d="M25 0l163 928h111l-45 -277l6 -2q27 51 64.5 104.5t89 96.5t115 70.5t141.5 27.5q51 0 96 -16.5t79 -47t54.5 -75.5t20.5 -102q0 -31 -7 -64l-112 -643h-129l112 647q4 12 4 24.5v22.5q0 66 -35.5 106t-105.5 40q-68 0 -136.5 -37t-130 -111t-109.5 -184.5t-72 -255.5 l-45 -252h-129z" />
<glyph unicode="o" horiz-adv-x="1099" d="M66 352q0 121 45 229.5t122.5 189.5t181 129t218.5 48q174 0 271 -102.5t97 -272.5q0 -121 -45 -228t-122.5 -189t-181 -129t-218.5 -47q-174 0 -271 101t-97 271zM197 362q0 -125 63.5 -196.5t190.5 -71.5q82 0 157.5 39t134 104.5t93 149.5t34.5 176q0 125 -63.5 198 t-188.5 73q-84 0 -159.5 -39t-134 -104.5t-93 -150.5t-34.5 -178z" />
<glyph unicode="p" horiz-adv-x="1042" d="M-49 -473l248 1401h110l-47 -277l6 -2q59 137 171 217t241 80q55 0 106.5 -21.5t90 -61.5t62.5 -100t24 -136q0 -141 -54.5 -259t-144.5 -204t-208 -133t-243 -47q-53 0 -86.5 5t-60.5 15l-86 -477h-129zM184 113q43 -20 140 -21q96 0 187 42t162.5 113.5t116 170 t44.5 211.5q0 98 -51.5 153.5t-137.5 55.5q-59 0 -123.5 -34t-124 -101.5t-106.5 -168t-72 -233.5z" />
<glyph unicode="q" horiz-adv-x="1034" d="M45 301q0 141 57.5 259t151.5 203t214 132t247 47q72 0 136 -6t112 -18l-246 -1391h-131l131 723l-4 2q-27 -57 -66 -106.5t-90 -86t-110.5 -57t-127.5 -20.5q-55 0 -105 21.5t-88 61t-59.5 99t-21.5 137.5zM176 305q0 -98 47 -153.5t133 -55.5q59 0 125 34t125.5 101.5 t106.5 168t69 233.5l35 201q-23 4 -51.5 5t-63.5 1q-98 0 -193 -41t-169 -114t-119 -170t-45 -210z" />
<glyph unicode="r" horiz-adv-x="686" d="M45 0l164 928h110l-51 -324l4 -2q18 55 55.5 115.5t88.5 110t116.5 81t139.5 31.5l26 -109h-32q-68 0 -138.5 -46t-133 -126.5t-112 -193.5t-71.5 -246l-37 -219h-129z" />
<glyph unicode="s" horiz-adv-x="733" d="M-20 25v125q49 -29 103 -44.5t132 -15.5q100 0 168 50t68 132q0 47 -27 84t-86 64q-111 47 -159 102.5t-48 132.5q0 74 29.5 129.5t78 91t110 54t126.5 18.5q61 0 113.5 -10t79.5 -25l-27 -100q-57 29 -172 29q-88 0 -150.5 -46t-62.5 -124q0 -41 23.5 -72t82.5 -57 q119 -51 169.5 -109.5t50.5 -152.5q0 -63 -28 -119t-79 -95.5t-120.5 -63t-151.5 -23.5q-72 0 -124 11t-99 34z" />
<glyph unicode="t" horiz-adv-x="702" d="M78 827l16 101h193l35 200l141 68l-47 -268h313l-24 -101h-308l-102 -596q-4 -21 -4 -38q-1 -41 19 -63q28 -32 75 -32q31 0 51.5 7.5t42.5 23.5l-30 -119q-33 -20 -103 -20q-43 0 -81 16.5t-63.5 48t-35.5 78.5q-5 24 -5 50.5t5 56.5l102 587h-190z" />
<glyph unicode="u" d="M70 221q0 29 6 64l112 643h129l-112 -647q-4 -14 -4 -25.5v-24.5q0 -63 35.5 -103t105.5 -40q68 0 136.5 37t130 110.5t109.5 184t73 256.5l45 252h129l-164 -928h-111l45 276l-6 3q-27 -51 -64.5 -104.5t-89 -96.5t-115 -70.5t-141.5 -27.5q-51 0 -96 15t-78.5 46 t-54 76t-20.5 104z" />
<glyph unicode="v" horiz-adv-x="940" d="M123 928h127l112 -475q14 -57 25.5 -117t22.5 -119h4q29 59 62.5 118.5t68.5 117.5l278 475h129l-559 -946h-45z" />
<glyph unicode="w" horiz-adv-x="1456" d="M133 928h121l86 -463q10 -59 20.5 -118.5t14.5 -113.5h4q27 53 56.5 113t60.5 117l249 465h99l88 -463q10 -57 19.5 -114.5t15.5 -117.5h4q29 59 58.5 118t57.5 112l250 465h121l-512 -946h-41l-96 505q-25 123 -43 258h-4q-33 -70 -64.5 -132t-64.5 -121l-277 -510h-43z " />
<glyph unicode="x" horiz-adv-x="888" d="M-27 0l385 473l-202 455h137l106 -238q12 -29 24.5 -58.5t22.5 -58.5h5q20 29 43.5 60t48.5 59l188 236h146l-371 -459l211 -469h-137l-113 248q-14 31 -25.5 61.5t-21.5 63.5h-4q-23 -35 -50.5 -69t-50.5 -62l-196 -242h-146z" />
<glyph unicode="y" horiz-adv-x="968" d="M-127 -397q111 53 224.5 162.5t232.5 304.5l-211 858h133l117 -473q14 -59 27.5 -115.5t25.5 -116.5h4q31 57 66.5 115.5t70.5 118.5l283 471h141l-510 -848q-76 -125 -145.5 -217t-134 -158.5t-126 -111t-118.5 -70.5z" />
<glyph unicode="z" horiz-adv-x="831" d="M-43 0l6 25l420 532q47 63 105.5 135t107.5 129l-4 2h-453l21 105h643l-4 -25l-420 -534q-57 -72 -108.5 -134.5t-104.5 -128.5l4 -2h524l-18 -104h-719z" />
<glyph unicode="{" horiz-adv-x="675" d="M20 492q117 66 177.5 178t87.5 258q18 104 52 196.5t89 161t133 107.5t184 39l11 -103q-74 0 -131.5 -30.5t-99.5 -85t-69.5 -131t-43.5 -169.5q-27 -139 -82.5 -245.5t-155.5 -184.5q98 -100 98 -272q0 -37 -3 -77t-11 -81q-6 -43 -11 -82t-5 -73q0 -117 50 -182.5 t167 -65.5l-43 -99q-78 0 -134.5 27t-93 73t-54 108.5t-17.5 136.5q0 39 4 77.5t12 83.5q14 78 14 154q0 92 -28.5 162.5t-96.5 118.5z" />
<glyph unicode="|" horiz-adv-x="440" d="M-16 -473l342 1931h112l-342 -1931h-112z" />
<glyph unicode="}" horiz-adv-x="675" d="M-98 -346q74 0 131 30.5t99 85t70.5 131t45.5 169.5q25 139 80 245.5t157 184.5q-100 102 -100 272q0 37 3 77t11 81q8 43 12.5 82t4.5 73q0 117 -50.5 182.5t-166.5 65.5l45 99q76 0 132 -27t93 -73t54.5 -108.5t17.5 -136.5q0 -78 -15 -161q-14 -78 -14 -154 q0 -92 28.5 -162.5t96.5 -117.5q-117 -66 -177.5 -178.5t-86.5 -258.5q-18 -104 -52 -196t-89.5 -161t-134.5 -108t-185 -39z" />
<glyph unicode="~" horiz-adv-x="798" d="M102 475l41 107q68 39 143.5 66.5t153.5 31.5l13 -115q59 4 126.5 31t125.5 59l-41 -104q-68 -43 -144 -68.5t-153 -29.5l-13 112q-57 -4 -124.5 -29.5t-127.5 -60.5z" />
<glyph unicode="&#xa1;" horiz-adv-x="483" d="M53 -86l211 1077l105 -28l-164 -1049h-152zM260 1208q0 14 13.5 35t32 40.5t37.5 32.5t34 13q12 0 25.5 -10t25.5 -25.5t19.5 -34t7.5 -32.5t-13.5 -35t-32 -40t-39 -32.5t-32.5 -13.5t-26.5 10t-26 25.5t-18.5 33t-7 33.5z" />
<glyph unicode="&#xa2;" horiz-adv-x="862" d="M123 700q0 121 47 227.5t126 187.5t182.5 133t217.5 65l35 196h86l-35 -190q37 -2 70 -5t63 -9l-24 -109q-29 6 -59.5 8t-71.5 2q-100 0 -192.5 -43t-162 -111.5t-110.5 -157.5t-41 -181q0 -111 66.5 -179.5t179.5 -68.5q84 0 158.5 26.5t134.5 83.5l-37 -141 q-51 -51 -142 -69l-34 -197h-86l32 184q-10 -2 -21 -2h-24q-68 0 -132 21.5t-114.5 65.5t-81 109.5t-30.5 153.5z" />
<glyph unicode="&#xa3;" horiz-adv-x="868" d="M-12 31q70 86 117 197.5t75 267.5l21 112h-150l15 86h149l33 187q43 231 158.5 337.5t300.5 106.5q43 0 81.5 -9t67.5 -22l-27 -110q-29 14 -67.5 22t-79.5 8q-57 0 -106.5 -21.5t-88 -61t-65.5 -95t-39 -123.5l-39 -219h307l-20 -86h-303l-21 -121q-25 -137 -59.5 -233 t-73.5 -150q41 10 105.5 16.5t123.5 6.5q76 0 156 -11.5t152 -35.5l-27 -107q-61 25 -139 37.5t-162 12.5q-86 0 -169 -13.5t-136 -29.5z" />
<glyph unicode="&#xa4;" horiz-adv-x="1003" d="M45 225l160 135q-16 31 -26.5 67t-10.5 77q0 76 29.5 141.5t78.5 118.5l-112 137l69 60l113 -138q47 33 102.5 51.5t112.5 18.5q59 0 106.5 -18.5t82.5 -51.5l163 138l54 -66l-162 -137q35 -57 35 -140q0 -76 -30 -142t-81 -120l16 -20t18.5 -21.5t20.5 -23.5 q25 -29 58 -68l-72 -57l-111 133q-47 -33 -102 -50.5t-113 -17.5q-55 0 -101 17.5t-81 46.5l-164 -135zM252 512q0 -88 54 -143.5t147 -55.5q57 0 112.5 24.5t98.5 66.5t68.5 95.5t25.5 110.5q0 86 -57.5 142.5t-149.5 56.5q-57 0 -111.5 -24.5t-95.5 -66.5t-66.5 -95.5 t-25.5 -110.5z" />
<glyph unicode="&#xa5;" horiz-adv-x="1185" d="M158 1307h145l211 -400q25 -47 51.5 -99t48.5 -99h4q41 47 86.5 99t86.5 99l352 400h149l-477 -537h184l-14 -86h-246l-71 -80l-6 -37h303l-15 -86h-303l-86 -481h-135l86 481h-311l14 86h311l6 35l-40 82h-256l14 86h194z" />
<glyph unicode="&#xa6;" horiz-adv-x="440" d="M-16 -473l149 844h113l-150 -844h-112zM176 614l150 844h112l-149 -844h-113z" />
<glyph unicode="&#xa7;" horiz-adv-x="927" d="M18 -385l29 117q41 -29 110.5 -48.5t141.5 -19.5q70 0 122 23.5t86 59.5t50 78t16 81q0 59 -30 98l-424 533l121 264q-23 29 -35 69.5t-12 87.5q0 68 26.5 133.5t78.5 118t130 85t182 32.5q86 0 155 -18.5t116 -51.5l-29 -116q-41 29 -110.5 48t-141.5 19 q-70 0 -122 -23.5t-86 -59t-50 -77.5t-16 -81q0 -29 6 -52.5t24 -46.5l422 -532l-116 -264q20 -27 33.5 -69t13.5 -89q0 -68 -27 -133.5t-80 -117.5t-132 -85t-181 -33q-86 0 -153.5 18.5t-117.5 51.5zM223 596l379 -471l74 156l-381 469z" />
<glyph unicode="&#xa8;" horiz-adv-x="737" d="M287 1153q0 14 12 32.5t28.5 36t36 30t31.5 12.5t24.5 -9.5t23 -23.5t16.5 -31t6 -31t-12.5 -33.5t-28.5 -36t-34.5 -28.5t-31.5 -12q-12 0 -24 9t-23.5 23.5t-17.5 31t-6 30.5zM571 1153q0 14 12.5 32.5t29 36t35 30t30.5 12.5t24.5 -9.5t23.5 -23.5t17.5 -31t6.5 -31 t-12.5 -33.5t-29 -36t-35 -28.5t-30.5 -12t-24.5 9t-23.5 23.5t-17.5 31t-6.5 30.5z" />
<glyph unicode="&#xa9;" horiz-adv-x="1230" d="M55 416q0 135 53.5 251.5t142.5 200.5t205.5 132.5t243.5 48.5q100 0 186.5 -32t148 -89.5t96 -138.5t34.5 -179q0 -135 -53 -251.5t-142 -201.5t-206 -133.5t-244 -48.5q-102 0 -187 32t-146.5 90.5t-96.5 139t-35 179.5zM141 420q0 -82 28 -149.5t78 -116t120.5 -75 t156.5 -26.5q111 0 212.5 43t178 118t121.5 175t45 215q0 84 -28.5 151.5t-79.5 116t-123 74t-158 25.5q-111 0 -211 -42t-176 -116t-120 -174t-44 -219zM354 430q0 78 32 145.5t86 117.5t124 79t143 29q31 0 56.5 -4t48.5 -11l-21 -90q-41 10 -90 11q-53 0 -103 -25 t-89 -62.5t-61.5 -86t-22.5 -95.5q0 -59 35.5 -94t89.5 -35q59 0 105 20.5t79 55.5l-29 -123q-55 -49 -168 -49q-39 0 -76.5 13.5t-68.5 41t-50.5 67.5t-19.5 95z" />
<glyph unicode="&#xaa;" horiz-adv-x="849" d="M119 793q0 119 46 216t121.5 165.5t173 106.5t202.5 38q59 0 108 -5t84 -11l-131 -730h-92l33 211q-49 -104 -134.5 -166.5t-183.5 -62.5q-45 0 -86 15.5t-72.5 46t-50 74.5t-18.5 102zM231 795q0 -74 37 -111t97 -37q45 0 97 25.5t98 78t84 131.5t56 187l29 154 q-14 2 -32.5 3t-43.5 1q-82 0 -157.5 -33t-134 -90t-94.5 -136t-36 -173zM309 301q0 14 12.5 32.5t29 36t34.5 30t31 12.5q12 0 24.5 -9.5t23.5 -23.5t17 -31t6 -31t-12 -32.5t-28.5 -36t-36 -29.5t-31.5 -12t-24.5 9t-22.5 23.5t-16.5 31t-6.5 30.5z" />
<glyph unicode="&#xab;" horiz-adv-x="849" d="M14 567q113 68 213.5 159t171.5 187l62 -77q-51 -78 -121 -150t-145 -125q55 -53 101 -123.5t69 -148.5l-86 -68q-37 96 -106 188.5t-159 157.5zM401 567q115 68 216.5 159t170.5 187l62 -77q-51 -78 -119.5 -150t-146.5 -125q57 -53 102 -123.5t68 -148.5l-86 -68 q-37 96 -105.5 188.5t-161.5 157.5z" />
<glyph unicode="&#xac;" horiz-adv-x="1040" d="M86 518l18 105h820l-60 -330h-116l40 225h-702z" />
<glyph unicode="&#xad;" horiz-adv-x="882" d="M106 514l17 96h659l-18 -96h-658z" />
<glyph unicode="&#xae;" horiz-adv-x="925" d="M141 879q0 96 38 179t101.5 143.5t145.5 94t172 33.5q72 0 132.5 -23.5t104.5 -64.5t68.5 -98t24.5 -127q0 -98 -38 -181t-100.5 -143.5t-145.5 -95.5t-173 -35q-72 0 -132 23.5t-104.5 64.5t-69 99.5t-24.5 130.5zM209 881q0 -115 72.5 -184.5t195.5 -69.5 q76 0 146.5 29.5t124 80.5t85 122t31.5 151q0 115 -75.5 184.5t-198.5 69.5q-78 0 -146.5 -30t-121 -81t-83 -120.5t-30.5 -151.5zM362 711l84 467h134q53 0 93 -33t40 -84q0 -53 -34 -91t-73 -50l88 -168l-65 -41l-97 196h-57l-37 -196h-76zM483 971h60q35 0 63.5 21.5 t28.5 66.5q0 27 -19.5 40t-46.5 13h-59z" />
<glyph unicode="&#xaf;" horiz-adv-x="737" d="M330 1079l18 113h350l-18 -113h-350z" />
<glyph unicode="&#xb0;" horiz-adv-x="493" d="M156 1110q0 45 18.5 85t50 70.5t72.5 49t84 18.5q72 0 121 -46t49 -118q0 -47 -18.5 -87t-50 -70.5t-72.5 -48t-86 -17.5q-70 0 -119 46t-49 118zM236 1114q0 -43 26.5 -67.5t69.5 -24.5q57 0 97 42t40 101q0 41 -26.5 66.5t-67.5 25.5q-57 0 -98 -43t-41 -100z" />
<glyph unicode="&#xb1;" horiz-adv-x="1740" d="M84 827l18 101h148l6 37q41 242 173 355.5t321 113.5q47 0 83.5 -4.5t69.5 -14.5l-24 -108q-27 10 -63 13t-75 3q-141 0 -232 -87t-118 -245l-10 -63h493l11 61q41 223 183 350t378 127q66 0 128 -7t105 -23l-217 -1225q-2 -12 -3 -22.5t-1 -20.5q0 -47 23.5 -76 t64.5 -39l-84 -84q-53 12 -93 59.5t-40 131.5q0 29 6 63l199 1123q-45 10 -109 10q-84 0 -153.5 -28t-121.5 -75t-86 -109.5t-46 -131.5l-14 -84h237l-16 -101h-240l-145 -827h-129l145 827h-494l-145 -827h-131l147 827h-149z" />
<glyph unicode="&#xb2;" horiz-adv-x="729" d="M70 506l4 29q276 205 394 345t118 230q0 68 -44 102.5t-124 34.5q-53 0 -100.5 -14t-84.5 -37l-24 80q37 23 96.5 38t122.5 15q123 0 189.5 -60.5t66.5 -154.5q0 -113 -104.5 -246t-296.5 -280h350l-17 -82h-546z" />
<glyph unicode="&#xb3;" horiz-adv-x="649" d="M96 530v95q41 -27 86 -37t84 -10q45 0 87 16t75 44t53.5 66.5t20.5 86.5q0 57 -39 94t-101 37q-10 0 -20 -1t-18 -6l-23 82q88 16 145.5 62.5t57.5 99.5q0 88 -115 88q-35 0 -72.5 -9t-72.5 -30l-23 82q82 39 178 39q92 0 147.5 -47t55.5 -121q0 -53 -38 -101t-97 -77 q53 -16 93 -66.5t40 -119.5q0 -61 -24.5 -116.5t-68.5 -96.5t-107.5 -64.5t-141.5 -23.5q-43 0 -87 9t-75 25z" />
<glyph unicode="&#xb4;" horiz-adv-x="737" d="M297 1128q109 29 222.5 82.5t203.5 130.5l4 -120q-88 -66 -179 -104t-190 -60z" />
<glyph unicode="&#xb5;" horiz-adv-x="1126" d="M-16 0l163 928h967l-164 -928h-966zM47 51h387q-47 23 -68.5 54.5t-31.5 70.5l-164 572zM227 795l430 -365q-115 -41 -171 -110.5t-56 -135.5q0 -47 22.5 -78.5t57.5 -54.5h395l133 744h-811z" />
<glyph unicode="&#xb6;" horiz-adv-x="835" d="M115 -381q88 16 164.5 84t97.5 182l133 756h-23q-66 0 -124 17.5t-102 51t-69.5 84t-25.5 117.5q0 98 39 174t101.5 127.5t141 78t160.5 26.5h291l-18 -103h-140l-237 -1339q-12 -68 -42 -124t-71 -101t-90 -75t-100 -42z" />
<glyph unicode="&#xb7;" horiz-adv-x="382" d="M94 545q0 14 12.5 34.5t31 40t38 33t33.5 13.5q12 0 25.5 -10.5t25.5 -26t19.5 -34t7.5 -32.5t-13.5 -34.5t-32 -40t-38 -33t-33.5 -13.5q-12 0 -25.5 10.5t-24.5 26t-18.5 32.5t-7.5 34z" />
<glyph unicode="&#xb8;" horiz-adv-x="737" d="M31 -416l24 78q29 -23 60.5 -32t70.5 -9q49 0 94.5 36t45.5 99q0 47 -33 70.5t-74 23.5h-23.5t-25.5 -2l66 156h63l-33 -78q29 -2 56.5 -14t50 -33.5t37 -52.5t14.5 -68q0 -53 -22.5 -94t-58.5 -68.5t-79 -42t-82 -14.5q-47 0 -84 12.5t-67 32.5z" />
<glyph unicode="&#xb9;" horiz-adv-x="524" d="M203 1221l37 88l243 20l-145 -821h-96l129 725z" />
<glyph unicode="&#xba;" horiz-adv-x="944" d="M156 852q0 96 36.5 183t98 152.5t144.5 103.5t175 38q141 0 220 -82t79 -219q0 -96 -36.5 -181t-99 -150.5t-145.5 -103.5t-175 -38q-139 0 -218 81t-79 216zM268 860q0 -98 49.5 -152.5t149.5 -54.5q63 0 122.5 31t105.5 81t73 116.5t27 140.5q0 98 -48.5 153.5 t-146.5 55.5q-66 0 -125 -31t-105 -82t-74 -117.5t-28 -140.5zM350 301q0 14 12.5 32.5t29 36t35.5 30t32 12.5q12 0 24.5 -9.5t22.5 -23.5t16 -31t6 -31t-12 -32.5t-28.5 -36t-36 -29.5t-31.5 -12t-24.5 9t-23 23.5t-16.5 31t-6 30.5z" />
<glyph unicode="&#xbb;" horiz-adv-x="849" d="M8 299q49 80 120 150.5t146 123.5q-57 53 -102 124t-68 149l86 67q35 -96 105 -187t162 -159q-115 -66 -217.5 -158t-171.5 -188zM397 299q51 80 121 150.5t144 123.5q-55 53 -100.5 124t-67.5 149l86 67q37 -96 105.5 -187t160.5 -159q-115 -66 -216.5 -158t-172.5 -188 z" />
<glyph unicode="&#xbc;" horiz-adv-x="1474" d="M25 23l1308 1323l64 -60l-1311 -1325zM203 1221l37 88l243 20l-145 -821h-96l129 725zM729 317l485 496h82l-86 -494h109l-14 -81h-109l-43 -238h-96l43 238h-361zM840 319h274l41 240q6 29 12.5 58.5t14.5 60.5l-4 2q-25 -31 -52.5 -61.5t-56.5 -61.5z" />
<glyph unicode="&#xbd;" horiz-adv-x="1605" d="M25 23l1308 1323l64 -60l-1311 -1325zM203 1221l37 88l243 20l-145 -821h-96l129 725zM858 0l4 27q276 205 394 346t118 231q0 68 -44 102.5t-124 34.5q-53 0 -100 -15t-84 -38l-25 82q37 23 96.5 38t123.5 15q123 0 189.5 -60.5t66.5 -156.5q0 -113 -104.5 -245 t-297.5 -279h350l-16 -82h-547z" />
<glyph unicode="&#xbe;" horiz-adv-x="1566" d="M96 530v95q41 -27 86 -37t84 -10q45 0 87 16t75 44t53.5 66.5t20.5 86.5q0 57 -39 94t-101 37q-10 0 -20 -1t-18 -6l-23 82q88 16 145.5 62.5t57.5 99.5q0 88 -115 88q-35 0 -72.5 -9t-72.5 -30l-23 82q82 39 178 39q92 0 147.5 -47t55.5 -121q0 -53 -38 -101t-97 -77 q53 -16 93 -66.5t40 -119.5q0 -61 -24.5 -116.5t-68.5 -96.5t-107.5 -64.5t-141.5 -23.5q-43 0 -87 9t-75 25zM135 23l1309 1323l63 -60l-1310 -1325zM838 317l485 496h82l-88 -494h110l-14 -81h-110l-41 -238h-97l43 238h-360zM948 319h275l41 240q6 29 12 58.5t14 60.5 l-4 2q-25 -31 -52.5 -61.5t-55.5 -61.5z" />
<glyph unicode="&#xbf;" horiz-adv-x="784" d="M23 180q0 63 19 117.5t55 105t84 98.5t104 97q78 68 118.5 143.5t45.5 167.5q4 29 7 48.5t3 35.5l106 -28v-36t-4 -40q-10 -117 -62.5 -212t-131.5 -165q-86 -72 -146.5 -151.5t-60.5 -172.5q0 -74 51 -127t147 -53q80 0 144.5 31t109.5 70l23 -115q-53 -43 -129 -73 t-164 -30q-70 0 -128 20.5t-101 59.5t-66.5 91.5t-23.5 117.5zM451 1208q0 14 13 35t31.5 40.5t38 32.5t33.5 13q12 0 25.5 -10t25 -25.5t18.5 -34t7 -32.5t-12.5 -35t-30.5 -40t-37.5 -32.5t-34.5 -13.5q-12 0 -25.5 10t-25.5 25.5t-19 34t-7 32.5z" />
<glyph unicode="&#xc0;" horiz-adv-x="1230" d="M-43 0l776 1333h43l305 -1333h-135l-84 373h-549l-215 -373h-141zM379 479h459l-88 402q-10 45 -18.5 96t-14.5 104h-4q-25 -53 -52.5 -104t-54.5 -96zM489 1631l45 120q61 -78 155.5 -131t193.5 -82l-80 -71q-88 23 -169 60.5t-145 103.5z" />
<glyph unicode="&#xc1;" horiz-adv-x="1230" d="M-43 0l776 1333h43l305 -1333h-135l-84 373h-549l-215 -373h-141zM379 479h459l-88 402q-10 45 -18.5 96t-14.5 104h-4q-25 -53 -52.5 -104t-54.5 -96zM645 1538q109 29 222.5 82.5t203.5 130.5l4 -120q-88 -66 -179 -104t-190 -60z" />
<glyph unicode="&#xc2;" horiz-adv-x="1230" d="M-43 0l776 1333h43l305 -1333h-135l-84 373h-549l-215 -373h-141zM379 479h459l-88 402q-10 45 -18.5 96t-14.5 104h-4q-25 -53 -52.5 -104t-54.5 -96zM512 1536q86 35 163.5 95.5t143.5 132.5q37 -72 94 -132.5t131 -95.5l-78 -69q-55 29 -97 61.5t-75 79.5 q-49 -47 -103 -80t-118 -61z" />
<glyph unicode="&#xc3;" horiz-adv-x="1230" d="M-43 0l776 1333h43l305 -1333h-135l-84 373h-549l-215 -373h-141zM379 479h459l-88 402q-10 45 -18.5 96t-14.5 104h-4q-25 -53 -52.5 -104t-54.5 -96zM481 1491l43 107q66 39 141.5 66.5t153.5 31.5l12 -115q59 4 127 31t127 60l-43 -105q-66 -43 -141.5 -68.5 t-153.5 -29.5l-12 112q-59 -4 -126.5 -29.5t-127.5 -60.5z" />
<glyph unicode="&#xc4;" horiz-adv-x="1230" d="M-43 0l776 1333h43l305 -1333h-135l-84 373h-549l-215 -373h-141zM379 479h459l-88 402q-10 45 -18.5 96t-14.5 104h-4q-25 -53 -52.5 -104t-54.5 -96zM561 1563q0 14 12 32.5t28.5 36t36 30t31.5 12.5t24.5 -9.5t23 -23.5t16.5 -31t6 -31t-12.5 -33.5t-28.5 -36 t-34.5 -28.5t-31.5 -12q-12 0 -24 9t-23.5 23.5t-17.5 31t-6 30.5zM845 1563q0 14 12.5 32.5t29 36t35 30t30.5 12.5t24.5 -9.5t23.5 -23.5t17.5 -31t6.5 -31t-12.5 -33.5t-29 -36t-35 -28.5t-30.5 -12t-24.5 9t-23.5 23.5t-17.5 31t-6.5 30.5z" />
<glyph unicode="&#xc5;" horiz-adv-x="1230" d="M-43 0l776 1333h43l305 -1333h-135l-84 373h-549l-215 -373h-141zM379 479h459l-88 402q-10 45 -18.5 96t-14.5 104h-4q-25 -53 -52.5 -104t-54.5 -96zM600 1622q0 47 19 90.5t53 75t76 51t89 19.5q37 0 70 -13.5t57.5 -37t38.5 -55t14 -68.5q0 -49 -19.5 -92t-53 -76 t-76.5 -51.5t-88 -18.5q-76 0 -128 51.5t-52 124.5zM688 1627q0 -45 26.5 -71t71.5 -26q59 0 101 44.5t42 103.5q0 47 -26.5 71.5t-71.5 24.5q-59 0 -101 -44t-42 -103z" />
<glyph unicode="&#xc6;" horiz-adv-x="1638" d="M-55 0l987 1307h729l-19 -113h-542l-84 -477h444l-20 -113h-445l-86 -491h615l-21 -113h-751l67 383h-444l-291 -383h-139zM449 489h389l82 463q10 66 20 118t23 114l-5 2q-37 -59 -79.5 -119.5t-83.5 -118.5z" />
<glyph unicode="&#xc7;" horiz-adv-x="1224" d="M98 551q0 162 62.5 304t176.5 247.5t271.5 166t345.5 60.5q92 0 173 -11t133 -34l-27 -119q-51 23 -128 34t-159 11q-154 0 -284 -53t-224 -142t-147 -208t-53 -250q0 -109 38.5 -195t104 -144t151.5 -89t181 -31q96 0 194.5 26t171.5 73l-35 -144q-59 -35 -143 -54 t-201 -22l-22 -51q59 -4 108.5 -48t49.5 -120q0 -53 -22.5 -94t-58.5 -68.5t-79 -42t-82 -14.5q-45 0 -83 12.5t-67 32.5l23 78q31 -23 61.5 -32t69.5 -9q49 0 95 36t46 99q0 47 -33.5 70.5t-74.5 23.5h-23.5t-25.5 -2l55 132q-104 8 -201.5 49t-172.5 112.5t-120 175 t-45 234.5z" />
<glyph unicode="&#xc8;" horiz-adv-x="940" d="M45 0l229 1307h682l-18 -113h-545l-84 -477h447l-21 -113h-446l-86 -491h616l-20 -113h-754zM364 1631l45 120q61 -78 155.5 -131t193.5 -82l-80 -71q-88 23 -169 60.5t-145 103.5z" />
<glyph unicode="&#xc9;" horiz-adv-x="940" d="M45 0l229 1307h682l-18 -113h-545l-84 -477h447l-21 -113h-446l-86 -491h616l-20 -113h-754zM526 1538q109 29 222.5 82.5t203.5 130.5l4 -120q-88 -66 -179 -104t-190 -60z" />
<glyph unicode="&#xca;" horiz-adv-x="940" d="M45 0l229 1307h682l-18 -113h-545l-84 -477h447l-21 -113h-446l-86 -491h616l-20 -113h-754zM398 1536q86 35 163.5 95.5t143.5 132.5q37 -72 94 -132.5t131 -95.5l-78 -69q-55 29 -97 61.5t-75 79.5q-49 -47 -103 -80t-118 -61z" />
<glyph unicode="&#xcb;" horiz-adv-x="940" d="M45 0l229 1307h682l-18 -113h-545l-84 -477h447l-21 -113h-446l-86 -491h616l-20 -113h-754zM439 1563q0 14 12 32.5t28.5 36t36 30t31.5 12.5t24.5 -9.5t23 -23.5t16.5 -31t6 -31t-12.5 -33.5t-28.5 -36t-34.5 -28.5t-31.5 -12q-12 0 -24 9t-23.5 23.5t-17.5 31t-6 30.5 zM723 1563q0 14 12.5 32.5t29 36t35 30t30.5 12.5t24.5 -9.5t23.5 -23.5t17.5 -31t6.5 -31t-12.5 -33.5t-29 -36t-35 -28.5t-30.5 -12t-24.5 9t-23.5 23.5t-17.5 31t-6.5 30.5z" />
<glyph unicode="&#xcc;" horiz-adv-x="489" d="M80 0l229 1307h137l-229 -1307h-137zM168 1631l45 120q61 -78 155.5 -131t193.5 -82l-80 -71q-88 23 -169 60.5t-145 103.5z" />
<glyph unicode="&#xcd;" horiz-adv-x="489" d="M80 0l229 1307h137l-229 -1307h-137zM248 1538q109 29 222.5 82.5t203.5 130.5l4 -120q-88 -66 -179 -104t-190 -60z" />
<glyph unicode="&#xce;" horiz-adv-x="489" d="M80 0l229 1307h137l-229 -1307h-137zM148 1536q86 35 163.5 95.5t143.5 132.5q37 -72 94 -132.5t131 -95.5l-78 -69q-55 29 -97 61.5t-75 79.5q-49 -47 -103 -80t-118 -61z" />
<glyph unicode="&#xcf;" horiz-adv-x="489" d="M80 0l229 1307h137l-229 -1307h-137zM195 1563q0 14 12 32.5t28.5 36t36 30t31.5 12.5t24.5 -9.5t23 -23.5t16.5 -31t6 -31t-12.5 -33.5t-28.5 -36t-34.5 -28.5t-31.5 -12q-12 0 -24 9t-23.5 23.5t-17.5 31t-6 30.5zM479 1563q0 14 12.5 32.5t29 36t35 30t30.5 12.5 t24.5 -9.5t23.5 -23.5t17.5 -31t6.5 -31t-12.5 -33.5t-29 -36t-35 -28.5t-30.5 -12t-24.5 9t-23.5 23.5t-17.5 31t-6.5 30.5z" />
<glyph unicode="&#xd0;" horiz-adv-x="1327" d="M12 610l21 107h168l104 590h328q141 0 258 -37t201 -107.5t130 -171t46 -225.5q0 -164 -63.5 -304t-177.5 -242.5t-269.5 -161t-339.5 -58.5h-342l106 610h-170zM233 119h183q156 0 287 50t225 138t146 205t52 252q0 104 -37.5 183t-106.5 132.5t-165 81t-211 27.5h-184 l-82 -471h285l-41 -107h-265z" />
<glyph unicode="&#xd1;" horiz-adv-x="1419" d="M45 0l229 1307h97l485 -701q55 -82 118.5 -177t115.5 -177l6 2q12 88 24.5 177t28.5 173l125 703h137l-233 -1336h-37l-516 744q-31 43 -64 93t-65.5 99t-63.5 97.5t-57 89.5l-4 -2q-12 -92 -27.5 -183.5t-32.5 -183.5l-129 -725h-137zM575 1491l43 107q66 39 141.5 66.5 t153.5 31.5l12 -115q59 4 127 31t127 60l-43 -105q-66 -43 -141.5 -68.5t-153.5 -29.5l-12 112q-59 -4 -126.5 -29.5t-127.5 -60.5z" />
<glyph unicode="&#xd2;" horiz-adv-x="1540" d="M96 543q0 172 67.5 316.5t179.5 248.5t255 162.5t297 58.5q121 0 228.5 -40t187.5 -113.5t126 -178t46 -233.5q0 -172 -67.5 -316.5t-180.5 -249t-256 -163t-297 -58.5q-121 0 -227.5 40t-186.5 114t-126 178.5t-46 233.5zM236 545q0 -102 35.5 -184t97 -140.5 t144.5 -90.5t179 -32q123 0 240 51.5t208 141.5t146 211t55 260q0 102 -35.5 185t-97 141.5t-144.5 90t-177 31.5q-123 0 -240 -52t-209 -142t-147 -211t-55 -260zM655 1631l45 120q61 -78 155.5 -131t193.5 -82l-80 -71q-88 23 -169 60.5t-145 103.5z" />
<glyph unicode="&#xd3;" horiz-adv-x="1540" d="M96 543q0 172 67.5 316.5t179.5 248.5t255 162.5t297 58.5q121 0 228.5 -40t187.5 -113.5t126 -178t46 -233.5q0 -172 -67.5 -316.5t-180.5 -249t-256 -163t-297 -58.5q-121 0 -227.5 40t-186.5 114t-126 178.5t-46 233.5zM236 545q0 -102 35.5 -184t97 -140.5 t144.5 -90.5t179 -32q123 0 240 51.5t208 141.5t146 211t55 260q0 102 -35.5 185t-97 141.5t-144.5 90t-177 31.5q-123 0 -240 -52t-209 -142t-147 -211t-55 -260zM791 1538q109 29 222.5 82.5t203.5 130.5l4 -120q-88 -66 -179 -104t-190 -60z" />
<glyph unicode="&#xd4;" horiz-adv-x="1540" d="M96 543q0 172 67.5 316.5t179.5 248.5t255 162.5t297 58.5q121 0 228.5 -40t187.5 -113.5t126 -178t46 -233.5q0 -172 -67.5 -316.5t-180.5 -249t-256 -163t-297 -58.5q-121 0 -227.5 40t-186.5 114t-126 178.5t-46 233.5zM236 545q0 -102 35.5 -184t97 -140.5 t144.5 -90.5t179 -32q123 0 240 51.5t208 141.5t146 211t55 260q0 102 -35.5 185t-97 141.5t-144.5 90t-177 31.5q-123 0 -240 -52t-209 -142t-147 -211t-55 -260zM664 1536q86 35 163.5 95.5t143.5 132.5q37 -72 94 -132.5t131 -95.5l-78 -69q-55 29 -97 61.5t-75 79.5 q-49 -47 -103 -80t-118 -61z" />
<glyph unicode="&#xd5;" horiz-adv-x="1540" d="M96 543q0 172 67.5 316.5t179.5 248.5t255 162.5t297 58.5q121 0 228.5 -40t187.5 -113.5t126 -178t46 -233.5q0 -172 -67.5 -316.5t-180.5 -249t-256 -163t-297 -58.5q-121 0 -227.5 40t-186.5 114t-126 178.5t-46 233.5zM236 545q0 -102 35.5 -184t97 -140.5 t144.5 -90.5t179 -32q123 0 240 51.5t208 141.5t146 211t55 260q0 102 -35.5 185t-97 141.5t-144.5 90t-177 31.5q-123 0 -240 -52t-209 -142t-147 -211t-55 -260zM633 1491l43 107q66 39 141.5 66.5t153.5 31.5l12 -115q59 4 127 31t127 60l-43 -105q-66 -43 -141.5 -68.5 t-153.5 -29.5l-12 112q-59 -4 -126.5 -29.5t-127.5 -60.5z" />
<glyph unicode="&#xd6;" horiz-adv-x="1540" d="M96 543q0 172 67.5 316.5t179.5 248.5t255 162.5t297 58.5q121 0 228.5 -40t187.5 -113.5t126 -178t46 -233.5q0 -172 -67.5 -316.5t-180.5 -249t-256 -163t-297 -58.5q-121 0 -227.5 40t-186.5 114t-126 178.5t-46 233.5zM236 545q0 -102 35.5 -184t97 -140.5 t144.5 -90.5t179 -32q123 0 240 51.5t208 141.5t146 211t55 260q0 102 -35.5 185t-97 141.5t-144.5 90t-177 31.5q-123 0 -240 -52t-209 -142t-147 -211t-55 -260zM709 1563q0 14 12 32.5t28.5 36t36 30t31.5 12.5t24.5 -9.5t23 -23.5t16.5 -31t6 -31t-12.5 -33.5t-28.5 -36 t-34.5 -28.5t-31.5 -12q-12 0 -24 9t-23.5 23.5t-17.5 31t-6 30.5zM993 1563q0 14 12.5 32.5t29 36t35 30t30.5 12.5t24.5 -9.5t23.5 -23.5t17.5 -31t6.5 -31t-12.5 -33.5t-29 -36t-35 -28.5t-30.5 -12t-24.5 9t-23.5 23.5t-17.5 31t-6.5 30.5z" />
<glyph unicode="&#xd7;" horiz-adv-x="974" d="M125 299l303 258l-211 258l72 62l213 -259l305 261l55 -68l-303 -260l209 -254l-74 -61l-209 251l-303 -256z" />
<glyph unicode="&#xd8;" horiz-adv-x="1540" d="M86 4l154 156q-70 72 -107 169t-37 214q0 172 67.5 316.5t179.5 248.5t255 162.5t297 58.5q221 0 379 -123l158 158l61 -61l-154 -158q68 -72 106 -168t38 -213q0 -172 -67.5 -316.5t-180.5 -249t-256 -163t-297 -58.5q-109 0 -205 32t-174 91l-153 -155zM236 545 q0 -88 25.5 -161t72.5 -128l846 856q-121 98 -293 98q-123 0 -240 -52t-209 -142t-147 -211t-55 -260zM397 195q59 -47 134 -72t161 -25q123 0 240 51.5t208 141.5t146 211t55 260q0 172 -98 287z" />
<glyph unicode="&#xd9;" horiz-adv-x="1302" d="M117 360q0 23 2 47.5t6 49.5l149 850h138l-148 -846q-4 -25 -7 -46.5t-1 -41.5q0 -131 81 -202t232 -71q178 0 296 96.5t149 268.5l147 842h133l-149 -854q-20 -117 -71.5 -205t-127.5 -148.5t-174 -91.5t-211 -31q-98 0 -180 26t-140.5 75t-91 120.5t-32.5 161.5z M526 1631l45 120q61 -78 155.5 -131t193.5 -82l-80 -71q-88 23 -169 60.5t-145 103.5z" />
<glyph unicode="&#xda;" horiz-adv-x="1302" d="M117 360q0 23 2 47.5t6 49.5l149 850h138l-148 -846q-4 -25 -7 -46.5t-1 -41.5q0 -131 81 -202t232 -71q178 0 296 96.5t149 268.5l147 842h133l-149 -854q-20 -117 -71.5 -205t-127.5 -148.5t-174 -91.5t-211 -31q-98 0 -180 26t-140.5 75t-91 120.5t-32.5 161.5z M700 1538q109 29 222.5 82.5t203.5 130.5l4 -120q-88 -66 -179 -104t-190 -60z" />
<glyph unicode="&#xdb;" horiz-adv-x="1302" d="M117 360q0 23 2 47.5t6 49.5l149 850h138l-148 -846q-4 -25 -7 -46.5t-1 -41.5q0 -131 81 -202t232 -71q178 0 296 96.5t149 268.5l147 842h133l-149 -854q-20 -117 -71.5 -205t-127.5 -148.5t-174 -91.5t-211 -31q-98 0 -180 26t-140.5 75t-91 120.5t-32.5 161.5z M551 1536q86 35 163.5 95.5t143.5 132.5q37 -72 94 -132.5t131 -95.5l-78 -69q-55 29 -97 61.5t-75 79.5q-49 -47 -103 -80t-118 -61z" />
<glyph unicode="&#xdc;" horiz-adv-x="1302" d="M117 360q0 23 2 47.5t6 49.5l149 850h138l-148 -846q-4 -25 -7 -46.5t-1 -41.5q0 -131 81 -202t232 -71q178 0 296 96.5t149 268.5l147 842h133l-149 -854q-20 -117 -71.5 -205t-127.5 -148.5t-174 -91.5t-211 -31q-98 0 -180 26t-140.5 75t-91 120.5t-32.5 161.5z M602 1563q0 14 12 32.5t28.5 36t36 30t31.5 12.5t24.5 -9.5t23 -23.5t16.5 -31t6 -31t-12.5 -33.5t-28.5 -36t-34.5 -28.5t-31.5 -12q-12 0 -24 9t-23.5 23.5t-17.5 31t-6 30.5zM886 1563q0 14 12.5 32.5t29 36t35 30t30.5 12.5t24.5 -9.5t23.5 -23.5t17.5 -31t6.5 -31 t-12.5 -33.5t-29 -36t-35 -28.5t-30.5 -12t-24.5 9t-23.5 23.5t-17.5 31t-6.5 30.5z" />
<glyph unicode="&#xdd;" horiz-adv-x="1183" d="M158 1307h145l211 -400q25 -47 51.5 -99t48.5 -99h4q41 47 86.5 99t86.5 99l352 400h149l-624 -703l-107 -604h-135l106 604zM612 1538q109 29 222.5 82.5t203.5 130.5l4 -120q-88 -66 -179 -104t-190 -60z" />
<glyph unicode="&#xde;" horiz-adv-x="925" d="M45 0l229 1311h138l-27 -156h223q70 0 130.5 -22.5t105.5 -63.5t69.5 -98t24.5 -125q0 -88 -36 -161t-96.5 -126t-141 -83t-168.5 -30h-236l-78 -446h-137zM283 565h213q61 0 117.5 22.5t98.5 60.5t66.5 89.5t24.5 106.5q0 92 -66.5 142t-165.5 50h-206z" />
<glyph unicode="&#xdf;" horiz-adv-x="1058" d="M45 0l174 1001q41 231 163 348t292 117q143 0 227 -79t84 -222q0 -104 -32.5 -186t-67.5 -131q-53 0 -102.5 -9.5t-87.5 -30t-60.5 -54t-22.5 -82.5q0 -41 22.5 -71t82.5 -58q121 -51 170 -109.5t49 -152.5q0 -63 -27.5 -119t-79 -95.5t-121 -63t-151.5 -23.5 q-72 0 -125 11t-94 29l20 113q35 -18 84.5 -30.5t126.5 -12.5q100 0 168 50t68 132q0 47 -22.5 82t-88.5 66q-111 47 -159 102.5t-48 132.5q0 74 29 128.5t74 89t99 53t108 20.5q23 37 42 96.5t19 124.5q0 76 -45 132.5t-147 56.5q-61 0 -112.5 -25.5t-91.5 -71 t-66.5 -105.5t-39.5 -128l-182 -1026h-129z" />
<glyph unicode="&#xe0;" d="M43 274q0 150 57.5 272t151.5 208t215 133t250 47q150 0 237 -16l-161 -918h-111l45 276l-6 3q-59 -137 -167 -217t-230 -80q-55 0 -106.5 19t-90.5 56t-61.5 91.5t-22.5 125.5zM174 281q0 -92 47 -141.5t127 -49.5q57 0 122 34t124 101.5t106.5 168t71.5 233.5l35 192 q-35 6 -100 6q-102 0 -198.5 -41t-170.5 -114.5t-119 -173t-45 -215.5zM479 1225l39 104q53 -66 133 -112t164 -70l-70 -62q-74 20 -143.5 53t-122.5 87z" />
<glyph unicode="&#xe1;" d="M43 274q0 150 57.5 272t151.5 208t215 133t250 47q150 0 237 -16l-161 -918h-111l45 276l-6 3q-59 -137 -167 -217t-230 -80q-55 0 -106.5 19t-90.5 56t-61.5 91.5t-22.5 125.5zM174 281q0 -92 47 -141.5t127 -49.5q57 0 122 34t124 101.5t106.5 168t71.5 233.5l35 192 q-35 6 -100 6q-102 0 -198.5 -41t-170.5 -114.5t-119 -173t-45 -215.5zM575 1147q92 25 188.5 71t174.5 111l2 -104q-74 -53 -151.5 -86t-161.5 -54z" />
<glyph unicode="&#xe2;" d="M43 274q0 150 57.5 272t151.5 208t215 133t250 47q150 0 237 -16l-161 -918h-111l45 276l-6 3q-59 -137 -167 -217t-230 -80q-55 0 -106.5 19t-90.5 56t-61.5 91.5t-22.5 125.5zM174 281q0 -92 47 -141.5t127 -49.5q57 0 122 34t124 101.5t106.5 168t71.5 233.5l35 192 q-35 6 -100 6q-102 0 -198.5 -41t-170.5 -114.5t-119 -173t-45 -215.5zM453 1145q74 31 140 82t122 112q31 -61 79 -112t111 -82l-65 -58q-47 23 -83 50.5t-65 68.5q-41 -41 -87 -68.5t-99 -50.5z" />
<glyph unicode="&#xe3;" d="M43 274q0 150 57.5 272t151.5 208t215 133t250 47q150 0 237 -16l-161 -918h-111l45 276l-6 3q-59 -137 -167 -217t-230 -80q-55 0 -106.5 19t-90.5 56t-61.5 91.5t-22.5 125.5zM174 281q0 -92 47 -141.5t127 -49.5q57 0 122 34t124 101.5t106.5 168t71.5 233.5l35 192 q-35 6 -100 6q-102 0 -198.5 -41t-170.5 -114.5t-119 -173t-45 -215.5zM420 1108l35 90q57 33 121.5 56.5t130.5 27.5l10 -98q49 4 107.5 26.5t107.5 51.5l-37 -91q-55 -37 -119.5 -58t-130.5 -26l-10 97q-49 -4 -106.5 -25.5t-108.5 -50.5z" />
<glyph unicode="&#xe4;" d="M43 274q0 150 57.5 272t151.5 208t215 133t250 47q150 0 237 -16l-161 -918h-111l45 276l-6 3q-59 -137 -167 -217t-230 -80q-55 0 -106.5 19t-90.5 56t-61.5 91.5t-22.5 125.5zM174 281q0 -92 47 -141.5t127 -49.5q57 0 122 34t124 101.5t106.5 168t71.5 233.5l35 192 q-35 6 -100 6q-102 0 -198.5 -41t-170.5 -114.5t-119 -173t-45 -215.5zM487 1169q0 12 10.5 27.5t25 30t30.5 25t27 10.5q23 0 41 -27.5t18 -52.5q0 -12 -10.5 -28.5t-24.5 -31t-29.5 -25t-25.5 -10.5q-20 0 -41 28t-21 54zM731 1169q0 12 10.5 27.5t24.5 30t29.5 25 t25.5 10.5q20 0 40 -27.5t20 -52.5q0 -12 -10.5 -28.5t-25 -31t-29.5 -25t-25 -10.5q-20 0 -40 28t-20 54z" />
<glyph unicode="&#xe5;" d="M43 274q0 150 57.5 272t151.5 208t215 133t250 47q150 0 237 -16l-161 -918h-111l45 276l-6 3q-59 -137 -167 -217t-230 -80q-55 0 -106.5 19t-90.5 56t-61.5 91.5t-22.5 125.5zM174 281q0 -92 47 -141.5t127 -49.5q57 0 122 34t124 101.5t106.5 168t71.5 233.5l35 192 q-35 6 -100 6q-102 0 -198.5 -41t-170.5 -114.5t-119 -173t-45 -215.5zM530 1219q0 39 16.5 75.5t44 64t64.5 44t76 16.5q66 0 110 -43t44 -104q0 -43 -17.5 -80t-45 -64.5t-64.5 -43t-76 -15.5q-63 0 -107.5 43t-44.5 107zM604 1223q0 -39 22.5 -60.5t61.5 -21.5 q51 0 87 37t36 88q0 41 -23.5 61.5t-60.5 20.5q-51 0 -87 -38t-36 -87z" />
<glyph unicode="&#xe6;" horiz-adv-x="1492" d="M57 221q0 74 30 131.5t79 99.5t111.5 66.5t128.5 30.5l256 24l12 62q2 10 2 20.5v18.5q0 162 -189 162q-66 0 -133 -21.5t-112 -54.5l-31 108q55 39 135 59.5t158 20.5q111 0 187.5 -47t99.5 -149q80 94 189.5 145t213.5 51q115 0 178.5 -55.5t63.5 -153.5 q0 -88 -51.5 -160.5t-142.5 -126t-213 -83t-263 -29.5q6 -119 77.5 -182.5t190.5 -63.5q74 0 135.5 23.5t114.5 70.5l-39 -147q-43 -31 -100.5 -46t-122.5 -15q-123 0 -215 53t-133 164q-31 -53 -73 -93.5t-88 -68t-95 -41.5t-94 -14q-59 0 -108.5 19t-84.5 52t-54.5 77 t-19.5 93zM182 231q0 -63 42 -102t110 -39q41 0 87 17.5t87 48t70.5 74.5t39.5 100l25 135l-235 -21q-98 -10 -162 -70.5t-64 -142.5zM772 442q113 0 211 25t169 64.5t112 90t41 99.5q0 53 -28 83t-93 30q-61 0 -130 -29t-128.5 -81t-101.5 -124t-52 -158z" />
<glyph unicode="&#xe7;" horiz-adv-x="862" d="M55 330q0 131 54.5 243.5t144.5 195.5t207 131t241 48q41 0 77 -3t69 -11l-27 -109q-29 8 -58.5 9.5t-70.5 1.5q-100 0 -192 -43t-162 -112t-111 -158t-41 -181q0 -109 66.5 -178.5t179.5 -69.5q78 0 158 28t135 83l-37 -142q-39 -37 -101.5 -58t-135.5 -25l-19 -41 q47 -4 90 -42t43 -102q0 -47 -19.5 -82t-49 -57.5t-66.5 -34.5t-72 -12q-76 0 -127 39l21 65q25 -20 51.5 -27.5t58.5 -7.5q41 0 80 31t39 84q0 39 -27.5 59.5t-62.5 20.5h-20.5t-22.5 -2l47 109q-66 2 -127 25.5t-108 67.5t-76 108.5t-29 148.5z" />
<glyph unicode="&#xe8;" horiz-adv-x="933" d="M72 375q0 125 52 229.5t134 181t181.5 119.5t195.5 43q113 0 176 -55.5t63 -153.5q0 -88 -51 -160.5t-141 -126t-212 -83t-263 -29.5q4 -119 75.5 -182.5t192.5 -63.5q139 0 250 94l-41 -147q-43 -31 -99.5 -46t-121.5 -15q-84 0 -155.5 24.5t-124 74.5t-82 123.5 t-29.5 172.5zM211 442q113 0 211 25t170 64.5t112.5 90t40.5 99.5q0 53 -28.5 83t-91.5 30q-61 0 -130 -30t-128.5 -82t-102.5 -124t-53 -156zM426 1225l39 104q53 -66 133 -112t162 -70l-68 -62q-74 20 -143.5 53t-122.5 87z" />
<glyph unicode="&#xe9;" horiz-adv-x="933" d="M72 375q0 125 52 229.5t134 181t181.5 119.5t195.5 43q113 0 176 -55.5t63 -153.5q0 -88 -51 -160.5t-141 -126t-212 -83t-263 -29.5q4 -119 75.5 -182.5t192.5 -63.5q139 0 250 94l-41 -147q-43 -31 -99.5 -46t-121.5 -15q-84 0 -155.5 24.5t-124 74.5t-82 123.5 t-29.5 172.5zM211 442q113 0 211 25t170 64.5t112.5 90t40.5 99.5q0 53 -28.5 83t-91.5 30q-61 0 -130 -30t-128.5 -82t-102.5 -124t-53 -156zM532 1147q92 25 188.5 71t172.5 111l4 -104q-74 -53 -151.5 -86t-161.5 -54z" />
<glyph unicode="&#xea;" horiz-adv-x="933" d="M72 375q0 125 52 229.5t134 181t181.5 119.5t195.5 43q113 0 176 -55.5t63 -153.5q0 -88 -51 -160.5t-141 -126t-212 -83t-263 -29.5q4 -119 75.5 -182.5t192.5 -63.5q139 0 250 94l-41 -147q-43 -31 -99.5 -46t-121.5 -15q-84 0 -155.5 24.5t-124 74.5t-82 123.5 t-29.5 172.5zM211 442q113 0 211 25t170 64.5t112.5 90t40.5 99.5q0 53 -28.5 83t-91.5 30q-61 0 -130 -30t-128.5 -82t-102.5 -124t-53 -156zM410 1145q74 31 140 82t122 112q31 -61 79 -112t111 -82l-65 -58q-47 23 -83 50.5t-65 68.5q-41 -41 -87 -68.5t-99 -50.5z" />
<glyph unicode="&#xeb;" horiz-adv-x="933" d="M72 375q0 125 52 229.5t134 181t181.5 119.5t195.5 43q113 0 176 -55.5t63 -153.5q0 -88 -51 -160.5t-141 -126t-212 -83t-263 -29.5q4 -119 75.5 -182.5t192.5 -63.5q139 0 250 94l-41 -147q-43 -31 -99.5 -46t-121.5 -15q-84 0 -155.5 24.5t-124 74.5t-82 123.5 t-29.5 172.5zM211 442q113 0 211 25t170 64.5t112.5 90t40.5 99.5q0 53 -28.5 83t-91.5 30q-61 0 -130 -30t-128.5 -82t-102.5 -124t-53 -156zM438 1169q0 12 10.5 27.5t24.5 30t29.5 25t27.5 10.5q20 0 40 -27.5t20 -52.5q0 -12 -10.5 -28.5t-24.5 -31t-29.5 -25 t-25.5 -10.5q-23 0 -42.5 28t-19.5 54zM680 1169q0 12 10 27.5t24.5 30t30 25t25.5 10.5q23 0 42 -27.5t19 -52.5q0 -12 -10 -28.5t-24.5 -31t-29.5 -25t-26 -10.5q-23 0 -42 28t-19 54z" />
<glyph unicode="&#xec;" horiz-adv-x="471" d="M74 0l164 928h131l-164 -928h-131zM111 1225l39 104q53 -66 132.5 -112t161.5 -70l-67 -62q-74 20 -143.5 53t-122.5 87z" />
<glyph unicode="&#xed;" horiz-adv-x="471" d="M74 0l164 928h131l-164 -928h-131zM207 1147q92 25 188.5 71t173.5 111l2 -104q-74 -53 -151.5 -86t-161.5 -54z" />
<glyph unicode="&#xee;" horiz-adv-x="471" d="M74 0l164 928h131l-164 -928h-131zM109 1145q72 31 139 82t121 112q33 -61 81 -112t111 -82l-65 -58q-47 23 -83 50.5t-65 68.5q-41 -41 -88 -68.5t-100 -50.5z" />
<glyph unicode="&#xef;" horiz-adv-x="471" d="M74 0l164 928h131l-164 -928h-131zM152 1169q0 12 10 27.5t24.5 30t29.5 25t28 10.5q20 0 39.5 -27.5t19.5 -52.5q0 -12 -10 -28.5t-24.5 -31t-31 -25t-26.5 -10.5q-20 0 -39.5 28t-19.5 54zM393 1169q0 12 10.5 27.5t24.5 30t29.5 25t25.5 10.5q23 0 42.5 -27.5 t19.5 -52.5q0 -12 -10.5 -28.5t-24.5 -31t-30.5 -25t-26.5 -10.5q-20 0 -40 28t-20 54z" />
<glyph unicode="&#xf0;" horiz-adv-x="1013" d="M43 330q0 178 107.5 301t279.5 182q29 10 64.5 17.5t72.5 13.5t72 9t63 3q-20 61 -53 135t-80 152l-172 -90l-47 94l166 86q-70 113 -158 225h148q29 -35 60.5 -78t60.5 -90l159 84l48 -94l-152 -78q47 -80 88 -167t71.5 -176t49 -178t18.5 -171q0 -127 -41 -226.5 t-111.5 -167t-162.5 -103.5t-193 -36q-80 0 -145.5 27t-113.5 74t-73.5 111.5t-25.5 140.5zM174 336q0 -111 64.5 -177.5t171.5 -66.5q72 0 138 30t118.5 84t83 132t30.5 174q0 63 -12 120.5t-33 110.5q-53 -2 -129 -11t-129 -27q-147 -51 -225 -147.5t-78 -221.5z" />
<glyph unicode="&#xf1;" d="M25 0l163 928h111l-45 -277l6 -2q27 51 64.5 104.5t89 96.5t115 70.5t141.5 27.5q51 0 96 -16.5t79 -47t54.5 -75.5t20.5 -102q0 -31 -7 -64l-112 -643h-129l112 647q4 12 4 24.5v22.5q0 66 -35.5 106t-105.5 40q-68 0 -136.5 -37t-130 -111t-109.5 -184.5t-72 -255.5 l-45 -252h-129zM365 1108l36 90q57 33 122 56.5t130 27.5l11 -98q49 4 107 26.5t108 51.5l-37 -91q-55 -37 -120 -58t-130 -26l-10 97q-51 -4 -108.5 -25.5t-108.5 -50.5z" />
<glyph unicode="&#xf2;" horiz-adv-x="1099" d="M66 352q0 121 45 229.5t122.5 189.5t181 129t218.5 48q174 0 271 -102.5t97 -272.5q0 -121 -45 -228t-122.5 -189t-181 -129t-218.5 -47q-174 0 -271 101t-97 271zM197 362q0 -125 63.5 -196.5t190.5 -71.5q82 0 157.5 39t134 104.5t93 149.5t34.5 176q0 125 -63.5 198 t-188.5 73q-84 0 -159.5 -39t-134 -104.5t-93 -150.5t-34.5 -178zM442 1225l39 104q53 -66 133 -112t162 -70l-67 -62q-74 20 -143.5 53t-123.5 87z" />
<glyph unicode="&#xf3;" horiz-adv-x="1099" d="M66 352q0 121 45 229.5t122.5 189.5t181 129t218.5 48q174 0 271 -102.5t97 -272.5q0 -121 -45 -228t-122.5 -189t-181 -129t-218.5 -47q-174 0 -271 101t-97 271zM197 362q0 -125 63.5 -196.5t190.5 -71.5q82 0 157.5 39t134 104.5t93 149.5t34.5 176q0 125 -63.5 198 t-188.5 73q-84 0 -159.5 -39t-134 -104.5t-93 -150.5t-34.5 -178zM549 1147q92 25 189.5 71t172.5 111l4 -104q-76 -53 -153.5 -86t-159.5 -54z" />
<glyph unicode="&#xf4;" horiz-adv-x="1099" d="M66 352q0 121 45 229.5t122.5 189.5t181 129t218.5 48q174 0 271 -102.5t97 -272.5q0 -121 -45 -228t-122.5 -189t-181 -129t-218.5 -47q-174 0 -271 101t-97 271zM197 362q0 -125 63.5 -196.5t190.5 -71.5q82 0 157.5 39t134 104.5t93 149.5t34.5 176q0 125 -63.5 198 t-188.5 73q-84 0 -159.5 -39t-134 -104.5t-93 -150.5t-34.5 -178zM442 1145q72 31 139.5 82t120.5 112q33 -61 81 -112t112 -82l-66 -58q-47 23 -82.5 50.5t-64.5 68.5q-41 -41 -88 -68.5t-100 -50.5z" />
<glyph unicode="&#xf5;" horiz-adv-x="1099" d="M66 352q0 121 45 229.5t122.5 189.5t181 129t218.5 48q174 0 271 -102.5t97 -272.5q0 -121 -45 -228t-122.5 -189t-181 -129t-218.5 -47q-174 0 -271 101t-97 271zM197 362q0 -125 63.5 -196.5t190.5 -71.5q82 0 157.5 39t134 104.5t93 149.5t34.5 176q0 125 -63.5 198 t-188.5 73q-84 0 -159.5 -39t-134 -104.5t-93 -150.5t-34.5 -178zM432 1108l35 90q57 33 121.5 56.5t130.5 27.5l10 -98q49 4 107.5 26.5t107.5 51.5l-37 -91q-55 -37 -119.5 -58t-130.5 -26l-10 97q-49 -4 -106.5 -25.5t-108.5 -50.5z" />
<glyph unicode="&#xf6;" horiz-adv-x="1099" d="M66 352q0 121 45 229.5t122.5 189.5t181 129t218.5 48q174 0 271 -102.5t97 -272.5q0 -121 -45 -228t-122.5 -189t-181 -129t-218.5 -47q-174 0 -271 101t-97 271zM197 362q0 -125 63.5 -196.5t190.5 -71.5q82 0 157.5 39t134 104.5t93 149.5t34.5 176q0 125 -63.5 198 t-188.5 73q-84 0 -159.5 -39t-134 -104.5t-93 -150.5t-34.5 -178zM483 1169q0 12 10.5 27.5t24.5 30t29.5 25t27.5 10.5q20 0 40 -27.5t20 -52.5q0 -12 -10.5 -28.5t-24.5 -31t-29.5 -25t-25.5 -10.5q-23 0 -42.5 28t-19.5 54zM725 1169q0 12 10 27.5t24.5 30t30 25 t25.5 10.5q23 0 42.5 -27.5t19.5 -52.5q0 -12 -10.5 -28.5t-25 -31t-29.5 -25t-26 -10.5q-23 0 -42 28t-19 54z" />
<glyph unicode="&#xf7;" horiz-adv-x="948" d="M86 518l18 105h766l-18 -105h-766zM348 322q0 14 12.5 32.5t29 35t33.5 27.5t30 11q12 0 25.5 -10t22.5 -25.5t14 -32t5 -30.5t-12 -32.5t-28.5 -35t-34 -28t-29.5 -11.5t-24.5 10.5t-23 25.5t-15.5 32.5t-5 30.5zM434 813q0 14 12.5 32.5t29 35t33.5 28t30 11.5 q12 0 25.5 -10.5t22.5 -26t14 -32t5 -30.5t-12 -32.5t-27.5 -35t-34 -27.5t-30.5 -11t-24.5 10t-23 25.5t-16.5 33t-4 29.5z" />
<glyph unicode="&#xf8;" horiz-adv-x="1099" d="M43 2l98 104q-76 98 -75 246q0 121 45 229.5t122.5 189.5t181 129t218.5 48q141 0 235 -71l107 112l61 -57l-110 -115q76 -94 75 -244q0 -121 -45 -228t-122.5 -189t-181 -129t-218.5 -47q-137 0 -233 67l-99 -102zM197 362q0 -94 43 -155l540 577q-61 49 -162 50 q-84 0 -159.5 -39t-134 -104.5t-93 -150.5t-34.5 -178zM289 139q63 -45 162 -45q82 0 157.5 39t134 104.5t93 149.5t34.5 176q0 45 -9 85t-30 71z" />
<glyph unicode="&#xf9;" d="M70 221q0 29 6 64l112 643h129l-112 -647q-4 -14 -4 -25.5v-24.5q0 -63 35.5 -103t105.5 -40q68 0 136.5 37t130 110.5t109.5 184t73 256.5l45 252h129l-164 -928h-111l45 276l-6 3q-27 -51 -64.5 -104.5t-89 -96.5t-115 -70.5t-141.5 -27.5q-51 0 -96 15t-78.5 46 t-54 76t-20.5 104zM369 1225l39 104q53 -66 133 -112t161 -70l-67 -62q-74 20 -143.5 53t-122.5 87z" />
<glyph unicode="&#xfa;" d="M70 221q0 29 6 64l112 643h129l-112 -647q-4 -14 -4 -25.5v-24.5q0 -63 35.5 -103t105.5 -40q68 0 136.5 37t130 110.5t109.5 184t73 256.5l45 252h129l-164 -928h-111l45 276l-6 3q-27 -51 -64.5 -104.5t-89 -96.5t-115 -70.5t-141.5 -27.5q-51 0 -96 15t-78.5 46 t-54 76t-20.5 104zM522 1147q92 25 188.5 71t172.5 111l4 -104q-74 -53 -152 -86t-162 -54z" />
<glyph unicode="&#xfb;" d="M70 221q0 29 6 64l112 643h129l-112 -647q-4 -14 -4 -25.5v-24.5q0 -63 35.5 -103t105.5 -40q68 0 136.5 37t130 110.5t109.5 184t73 256.5l45 252h129l-164 -928h-111l45 276l-6 3q-27 -51 -64.5 -104.5t-89 -96.5t-115 -70.5t-141.5 -27.5q-51 0 -96 15t-78.5 46 t-54 76t-20.5 104zM395 1145q74 31 140.5 82t121.5 112q31 -61 79 -112t112 -82l-66 -58q-47 23 -82.5 50.5t-62.5 68.5q-43 -41 -89 -68.5t-99 -50.5z" />
<glyph unicode="&#xfc;" d="M70 221q0 29 6 64l112 643h129l-112 -647q-4 -14 -4 -25.5v-24.5q0 -63 35.5 -103t105.5 -40q68 0 136.5 37t130 110.5t109.5 184t73 256.5l45 252h129l-164 -928h-111l45 276l-6 3q-27 -51 -64.5 -104.5t-89 -96.5t-115 -70.5t-141.5 -27.5q-51 0 -96 15t-78.5 46 t-54 76t-20.5 104zM432 1169q0 12 10.5 27.5t24.5 30t30.5 25t26.5 10.5q23 0 41.5 -27.5t18.5 -52.5q0 -12 -10.5 -28.5t-24.5 -31t-29.5 -25t-25.5 -10.5q-23 0 -42.5 28t-19.5 54zM674 1169q0 12 10 27.5t24.5 30t31 25t26.5 10.5q20 0 39.5 -27.5t19.5 -52.5 q0 -12 -10 -28.5t-24.5 -31t-30 -25t-25.5 -10.5q-23 0 -42 28t-19 54z" />
<glyph unicode="&#xfd;" horiz-adv-x="968" d="M-127 -397q111 53 224.5 162.5t232.5 304.5l-211 858h133l117 -473q14 -59 27.5 -115.5t25.5 -116.5h4q31 57 66.5 115.5t70.5 118.5l283 471h141l-510 -848q-76 -125 -145.5 -217t-134 -158.5t-126 -111t-118.5 -70.5zM508 1147q92 25 188.5 71t173.5 111l2 -104 q-74 -53 -151.5 -86t-161.5 -54z" />
<glyph unicode="&#xfe;" horiz-adv-x="1042" d="M-49 -473l342 1931h129l-137 -766l6 -2q53 106 153.5 181t235.5 75q55 0 106.5 -21.5t90 -61.5t62.5 -100t24 -136q0 -141 -53.5 -259t-143.5 -204t-207 -133t-244 -47q-84 0 -149 16l-86 -473h-129zM186 121q23 -10 60 -16.5t82 -6.5q98 0 189 40t161 109.5t111.5 166 t41.5 209.5q0 98 -51 153t-137 55q-59 0 -124.5 -33.5t-125 -101t-106.5 -168t-70 -233.5z" />
<glyph unicode="&#xff;" horiz-adv-x="968" d="M-127 -397q111 53 224.5 162.5t232.5 304.5l-211 858h133l117 -473q14 -59 27.5 -115.5t25.5 -116.5h4q31 57 66.5 115.5t70.5 118.5l283 471h141l-510 -848q-76 -125 -145.5 -217t-134 -158.5t-126 -111t-118.5 -70.5zM389 1161q0 12 10.5 28.5t24.5 31t30.5 24.5 t26.5 10q23 0 41.5 -28t18.5 -51q0 -12 -10.5 -29t-24.5 -31t-29.5 -24.5t-25.5 -10.5q-23 0 -42.5 28t-19.5 52zM631 1161q0 12 10 28.5t24.5 31t30 24.5t25.5 10q23 0 42 -28t19 -51q0 -12 -10 -29t-24.5 -31t-30 -24.5t-25.5 -10.5q-23 0 -42 28t-19 52z" />
<glyph unicode="&#x152;" horiz-adv-x="1955" d="M96 543q0 172 67.5 316.5t179.5 248.5t255 162.5t297 58.5q229 0 383 -129l18 107h682l-18 -113h-545l-84 -477h447l-21 -113h-446l-86 -491h616l-20 -113h-754l16 90q-92 -53 -193.5 -83t-207.5 -30q-121 0 -227.5 40t-186.5 114t-126 178.5t-46 233.5zM236 545 q0 -102 35.5 -184t97 -140.5t144.5 -90.5t179 -32q115 0 223.5 45t198.5 123l137 776q-63 80 -158.5 124t-205.5 44q-123 0 -240 -52t-209 -142t-147 -211t-55 -260z" />
<glyph unicode="&#x153;" horiz-adv-x="1712" d="M66 352q0 121 45 229.5t122.5 189.5t181 129t218.5 48q135 0 221 -64.5t121 -172.5q82 111 201.5 174t236.5 63q113 0 176.5 -55.5t63.5 -153.5q0 -88 -51.5 -160.5t-141.5 -126t-212 -83t-263 -29.5q6 -119 77 -182.5t191 -63.5q74 0 135.5 23.5t114.5 70.5l-39 -147 q-43 -31 -100 -46t-123 -15q-129 0 -225 60t-135 183q-76 -111 -193 -177t-254 -66q-174 0 -271 101t-97 271zM197 362q0 -125 63.5 -196.5t190.5 -71.5q82 0 157.5 39t134 104.5t93 149.5t34.5 176q0 125 -63.5 198t-188.5 73q-84 0 -159.5 -39t-134 -104.5t-93 -150.5 t-34.5 -178zM989 442q113 0 211 25t170 64.5t113 90t41 99.5q0 53 -29 83t-92 30q-61 0 -130 -30t-128.5 -82t-102.5 -124t-53 -156z" />
<glyph unicode="&#x178;" horiz-adv-x="1183" d="M158 1307h145l211 -400q25 -47 51.5 -99t48.5 -99h4q41 47 86.5 99t86.5 99l352 400h149l-624 -703l-107 -604h-135l106 604zM523 1563q0 14 12 32.5t28.5 36t36 30t31.5 12.5t24.5 -9.5t23 -23.5t16.5 -31t6 -31t-12.5 -33.5t-28.5 -36t-34.5 -28.5t-31.5 -12 q-12 0 -24 9t-23.5 23.5t-17.5 31t-6 30.5zM807 1563q0 14 12.5 32.5t29 36t35 30t30.5 12.5t24.5 -9.5t23.5 -23.5t17.5 -31t6.5 -31t-12.5 -33.5t-29 -36t-35 -28.5t-30.5 -12t-24.5 9t-23.5 23.5t-17.5 31t-6.5 30.5z" />
<glyph unicode="&#x2c6;" horiz-adv-x="737" d="M242 1126q86 35 163.5 95.5t143.5 132.5q37 -72 94 -132.5t131 -95.5l-78 -69q-55 29 -97 61.5t-75 79.5q-49 -47 -103 -80t-118 -61z" />
<glyph unicode="&#x2dc;" horiz-adv-x="737" d="M219 1081l43 107q66 39 141.5 66.5t153.5 31.5l12 -115q59 4 127 31t127 60l-43 -105q-66 -43 -141.5 -68.5t-153.5 -29.5l-12 112q-59 -4 -126.5 -29.5t-127.5 -60.5z" />
<glyph unicode="&#x2000;" horiz-adv-x="929" />
<glyph unicode="&#x2001;" horiz-adv-x="1858" />
<glyph unicode="&#x2002;" horiz-adv-x="929" />
<glyph unicode="&#x2003;" horiz-adv-x="1858" />
<glyph unicode="&#x2004;" horiz-adv-x="619" />
<glyph unicode="&#x2005;" horiz-adv-x="464" />
<glyph unicode="&#x2006;" horiz-adv-x="309" />
<glyph unicode="&#x2007;" horiz-adv-x="309" />
<glyph unicode="&#x2008;" horiz-adv-x="232" />
<glyph unicode="&#x2009;" horiz-adv-x="371" />
<glyph unicode="&#x200a;" horiz-adv-x="103" />
<glyph unicode="&#x2010;" horiz-adv-x="692" d="M86 518l18 105h512l-18 -105h-512z" />
<glyph unicode="&#x2011;" horiz-adv-x="692" d="M86 518l18 105h512l-18 -105h-512z" />
<glyph unicode="&#x2012;" horiz-adv-x="692" d="M86 518l18 105h512l-18 -105h-512z" />
<glyph unicode="&#x2013;" horiz-adv-x="1204" d="M86 518l18 105h1024l-18 -105h-1024z" />
<glyph unicode="&#x2014;" horiz-adv-x="1716" d="M86 518l18 105h1536l-18 -105h-1536z" />
<glyph unicode="&#x2018;" horiz-adv-x="382" d="M195 1120q0 27 20.5 69t53 90t73.5 95t82 84l57 -8q-55 -57 -97 -119.5t-54 -107.5q18 -6 38.5 -33t20.5 -51q0 -14 -13.5 -35t-31.5 -40.5t-38.5 -32.5t-33.5 -13q-10 0 -23 10t-25.5 25.5t-20.5 33t-8 33.5z" />
<glyph unicode="&#x2019;" horiz-adv-x="382" d="M143 1036q55 57 97.5 120t54.5 108q-18 6 -38.5 32.5t-20.5 51.5q0 14 13 34.5t31.5 40t39 32.5t32.5 13q10 0 23.5 -10t26 -25.5t20.5 -34t8 -34.5q0 -27 -20.5 -69t-53 -89t-73.5 -94t-82 -84z" />
<glyph unicode="&#x201a;" horiz-adv-x="382" d="M-78 -227q55 57 97 119.5t55 107.5q-18 6 -39 32.5t-21 51.5q0 14 13.5 34.5t32 40t39 33t32.5 13.5q10 0 23.5 -10.5t26 -25.5t20.5 -34t8 -35q0 -27 -20.5 -68.5t-53.5 -88.5t-74 -94.5t-81 -84.5z" />
<glyph unicode="&#x201c;" horiz-adv-x="661" d="M197 1120q0 27 20.5 69t52 90t72.5 95t82 84l59 -8q-55 -57 -98 -119.5t-55 -107.5q18 -6 38.5 -33t20.5 -51q0 -14 -13.5 -35t-31.5 -40.5t-37.5 -32.5t-32.5 -13q-10 0 -23 10t-25.5 25.5t-20.5 33t-8 33.5zM516 1122q0 27 20.5 69t52.5 89t72.5 94t81.5 84l60 -8 q-55 -57 -98 -119.5t-56 -107.5q18 -4 39 -31t21 -53q0 -14 -13.5 -35t-32 -40.5t-38 -32.5t-31.5 -13q-10 0 -23.5 10t-26 25.5t-20.5 34t-8 34.5z" />
<glyph unicode="&#x201d;" horiz-adv-x="700" d="M143 1036q55 57 97.5 120t54.5 108q-18 6 -38.5 32.5t-20.5 51.5q0 14 13 34.5t31.5 40t39 32.5t32.5 13q10 0 23.5 -10t26 -25.5t20.5 -34t8 -34.5q0 -27 -20.5 -69t-53 -89t-73.5 -94t-82 -84zM463 1036q55 59 97 121t54 107q-18 6 -38.5 32.5t-20.5 51.5 q0 14 13.5 34.5t31.5 40t38.5 32.5t33.5 13q10 0 23.5 -10t25.5 -25.5t20.5 -33t8.5 -33.5q0 -27 -20.5 -69t-53.5 -90t-74 -95t-82 -84z" />
<glyph unicode="&#x201e;" horiz-adv-x="700" d="M-78 -227q55 57 97 119.5t55 107.5q-18 6 -39 32.5t-21 51.5q0 14 13.5 34.5t32 40t39 33t32.5 13.5q10 0 23.5 -10.5t26 -25.5t20.5 -34t8 -35q0 -27 -20.5 -68.5t-53.5 -88.5t-74 -94.5t-81 -84.5zM242 -227q55 57 97 119.5t54 107.5q-18 6 -38.5 32.5t-20.5 51.5 q0 14 13 34.5t31.5 40t39 33t33.5 13.5q10 0 23 -10.5t25.5 -25.5t20.5 -34t8 -35q0 -27 -20.5 -68.5t-53 -88.5t-73.5 -94.5t-82 -84.5z" />
<glyph unicode="&#x2022;" horiz-adv-x="735" d="M111 506q0 68 25.5 128t68.5 105t100 72t121 27q96 0 151.5 -56.5t55.5 -152.5q0 -68 -25.5 -128.5t-68.5 -104.5t-100.5 -70.5t-121.5 -26.5q-96 0 -151 56.5t-55 150.5z" />
<glyph unicode="&#x2026;" horiz-adv-x="1050" d="M12 82q0 14 13.5 35.5t32 41t38 33t31.5 13.5t26.5 -11.5t27 -26.5t19.5 -34t7 -33t-13.5 -34.5t-32 -40t-39 -32.5t-34.5 -13q-12 0 -25.5 10t-24.5 25.5t-18.5 34t-7.5 32.5zM348 82q0 14 13.5 35.5t32 41t38 33t31.5 13.5t26.5 -11.5t26.5 -26.5t19.5 -34t7.5 -33 t-13.5 -34.5t-32 -40t-39 -32.5t-34.5 -13q-12 0 -25.5 10t-25 25.5t-18.5 34t-7 32.5zM684 82q0 14 13.5 35.5t32 41t37.5 33t32 13.5q12 0 26.5 -11.5t26.5 -26.5t19.5 -34t7.5 -33t-13.5 -34.5t-32 -40t-39 -32.5t-34.5 -13q-12 0 -25.5 10t-25 25.5t-18.5 34t-7 32.5z " />
<glyph unicode="&#x202f;" horiz-adv-x="371" />
<glyph unicode="&#x2039;" horiz-adv-x="462" d="M14 567q113 68 214.5 159t172.5 187l62 -77q-53 -78 -122 -150t-146 -125q57 -53 103 -123.5t69 -148.5l-88 -68q-37 96 -106 188.5t-159 157.5z" />
<glyph unicode="&#x203a;" horiz-adv-x="462" d="M8 299q51 78 121 148.5t145 123.5q-57 53 -102 125t-68 150l86 67q37 -96 106 -187t161 -159q-115 -66 -216.5 -158t-172.5 -188z" />
<glyph unicode="&#x205f;" horiz-adv-x="464" />
<glyph unicode="&#x2122;" horiz-adv-x="851" d="M176 1253l10 54h287l-8 -54h-115l-57 -325h-60l58 325h-115zM434 928l96 379h37l84 -289l193 289h39l-37 -379h-58l29 254l-170 -256h-20l-74 254l-64 -252h-55z" />
<glyph unicode="&#x25fc;" horiz-adv-x="931" d="M0 0v932h932v-932h-932z" />
</font>
</defs>
</svg>
